<svg xmlns="http://www.w3.org/2000/svg" width="22" height="18"><path fill="#fff" d="M21.557 2.896a9.064 9.064 0 0 1-2.17 2.236 12.288 12.288 0 0 1-.495 4.038 12.56 12.56 0 0 1-1.547 3.328 13.084 13.084 0 0 1-2.47 2.82c-.956.817-2.108 1.468-3.456 1.955-1.348.487-2.79.73-4.326.73-2.42 0-4.634-.647-6.643-1.942.312.036.66.054 1.045.054 2.009 0 3.799-.617 5.37-1.849a4.217 4.217 0 0 1-2.518-.864 4.231 4.231 0 0 1-1.526-2.136c.294.045.566.067.816.067.384 0 .764-.049 1.139-.147a4.256 4.256 0 0 1-2.484-1.493 4.18 4.18 0 0 1-.985-2.753v-.053c.607.34 1.26.522 1.955.549a4.32 4.32 0 0 1-1.406-1.54 4.215 4.215 0 0 1-.522-2.063c0-.785.196-1.513.59-2.183a12.263 12.263 0 0 0 3.943 3.194c1.55.8 3.208 1.244 4.976 1.333a4.8 4.8 0 0 1-.107-.991c0-1.197.422-2.217 1.265-3.06.844-.844 1.864-1.266 3.06-1.266 1.25 0 2.304.455 3.161 1.366a8.483 8.483 0 0 0 2.746-1.045c-.33 1.027-.964 1.822-1.902 2.384a8.592 8.592 0 0 0 2.491-.67z"/></svg>