<svg xmlns="http://www.w3.org/2000/svg" viewBox="0 0 31 31"><path fill="#fff" d="M15.5 2.7c3.5 0 3.9 0 5.3.1 1.3.1 2.3.2 3.1.6.8.3 1.6.7 2.2 1.5.7.7 1.2 1.4 1.5 2.2.3.8.5 1.7.6 3.1s.1 1.8.1 5.3 0 3.9-.1 5.3c-.1 1.3-.2 2.3-.6 3.1-.3.8-.7 1.6-1.5 2.2-.7.7-1.4 1.2-2.2 1.5-.8.3-1.7.5-3.1.6-1.3.1-1.8.1-5.3.1s-3.9 0-5.3-.1c-1.3-.1-2.3-.2-3.1-.6-.8-.3-1.6-.7-2.2-1.5-.7-.7-1.2-1.4-1.5-2.2-.3-.8-.5-1.7-.6-3.1s-.1-1.8-.1-5.3 0-3.9.1-5.3c.1-1.3.2-2.3.6-3.1.3-.8.7-1.6 1.5-2.2.7-.7 1.4-1.2 2.2-1.5.8-.3 1.7-.5 3.1-.6 1.4-.1 1.8-.1 5.3-.1zm0 2.3c-3.4 0-3.8 0-5.2.1-1.2.1-1.9.2-2.4.4-.6.2-1 .5-1.5 1-.4.4-.7.9-1 1.5-.2.4-.4 1.2-.4 2.4-.1 1.3-.1 1.7-.1 5.2 0 3.4 0 3.8.1 5.2.1 1.2.2 1.9.4 2.4.2.6.5 1 1 1.5.4.4.9.7 1.5 1 .4.2 1.2.4 2.4.4 1.3.1 1.7.1 5.2.1s3.8 0 5.2-.1c1.2-.1 1.9-.2 2.4-.4.6-.2 1-.5 1.5-1 .4-.4.7-.9 1-1.5.2-.4.4-1.2.4-2.4.1-1.3.1-1.7.1-5.2 0-3.4 0-3.8-.1-5.2-.1-1.2-.2-1.9-.4-2.4-.2-.6-.5-1-1-1.5-.4-.4-.9-.7-1.5-1-.4-.2-1.2-.4-2.4-.4-1.4-.1-1.8-.2-5.2-.1zm-.4 15.2c2.4 0 4.3-1.9 4.3-4.3s-1.9-4.3-4.3-4.3-4.3 1.9-4.3 4.3 1.9 4.3 4.3 4.3zm0-10.9c3.7 0 6.6 3 6.6 6.6 0 3.7-3 6.6-6.6 6.6s-6.6-3-6.6-6.6c-.1-3.6 2.9-6.6 6.6-6.6zm8.5-.7c0 .9-.7 1.7-1.7 1.7-.9 0-1.7-.7-1.7-1.7s.7-1.7 1.7-1.7c.9 0 1.7.7 1.7 1.7z"/></svg>