<svg class="svg-youtube" width="31" height="30" xmlns="http://www.w3.org/2000/svg"><path d="M8.485 12V7.246L6 0h2.102l1.355 4.797h.13L10.88 0H13l-2.428 7.021V12H8.485zm11.738 0c-.407 0-.71-.135-.916-.4-.204-.262-.307-.658-.307-1.185V3h1.749v6.8c0 .21.04.362.114.454.07.096.191.143.355.143.13 0 .292-.062.49-.187.196-.125.377-.283.538-.476V3H24v8.87h-1.754v-.982c-.32.362-.656.638-1.007.828-.349.187-.687.284-1.016.284zM18.5 20c.162 0 .287.073.374.219.084.148.126.363.126.65v4.368c0 .27-.037.462-.105.58a.345.345 0 0 1-.323.183.536.536 0 0 1-.288-.092 1.135 1.135 0 0 1-.284-.3V20.34a.96.96 0 0 1 .247-.259A.443.443 0 0 1 18.5 20zM14.772 5.11v4.667c0 .236.062.416.183.545.123.131.299.194.526.194.233 0 .419-.065.557-.197.137-.131.206-.313.206-.542V5.11a.565.565 0 0 0-.21-.454c-.14-.116-.325-.172-.553-.172a.75.75 0 0 0-.513.172.58.58 0 0 0-.196.454zm.715 6.89c-.754 0-1.358-.217-1.81-.647-.452-.432-.677-1.009-.677-1.737V5.175c0-.666.23-1.192.694-1.585.464-.394 1.087-.59 1.87-.59.715 0 1.298.208 1.755.62.453.415.681.951.681 1.604V9.65c0 .733-.223 1.305-.668 1.723-.448.418-1.062.627-1.845.627zm8.017 8c.172 0 .3.083.377.254.078.16.119.436.119.82V22h-1v-.926c0-.384.037-.66.117-.82.079-.171.207-.254.387-.254zm2.589 2.965V20.95c0-.75-.193-1.323-.577-1.723-.387-.4-.938-.6-1.657-.6-.702 0-1.272.215-1.716.647-.445.431-.668.993-.668 1.676v3.55c0 .762.205 1.36.606 1.793.404.434.958.65 1.66.65.782 0 1.37-.204 1.76-.61.396-.413.592-1.023.592-1.833v-.406H24.48v.36c0 .466-.055.764-.158.902-.103.136-.284.205-.545.205-.25 0-.426-.08-.531-.24-.104-.162-.154-.451-.154-.868v-1.489h3zm-5.439 2.132v-4.389c0-.647-.13-1.14-.393-1.477-.261-.338-.64-.505-1.137-.505a1.53 1.53 0 0 0-.724.19 2.429 2.429 0 0 0-.671.548v-3.452h-1.586v10.716h1.586v-.605c.204.243.43.42.67.535.239.115.511.172.82.172.465 0 .822-.148 1.066-.446.246-.3.37-.73.37-1.287zm-5.69 1.631v-7.905h-1.568v6.005a2.132 2.132 0 0 1-.487.424c-.177.111-.324.166-.436.166-.149 0-.255-.04-.323-.126-.063-.083-.097-.218-.097-.404v-6.065h-1.568v6.61c0 .472.093.822.275 1.059.186.236.456.354.82.354.295 0 .598-.082.911-.254a3.33 3.33 0 0 0 .905-.73v.866h1.568zM9.796 17.57v-1.558H4.372v1.558H6.2v9.158h1.768V17.57h1.828zM25.337 14C28.465 14 31 16.557 31 19.708v4.585C31 27.445 28.465 30 25.337 30H5.663C2.535 30 0 27.445 0 24.293v-4.585C0 16.557 2.535 14 5.663 14h19.674z" fill="#231F20" fill-rule="evenodd"/></svg>