<svg width="37" height="38" viewBox="0 0 37 38" fill="none" xmlns="http://www.w3.org/2000/svg">
<path d="M13.9831 11.3517C14.3973 11.3517 14.7331 11.016 14.7331 10.6017C14.7331 10.1875 14.3973 9.85175 13.9831 9.85175V11.3517ZM18.0586 5.80087C18.0586 6.21509 18.3944 6.55087 18.8086 6.55087C19.2228 6.55087 19.5586 6.21509 19.5586 5.80087H18.0586ZM19.5661 32.4133C19.5768 31.9992 19.2498 31.6548 18.8357 31.6441C18.4216 31.6334 18.0773 31.9604 18.0666 32.3745L19.5661 32.4133ZM16.5143 36.3238L16.1298 35.6799L16.1295 35.6801L16.5143 36.3238ZM9.99922 34.7077L10.6412 34.32L10.641 34.3197L9.99922 34.7077ZM10.567 29.082L10.016 28.5731L10.0155 28.5737L10.567 29.082ZM13.8161 26.6696C14.0971 26.3653 14.0782 25.8908 13.774 25.6097C13.4697 25.3287 12.9952 25.3476 12.7141 25.6518L13.8161 26.6696ZM27.2111 28.1742C26.9287 27.8712 26.4541 27.8544 26.1511 28.1368C25.848 28.4192 25.8313 28.8938 26.1136 29.1968L27.2111 28.1742ZM27.0324 29.0826L27.5838 28.5743L27.5811 28.5713L27.0324 29.0826ZM27.5995 34.7083L26.9577 34.3204L26.9575 34.3207L27.5995 34.7083ZM21.085 36.3244L21.4701 35.6808L21.4696 35.6805L21.085 36.3244ZM18.8252 32.3945H18.0752V32.4042L18.0755 32.4139L18.8252 32.3945ZM26.2687 2.74956C26.5845 3.01751 27.0578 2.97865 27.3258 2.66278C27.5937 2.3469 27.5548 1.87362 27.239 1.60567L26.2687 2.74956ZM6.6754 6.93273C7.04173 6.7394 7.18197 6.28571 6.98864 5.91938C6.7953 5.55305 6.34161 5.41281 5.97528 5.60614L6.6754 6.93273ZM4.71943 11.9312L5.21013 12.4984C5.42429 12.3131 5.51583 12.023 5.44681 11.7484L4.71943 11.9312ZM4.12553 23.8965L4.85749 24.06C4.9143 23.8056 4.83501 23.54 4.64806 23.3585L4.12553 23.8965ZM9.12514 33.0649C9.53848 33.0917 9.89531 32.7784 9.92213 32.365C9.94895 31.9517 9.63561 31.5949 9.22226 31.568L9.12514 33.0649ZM18.0946 2.08781C17.7682 1.8327 17.2969 1.89043 17.0418 2.21676C16.7867 2.5431 16.8444 3.01445 17.1707 3.26956L18.0946 2.08781ZM14.9742 6.03604C14.6479 5.78093 14.1765 5.83867 13.9214 6.165C13.6663 6.49133 13.724 6.96268 14.0504 7.21779L14.9742 6.03604ZM10.6802 15.8422C11.0825 15.9407 11.4886 15.6944 11.5871 15.2921C11.6856 14.8898 11.4393 14.4837 11.037 14.3852L10.6802 15.8422ZM11.8859 10.9646C12.2883 11.0628 12.6941 10.8161 12.7923 10.4137C12.8904 10.0113 12.6438 9.60551 12.2414 9.50735L11.8859 10.9646ZM18.1432 17.0975C18.4495 17.3764 18.9238 17.3543 19.2027 17.048C19.4816 16.7418 19.4595 16.2674 19.1532 15.9885L18.1432 17.0975ZM14.9613 16.7161L14.401 16.2176L14.3607 16.2628L14.3283 16.3139L14.9613 16.7161ZM8.21692 22.0616C7.80271 22.0616 7.46692 22.3974 7.46692 22.8116C7.46692 23.2258 7.80271 23.5616 8.21692 23.5616V22.0616ZM14.731 30.2066C14.5333 30.5706 14.6682 31.0259 15.0322 31.2236C15.3962 31.4213 15.8515 31.2864 16.0492 30.9224L14.731 30.2066ZM17.8637 29.8271L17.5086 30.4877L17.5095 30.4882L17.8637 29.8271ZM18.0705 31.4741C18.0534 31.888 18.375 32.2374 18.7888 32.2545C19.2027 32.2717 19.5521 31.9501 19.5692 31.5362L18.0705 31.4741ZM9.03356 26.3639C8.64258 26.2271 8.21474 26.4332 8.07796 26.8242C7.94117 27.2151 8.14723 27.643 8.53821 27.7798L9.03356 26.3639ZM11.2185 28.7175C11.6095 28.8543 12.0373 28.6482 12.1741 28.2572C12.3109 27.8663 12.1048 27.4384 11.7138 27.3016L11.2185 28.7175ZM7.39643 17.1602C7.02129 16.9845 6.57481 17.1462 6.39917 17.5214C6.22354 17.8965 6.38526 18.343 6.7604 18.5186L7.39643 17.1602ZM10.8344 21.4516C11.1161 21.7553 11.5907 21.773 11.8943 21.4913C12.198 21.2096 12.2157 20.735 11.934 20.4314L10.8344 21.4516ZM22.3622 7.44185C21.9595 7.53911 21.712 7.94436 21.8093 8.34699C21.9065 8.74962 22.3118 8.99717 22.7144 8.89991L22.3622 7.44185ZM26.749 10.9028C26.9127 11.2833 27.3538 11.4591 27.7343 11.2954C28.1148 11.1318 28.2906 10.6906 28.127 10.3101L26.749 10.9028ZM28.3998 25.506C28.3694 25.0929 28.0099 24.7826 27.5968 24.813C27.1837 24.8433 26.8735 25.2028 26.9038 25.6159L28.3998 25.506ZM25.876 29.1765L25.4269 28.5759L25.4268 28.576L25.876 29.1765ZM22.9614 29.3372C22.5482 29.3076 22.1893 29.6185 22.1596 30.0316C22.13 30.4448 22.4409 30.8037 22.854 30.8334L22.9614 29.3372ZM22.3223 25.6045C22.5199 25.9685 22.9752 26.1034 23.3393 25.9057C23.7033 25.708 23.8381 25.2527 23.6404 24.8887L22.3223 25.6045ZM19.9631 24.5092L20.3173 25.1703L20.3182 25.1698L19.9631 24.5092ZM18.0741 26.2184C18.0912 26.6322 18.4406 26.9538 18.8545 26.9367C19.2683 26.9195 19.5899 26.5701 19.5728 26.1562L18.0741 26.2184ZM32.896 11.9306L33.3867 11.3634C33.3821 11.3595 33.3775 11.3556 33.3729 11.3518L32.896 11.9306ZM33.4899 23.8959L32.9673 23.3579C32.7804 23.5394 32.7011 23.805 32.7579 24.0594L33.4899 23.8959ZM28.3931 31.5674C27.9798 31.5943 27.6664 31.9511 27.6933 32.3644C27.7201 32.7778 28.0769 33.0911 28.4902 33.0643L28.3931 31.5674ZM19.2325 19.5482C18.8324 19.441 18.4212 19.6784 18.314 20.0786C18.2068 20.4787 18.4442 20.8899 18.8444 20.9971L19.2325 19.5482ZM26.555 18.263C26.756 17.9008 26.6253 17.4443 26.2631 17.2433C25.9009 17.0423 25.4444 17.173 25.2434 17.5351L26.555 18.263ZM25.2189 18.9249C24.8959 18.6656 24.4238 18.7173 24.1645 19.0403C23.9052 19.3633 23.9569 19.8353 24.2799 20.0947L25.2189 18.9249ZM31.0941 19.7494C31.3739 19.4441 31.3532 18.9697 31.0479 18.6898C30.7425 18.4099 30.2681 18.4306 29.9882 18.736L31.0941 19.7494ZM23.6369 7.75886C23.5197 8.15614 23.7467 8.57324 24.1439 8.69049C24.5412 8.80774 24.9583 8.58073 25.0756 8.18346L23.6369 7.75886ZM32.1504 11.3909C31.9254 11.7387 32.025 12.203 32.3728 12.428C32.7206 12.653 33.1849 12.5534 33.4099 12.2056L32.1504 11.3909ZM19.3902 11.3707C19.0728 11.1046 18.5998 11.1461 18.3337 11.4635C18.0675 11.7809 18.1091 12.254 18.4265 12.5201L19.3902 11.3707ZM23.2159 14.897C23.6301 14.897 23.9659 14.5612 23.9659 14.147C23.9659 13.7328 23.6301 13.397 23.2159 13.397V14.897ZM31.7171 10.1447C31.3522 9.94888 30.8975 10.086 30.7016 10.4509C30.5058 10.8159 30.6429 11.2706 31.0078 11.4664L31.7171 10.1447ZM13.9831 9.85175C11.7289 9.85175 9.90767 8.03432 9.90767 5.80087H8.40767C8.40767 8.86996 10.9077 11.3517 13.9831 11.3517V9.85175ZM9.90767 5.80087C9.90767 3.56743 11.7289 1.75 13.9831 1.75V0.25C10.9077 0.25 8.40767 2.73179 8.40767 5.80087H9.90767ZM13.9831 1.75C16.2374 1.75 18.0586 3.56743 18.0586 5.80087H19.5586C19.5586 2.73179 17.0586 0.25 13.9831 0.25V1.75ZM18.0666 32.3745C18.0326 33.6876 17.3465 34.9533 16.1298 35.6799L16.8989 36.9677C18.5733 35.9677 19.5193 34.2211 19.5661 32.4133L18.0666 32.3745ZM16.1295 35.6801C14.2352 36.8127 11.7774 36.2011 10.6412 34.32L9.35725 35.0955C10.9221 37.6862 14.2989 38.5222 16.8992 36.9675L16.1295 35.6801ZM10.641 34.3197C9.70879 32.7778 9.95296 30.8548 11.1185 29.5903L10.0155 28.5737C8.41107 30.3144 8.06965 32.9659 9.35742 35.0958L10.641 34.3197ZM11.118 29.5909L13.8161 26.6696L12.7141 25.6518L10.016 28.5731L11.118 29.5909ZM26.1136 29.1968L26.4836 29.5939L27.5811 28.5713L27.2111 28.1742L26.1136 29.1968ZM26.4809 29.5909C27.6462 30.8552 27.8901 32.7777 26.9577 34.3204L28.2414 35.0963C29.529 32.9661 29.1884 30.3152 27.5838 28.5743L26.4809 29.5909ZM26.9575 34.3207C25.8218 36.2018 23.3636 36.8137 21.4701 35.6808L20.6999 36.968C23.2999 38.5236 26.6774 37.6867 28.2416 35.096L26.9575 34.3207ZM21.4696 35.6805C20.2642 34.9606 19.6093 33.7014 19.575 32.375L18.0755 32.4139C18.1219 34.2073 19.0148 35.9616 20.7005 36.9683L21.4696 35.6805ZM19.5752 32.3945V5.80087H18.0752V32.3945H19.5752ZM19.5752 5.80087C19.5752 3.56036 21.3685 1.75 23.6162 1.75V0.25C20.5331 0.25 18.0752 2.73886 18.0752 5.80087H19.5752ZM23.6162 1.75C24.5255 1.75 25.5537 2.14311 26.2687 2.74956L27.239 1.60567C26.2696 0.783381 24.902 0.25 23.6162 0.25V1.75ZM5.97528 5.60614C5.19843 6.01614 4.43684 6.69715 4.01229 7.79647C3.59238 8.8838 3.53498 10.2954 3.99205 12.114L5.44681 11.7484C5.03916 10.1264 5.13647 9.04919 5.41157 8.33686C5.68204 7.63652 6.15577 7.20697 6.6754 6.93273L5.97528 5.60614ZM4.71943 11.9312C4.22873 11.364 4.22844 11.3643 4.22812 11.3645C4.22798 11.3647 4.22763 11.365 4.22735 11.3652C4.22679 11.3657 4.22612 11.3663 4.22535 11.367C4.22381 11.3683 4.22185 11.37 4.2195 11.3721C4.21479 11.3762 4.20846 11.3818 4.2006 11.3888C4.18489 11.4029 4.16302 11.4226 4.13563 11.4479C4.08086 11.4984 4.00386 11.5712 3.90961 11.6648C3.7213 11.8519 3.4629 12.1232 3.17457 12.4677C2.6008 13.1532 1.8935 14.146 1.39135 15.355C0.887885 16.5672 0.582275 18.0183 0.84793 19.5963C1.11477 21.1814 1.94659 22.8258 3.603 24.4345L4.64806 23.3585C3.18648 21.9389 2.53355 20.5735 2.32712 19.3473C2.1195 18.1141 2.35212 16.9524 2.77662 15.9303C3.20245 14.9051 3.81287 14.0421 4.32483 13.4305C4.57936 13.1264 4.80583 12.8888 4.96667 12.7291C5.04699 12.6493 5.11064 12.5892 5.15287 12.5502C5.17398 12.5308 5.18971 12.5166 5.19945 12.5079C5.20433 12.5035 5.20771 12.5006 5.20951 12.499C5.21041 12.4982 5.21092 12.4977 5.21103 12.4976C5.21108 12.4976 5.21104 12.4976 5.21089 12.4978C5.21081 12.4978 5.21062 12.498 5.21059 12.498C5.21037 12.4982 5.21013 12.4984 4.71943 11.9312ZM4.12553 23.8965C3.39356 23.733 3.39349 23.7333 3.39341 23.7337C3.39338 23.7338 3.39329 23.7342 3.39322 23.7345C3.39308 23.7352 3.39291 23.7359 3.39271 23.7368C3.39233 23.7386 3.39183 23.7408 3.39124 23.7436C3.39006 23.749 3.38848 23.7564 3.38654 23.7657C3.38267 23.7842 3.37737 23.8101 3.37098 23.843C3.35819 23.9088 3.34096 24.0026 3.32191 24.1205C3.28385 24.356 3.23824 24.6896 3.20624 25.09C3.14264 25.8857 3.13062 26.9712 3.35286 28.0868C3.57496 29.2017 4.04043 30.3918 4.96773 31.3386C5.90763 32.2984 7.25927 32.9438 9.12514 33.0649L9.22226 31.568C7.67319 31.4675 6.68634 30.9497 6.0394 30.2891C5.37988 29.6157 5.01016 28.7285 4.82396 27.7938C4.63789 26.8598 4.64443 25.9233 4.70147 25.2095C4.72978 24.8552 4.77001 24.5621 4.80271 24.3597C4.81904 24.2586 4.83342 24.1806 4.8434 24.1293C4.84838 24.1037 4.85225 24.0848 4.85471 24.0731C4.85594 24.0672 4.85681 24.0631 4.85729 24.0609C4.85752 24.0598 4.85766 24.0592 4.8577 24.059C4.85772 24.0589 4.85771 24.059 4.85768 24.0591C4.85766 24.0592 4.85761 24.0594 4.8576 24.0595C4.85755 24.0597 4.85749 24.06 4.12553 23.8965ZM17.1707 3.26956C17.9362 3.86793 18.0693 4.98156 17.4694 5.74062L18.6463 6.67062C19.7629 5.25762 19.5135 3.19707 18.0946 2.08781L17.1707 3.26956ZM17.4694 5.74062C16.8681 6.50165 15.7425 6.63664 14.9742 6.03604L14.0504 7.21779C15.4665 8.32483 17.5313 8.08166 18.6463 6.67062L17.4694 5.74062ZM11.037 14.3852C10.0872 14.1526 9.50573 13.1905 9.73672 12.2552L8.28047 11.8956C7.84867 13.644 8.93245 15.4141 10.6802 15.8422L11.037 14.3852ZM9.73672 12.2552C9.96803 11.3186 10.9342 10.7325 11.8859 10.9646L12.2414 9.50735C10.4944 9.08125 8.71196 10.1484 8.28047 11.8956L9.73672 12.2552ZM19.1532 15.9885C17.7439 14.705 15.5942 14.8764 14.401 16.2176L15.5216 17.2147C16.1694 16.4866 17.3622 16.3862 18.1432 17.0975L19.1532 15.9885ZM14.9613 16.7161C14.3283 16.3139 14.3283 16.3138 14.3284 16.3137C14.3284 16.3138 14.3284 16.3137 14.3284 16.3137C14.3283 16.3138 14.3282 16.3139 14.3281 16.3142C14.3278 16.3146 14.3273 16.3154 14.3265 16.3166C14.325 16.319 14.3226 16.3228 14.3193 16.328C14.3126 16.3383 14.3023 16.3542 14.2886 16.3753C14.2611 16.4175 14.2198 16.4804 14.1659 16.561C14.058 16.7222 13.8998 16.954 13.7008 17.2328C13.3019 17.7915 12.7431 18.533 12.1001 19.2713C11.4538 20.0134 10.7403 20.7313 10.0338 21.2578C9.30747 21.799 8.68944 22.0616 8.21692 22.0616V23.5616C9.17987 23.5616 10.1226 23.0623 10.93 22.4606C11.7572 21.8442 12.5504 21.0383 13.2313 20.2565C13.9155 19.4709 14.5045 18.6885 14.9216 18.1044C15.1306 17.8117 15.2974 17.5672 15.4126 17.3951C15.4702 17.309 15.5149 17.2409 15.5456 17.1938C15.5609 17.1703 15.5727 17.152 15.5809 17.1393C15.585 17.1329 15.5882 17.128 15.5904 17.1245C15.5915 17.1227 15.5924 17.1213 15.593 17.1203C15.5934 17.1198 15.5936 17.1194 15.5938 17.1191C15.5939 17.1189 15.5941 17.1187 15.5941 17.1187C15.5942 17.1185 15.5943 17.1184 14.9613 16.7161ZM16.0492 30.9224C16.3301 30.4051 16.9884 30.2081 17.5086 30.4877L18.2188 29.1665C16.9715 28.496 15.4063 28.9631 14.731 30.2066L16.0492 30.9224ZM17.5095 30.4882C17.8788 30.686 18.087 31.0761 18.0705 31.4741L19.5692 31.5362C19.6086 30.5871 19.1148 29.6465 18.2179 29.166L17.5095 30.4882ZM8.53821 27.7798L11.2185 28.7175L11.7138 27.3016L9.03356 26.3639L8.53821 27.7798ZM7.07841 17.8394C6.7604 18.5186 6.76029 18.5186 6.76019 18.5185C6.76017 18.5185 6.76008 18.5185 6.76004 18.5185C6.75996 18.5184 6.75992 18.5184 6.75992 18.5184C6.75991 18.5184 6.76005 18.5185 6.76035 18.5186C6.76093 18.5189 6.76212 18.5194 6.76389 18.5203C6.76743 18.522 6.77331 18.5248 6.78144 18.5287C6.79769 18.5365 6.82291 18.5488 6.85631 18.5654C6.92312 18.5987 7.02252 18.6492 7.1482 18.7161C7.39983 18.85 7.75531 19.0489 8.16465 19.3057C8.98917 19.8228 10.0055 20.5582 10.8344 21.4516L11.934 20.4314C10.9813 19.4045 9.84464 18.5888 8.96168 18.035C8.51729 17.7562 8.13039 17.5396 7.85308 17.392C7.71429 17.3181 7.60257 17.2613 7.52439 17.2224C7.48529 17.203 7.45454 17.188 7.43295 17.1776C7.42216 17.1724 7.41365 17.1683 7.40753 17.1654C7.40447 17.1639 7.40201 17.1628 7.40015 17.1619C7.39922 17.1615 7.39845 17.1611 7.39783 17.1608C7.39752 17.1607 7.39724 17.1605 7.39701 17.1604C7.39689 17.1604 7.39675 17.1603 7.39669 17.1603C7.39655 17.1602 7.39643 17.1602 7.07841 17.8394ZM22.7144 8.89991C24.3981 8.49319 26.0914 9.37399 26.749 10.9028L28.127 10.3101C27.1834 8.11643 24.7634 6.8618 22.3622 7.44185L22.7144 8.89991ZM26.9038 25.6159C26.9784 26.6315 26.4785 27.7897 25.4269 28.5759L26.3251 29.7772C27.7489 28.7128 28.5152 27.0773 28.3998 25.506L26.9038 25.6159ZM25.4268 28.576C24.6552 29.1531 23.7643 29.3948 22.9614 29.3372L22.854 30.8334C24.0276 30.9176 25.2736 30.5637 26.3252 29.7771L25.4268 28.576ZM23.6404 24.8887C23.2558 24.1804 22.4787 23.7957 21.7916 23.6385C21.0953 23.4792 20.26 23.4981 19.608 23.8486L20.3182 25.1698C20.55 25.0452 20.9847 24.9927 21.4571 25.1007C21.9386 25.2109 22.2288 25.4324 22.3223 25.6045L23.6404 24.8887ZM19.609 23.8481C18.8363 24.262 18.0297 25.1474 18.0741 26.2184L19.5728 26.1562C19.5613 25.8799 19.8237 25.4347 20.3173 25.1703L19.609 23.8481ZM32.896 11.9306C32.4053 12.4978 32.405 12.4976 32.4048 12.4974C32.4048 12.4974 32.4046 12.4972 32.4045 12.4972C32.4043 12.497 32.4043 12.497 32.4044 12.497C32.4045 12.4971 32.405 12.4976 32.4059 12.4984C32.4077 12.5 32.4111 12.5029 32.4159 12.5073C32.4257 12.516 32.4414 12.5302 32.4625 12.5496C32.5047 12.5886 32.5684 12.6487 32.6487 12.7285C32.8095 12.8882 33.036 13.1258 33.2906 13.4299C33.8025 14.0415 34.4129 14.9045 34.8388 15.9297C35.2633 16.9518 35.4959 18.1135 35.2883 19.3467C35.0818 20.5729 34.4289 21.9384 32.9673 23.3579L34.0124 24.4339C35.6688 22.8252 36.5006 21.1808 36.7675 19.5957C37.0331 18.0177 36.7275 16.5666 36.224 15.3544C35.7219 14.1454 35.0146 13.1526 34.4408 12.4671C34.1525 12.1226 33.8941 11.8513 33.7058 11.6642C33.6115 11.5706 33.5345 11.4978 33.4798 11.4473C33.4524 11.422 33.4305 11.4023 33.4148 11.3882C33.4069 11.3812 33.4006 11.3756 33.3959 11.3715C33.3935 11.3694 33.3916 11.3677 33.39 11.3664C33.3893 11.3657 33.3886 11.3651 33.388 11.3646C33.3877 11.3644 33.3874 11.3641 33.3873 11.364C33.3869 11.3637 33.3867 11.3634 32.896 11.9306ZM33.4899 23.8959C32.7579 24.0594 32.7578 24.0591 32.7578 24.0589C32.7578 24.0588 32.7577 24.0586 32.7577 24.0585C32.7577 24.0584 32.7577 24.0584 32.7577 24.0584C32.7577 24.0586 32.7579 24.0592 32.7581 24.0603C32.7586 24.0625 32.7594 24.0666 32.7607 24.0725C32.7631 24.0842 32.767 24.1031 32.772 24.1287C32.782 24.18 32.7963 24.2581 32.8127 24.3591C32.8454 24.5615 32.8856 24.8547 32.9139 25.2089C32.971 25.9227 32.9775 26.8592 32.7914 27.7932C32.6052 28.7279 32.2355 29.6151 31.576 30.2885C30.929 30.9491 29.9422 31.4669 28.3931 31.5674L28.4902 33.0643C30.3561 32.9432 31.7078 32.2978 32.6476 31.3381C33.575 30.3912 34.0404 29.2011 34.2625 28.0862C34.4848 26.9706 34.4727 25.8852 34.4091 25.0894C34.3771 24.689 34.3315 24.3554 34.2935 24.1199C34.2744 24.002 34.2572 23.9082 34.2444 23.8424C34.238 23.8095 34.2327 23.7836 34.2288 23.7651C34.2269 23.7558 34.2253 23.7485 34.2241 23.743C34.2235 23.7403 34.2231 23.738 34.2227 23.7362C34.2225 23.7353 34.2223 23.7346 34.2222 23.7339C34.2221 23.7336 34.222 23.7332 34.222 23.7331C34.2219 23.7327 34.2218 23.7324 33.4899 23.8959ZM19.0384 20.2726C18.8444 20.9971 18.8447 20.9972 18.845 20.9972C18.8451 20.9973 18.8455 20.9974 18.8457 20.9974C18.8463 20.9976 18.8469 20.9978 18.8476 20.9979C18.8489 20.9983 18.8506 20.9987 18.8525 20.9992C18.8564 21.0003 18.8615 21.0016 18.8678 21.0032C18.8802 21.0063 18.8972 21.0106 18.9186 21.0157C18.9614 21.0259 19.0216 21.0397 19.0975 21.0554C19.249 21.0868 19.4636 21.1262 19.7261 21.1609C20.2488 21.2299 20.9739 21.2816 21.7748 21.2076C23.3757 21.0595 25.3732 20.3924 26.555 18.263L25.2434 17.5351C24.3904 19.0722 22.9576 19.5918 21.6367 19.7139C20.9768 19.775 20.3683 19.7326 19.9224 19.6738C19.7007 19.6445 19.5224 19.6116 19.4021 19.5866C19.3419 19.5742 19.2965 19.5637 19.2676 19.5568C19.2531 19.5534 19.2428 19.5508 19.2369 19.5493C19.2339 19.5485 19.2321 19.548 19.2313 19.5479C19.231 19.5478 19.2309 19.5477 19.2311 19.5478C19.2312 19.5478 19.2313 19.5479 19.2316 19.5479C19.2317 19.548 19.2319 19.548 19.232 19.548C19.2322 19.5481 19.2325 19.5482 19.0384 20.2726ZM24.7494 19.5098C24.2799 20.0947 24.2802 20.0949 24.2804 20.0951C24.2806 20.0952 24.2809 20.0954 24.2811 20.0956C24.2815 20.096 24.2821 20.0964 24.2826 20.0968C24.2837 20.0977 24.285 20.0988 24.2866 20.1C24.2896 20.1024 24.2934 20.1054 24.298 20.1089C24.3072 20.1161 24.3195 20.1256 24.3348 20.1371C24.3654 20.1602 24.4082 20.1915 24.4621 20.2292C24.5698 20.3045 24.7231 20.4056 24.9145 20.516C25.2944 20.7352 25.8393 20.9998 26.486 21.1651C27.811 21.504 29.5671 21.4157 31.0941 19.7494L29.9882 18.736C28.9192 19.9024 27.7795 19.9477 26.8576 19.7119C26.3808 19.59 25.9645 19.3901 25.6641 19.2168C25.5153 19.1309 25.3987 19.0538 25.3214 18.9998C25.2829 18.9729 25.2545 18.9519 25.237 18.9387C25.2283 18.9322 25.2224 18.9276 25.2193 18.9252C25.2178 18.924 25.217 18.9234 25.2169 18.9233C25.2169 18.9233 25.217 18.9234 25.2173 18.9237C25.2175 18.9238 25.2177 18.924 25.218 18.9242C25.2181 18.9243 25.2183 18.9245 25.2184 18.9246C25.2187 18.9247 25.2189 18.9249 24.7494 19.5098ZM25.0756 8.18346C25.5529 6.56611 27.0584 5.38271 28.8432 5.38271V3.88271C26.3803 3.88271 24.2987 5.51661 23.6369 7.75886L25.0756 8.18346ZM28.8432 5.38271C31.016 5.38271 32.7701 7.13337 32.7701 9.28586H34.2701C34.2701 6.29773 31.8372 3.88271 28.8432 3.88271V5.38271ZM32.7701 9.28586C32.7701 10.0624 32.5428 10.7843 32.1504 11.3909L33.4099 12.2056C33.9546 11.3634 34.2701 10.3599 34.2701 9.28586H32.7701ZM18.9084 11.9454C18.4265 12.5201 18.4266 12.5202 18.4267 12.5203C18.4267 12.5203 18.4268 12.5204 18.4269 12.5205C18.4271 12.5207 18.4274 12.5209 18.4277 12.5211C18.4282 12.5216 18.4289 12.5222 18.4298 12.5229C18.4316 12.5244 18.434 12.5264 18.437 12.5288C18.443 12.5338 18.4515 12.5409 18.4624 12.5498C18.4841 12.5677 18.5154 12.5931 18.5553 12.6251C18.6351 12.6891 18.7497 12.7794 18.892 12.8872C19.1759 13.1023 19.574 13.3901 20.0293 13.6793C20.4826 13.9672 21.0057 14.2648 21.5384 14.4926C22.0604 14.7158 22.6485 14.897 23.2159 14.897V13.397C22.9424 13.397 22.5715 13.303 22.1282 13.1134C21.6955 12.9284 21.2469 12.6756 20.8335 12.4131C20.4222 12.1519 20.0588 11.8893 19.7978 11.6916C19.6677 11.593 19.564 11.5113 19.4936 11.4549C19.4585 11.4267 19.4317 11.4048 19.4142 11.3905C19.4054 11.3833 19.3989 11.3779 19.3949 11.3746C19.3929 11.3729 19.3915 11.3717 19.3907 11.3711C19.3903 11.3708 19.3901 11.3706 19.39 11.3705C19.39 11.3705 19.39 11.3705 19.39 11.3705C19.39 11.3705 19.3901 11.3706 19.3901 11.3706C19.3902 11.3706 19.3902 11.3707 18.9084 11.9454ZM32.896 11.9306C33.3729 11.3518 33.3729 11.3518 33.3728 11.3518C33.3728 11.3518 33.3728 11.3517 33.3728 11.3517C33.3727 11.3517 33.3726 11.3516 33.3725 11.3515C33.3723 11.3514 33.3721 11.3512 33.3718 11.3509C33.3712 11.3504 33.3703 11.3497 33.3691 11.3487C33.3669 11.3469 33.3637 11.3442 33.3595 11.3408C33.3511 11.334 33.3391 11.3241 33.3236 11.3115C33.2928 11.2864 33.2485 11.2504 33.194 11.2066C33.0851 11.1191 32.9345 10.9995 32.7678 10.871C32.4528 10.6283 32.0215 10.3081 31.7171 10.1447L31.0078 11.4664C31.1857 11.5619 31.5212 11.8042 31.8523 12.0593C32.0087 12.1798 32.151 12.2928 32.2544 12.3759C32.3059 12.4173 32.3475 12.4511 32.3761 12.4743C32.3903 12.4859 32.4013 12.4949 32.4086 12.5009C32.4122 12.5039 32.4149 12.5061 32.4167 12.5075C32.4176 12.5083 32.4182 12.5088 32.4186 12.5091C32.4188 12.5093 32.4189 12.5094 32.419 12.5094C32.419 12.5095 32.419 12.5095 32.419 12.5095C32.419 12.5095 32.419 12.5095 32.419 12.5095C32.419 12.5094 32.419 12.5094 32.896 11.9306Z" fill="#AD5A40"/>
</svg>
