<svg width="51" height="37" viewBox="0 0 51 37" fill="none" xmlns="http://www.w3.org/2000/svg">
<path d="M49.6186 9.83988C49.3968 9.90779 49.1627 9.95099 48.9286 10.0065L46.2056 10.6238C46.1196 10.6337 46.0328 10.6337 45.9468 10.6238C45.6883 10.6417 45.4322 10.5634 45.2276 10.404C45.023 10.2445 44.8843 10.0151 44.8379 9.75964C44.8069 9.51026 44.8691 9.25821 45.0124 9.05196C45.1557 8.84572 45.37 8.69983 45.6142 8.64235C46.7847 8.35223 47.9552 8.07445 49.1319 7.82137C49.2648 7.78124 49.4044 7.76864 49.5423 7.78432C49.6802 7.80001 49.8135 7.84365 49.934 7.9126C50.0545 7.98154 50.1598 8.07435 50.2434 8.18536C50.327 8.29637 50.3871 8.42326 50.4202 8.55832C50.4533 8.69337 50.4586 8.83375 50.4357 8.97092C50.4129 9.10809 50.3625 9.23917 50.2875 9.35618C50.2125 9.47319 50.1145 9.57367 49.9995 9.65153C49.8845 9.72938 49.7549 9.78296 49.6186 9.80902V9.83988ZM6.14891 9.76581C6.1751 9.52101 6.11135 9.27504 5.96961 9.07393C5.82786 8.87282 5.61783 8.73036 5.37882 8.67322C4.62722 8.48186 3.86946 8.30902 3.10554 8.13618C2.61527 8.00469 2.11736 7.90367 1.61465 7.83371C1.36543 7.79954 1.11268 7.86338 0.909388 8.01183C0.7061 8.16028 0.568064 8.38182 0.524216 8.63001C0.495329 8.75817 0.492252 8.89082 0.515169 9.02019C0.538085 9.14955 0.586533 9.27304 0.657675 9.38341C0.728816 9.49378 0.82122 9.58882 0.929478 9.66296C1.03774 9.7371 1.15967 9.78886 1.28814 9.81519C2.03974 10.0066 2.7975 10.1732 3.56143 10.3522L4.93526 10.6547C5.21274 10.6909 5.49348 10.6188 5.71939 10.4533C5.9453 10.2878 6.09907 10.0417 6.14891 9.76581ZM32.1531 25.2473C29.9291 25.2473 27.7051 25.2473 25.4811 25.2473C23.2571 25.2473 21.0331 25.2473 18.8091 25.2473C18.4826 25.2473 18.3594 25.3337 18.384 25.667C18.4086 26.0004 18.384 26.4263 18.384 26.8028C18.384 27.2967 18.384 27.2967 18.8707 27.2967H32.2147C32.4796 27.2967 32.5967 27.2288 32.5843 26.9387C32.5628 26.513 32.5628 26.0865 32.5843 25.6609C32.6028 25.3214 32.4673 25.2473 32.1531 25.2473ZM36.8845 10.1794C36.655 10.1223 36.4183 10.0995 36.1822 10.1115H14.4535C14.3142 10.1019 14.1745 10.1217 14.0433 10.1696C13.9121 10.2176 13.7925 10.2925 13.692 10.3897C13.5916 10.4868 13.5126 10.604 13.4602 10.7337C13.4077 10.8633 13.3831 11.0025 13.3877 11.1424C13.3877 11.7596 13.8374 12.1732 14.5705 12.1732H34.2416C35.0117 12.1732 35.7817 12.1732 36.5518 12.1732C36.7911 12.1802 37.025 12.1014 37.2114 11.9508C37.3978 11.8003 37.5244 11.588 37.5683 11.3522C37.6273 11.1061 37.589 10.8467 37.4616 10.6281C37.3342 10.4096 37.1274 10.2488 36.8845 10.1794ZM46.0824 19.093C46.0824 22.1794 46.0824 25.309 46.0824 28.414C46.0812 28.8175 45.9982 29.2166 45.8382 29.5869C45.6783 29.9573 45.4449 30.2912 45.1521 30.5683C45.0433 30.6756 44.9585 30.8048 44.9033 30.9474C44.848 31.09 44.8237 31.2427 44.8318 31.3954C44.8318 32.5004 44.8318 33.5991 44.8318 34.7041C44.8625 34.8795 44.8509 35.0598 44.798 35.2298C44.7451 35.3998 44.6524 35.5547 44.5276 35.6816C44.4028 35.8084 44.2496 35.9036 44.0806 35.959C43.9117 36.0145 43.732 36.0286 43.5565 36.0004C41.0306 36.0004 38.5109 36.0004 35.9912 36.0004C35.8351 36.0251 35.6754 36.0128 35.5249 35.9645C35.3744 35.9161 35.2373 35.8331 35.1247 35.722C35.012 35.611 34.927 35.475 34.8763 35.325C34.8257 35.175 34.8108 35.0152 34.833 34.8584C34.833 33.9572 34.833 33.0559 34.833 32.1547C34.833 31.4572 34.833 31.451 34.1553 31.451H16.622C16.1477 31.451 16.1107 31.488 16.1107 31.951C16.1107 32.9263 16.1107 33.8954 16.1107 34.8708C16.1353 35.0244 16.123 35.1817 16.0749 35.3297C16.0269 35.4777 15.9444 35.6121 15.8342 35.7218C15.7241 35.8316 15.5895 35.9135 15.4416 35.9609C15.2936 36.0082 15.1365 36.0197 14.9833 35.9942H7.31327C6.50623 35.9942 6.14891 35.6609 6.14891 34.8275C6.14891 33.6794 6.14891 32.5312 6.14891 31.3831C6.15815 31.2359 6.13539 31.0885 6.08221 30.951C6.02903 30.8136 5.94668 30.6893 5.84087 30.5868C5.53364 30.2903 5.29122 29.9331 5.12896 29.5378C4.96671 29.1425 4.88816 28.7178 4.89829 28.2905C4.89829 25.2041 4.89829 22.1177 4.89829 19.0806C4.93459 17.8457 5.24167 16.6339 5.79775 15.5312C6.58631 13.8584 7.39336 12.1979 8.10184 10.4942C8.58237 9.32754 8.92737 8.10532 9.33397 6.90778C9.64817 5.95099 9.88227 4.96951 10.2581 4.04359C10.8655 2.71308 11.9304 1.64601 13.2583 1.03741C14.4907 0.346538 15.8814 -0.0108684 17.2936 0.000377153C20.0412 0.043587 22.7889 0.000377153 25.5365 0.000377153C28.2842 0.000377153 30.9333 0.0374142 33.6317 0.000377153C35.4958 -0.0172577 37.3133 0.583983 38.8005 1.71025C39.7735 2.36454 40.5051 3.32097 40.8828 4.43248C41.0861 5.04976 41.2894 5.71643 41.4988 6.3584C42.2504 8.96297 43.236 11.4939 44.4436 13.9201C44.8071 14.6609 45.1644 15.414 45.4786 16.1794C45.868 17.1017 46.0731 18.0916 46.0824 19.093ZM41.2216 18.4387C41.1717 18.6738 41.0417 18.8842 40.8541 19.0339C40.6664 19.1837 40.4326 19.2635 40.1928 19.2596C39.6753 19.2596 39.1516 19.2596 38.628 19.2596C38.2955 19.2261 37.9612 19.3028 37.6764 19.4778C37.3915 19.6529 37.1718 19.9167 37.0508 20.2288C36.9399 20.4757 36.8414 20.7288 36.7428 20.9819C36.6442 21.2349 36.7428 21.3337 37.0015 21.3337H43.729C43.9939 21.3337 44.0863 21.2041 44.0863 20.9633C44.0863 20.4757 44.0863 19.988 44.0863 19.5066C44.0701 18.5445 43.8606 17.5955 43.4702 16.7164C42.6078 14.8646 41.6837 13.0127 40.9321 11.1609C40.2421 9.42013 39.6999 7.59914 39.1639 5.80902C39.0237 5.05493 38.6856 4.35184 38.1844 3.77198C37.6457 3.22886 37.0042 2.79895 36.2976 2.50746C35.5909 2.21597 34.8333 2.06876 34.0691 2.07445C28.4197 2.07445 22.7704 2.07445 17.1272 2.07445C16.0508 2.05756 14.9887 2.3236 14.0469 2.84606C13.5726 3.07723 13.1488 3.40028 12.7998 3.79654C12.4509 4.19279 12.1837 4.6544 12.0139 5.1547C11.4779 6.92013 10.9666 8.69174 10.3505 10.4325C9.91924 11.667 9.32781 12.7967 8.79799 13.9695C8.36675 14.9325 7.91086 15.8769 7.47961 16.8399C6.99076 18.1154 6.79085 19.4837 6.89435 20.8461C6.89435 21.3152 6.93131 21.3522 7.39952 21.3522H13.6896C14.3426 21.3522 14.3426 21.3522 14.127 20.7349C13.745 19.6177 13.2891 19.2905 12.1248 19.2843C11.675 19.2843 11.2191 19.2843 10.7756 19.2843C10.506 19.2778 10.25 19.1642 10.064 18.9686C9.87799 18.7729 9.77717 18.5112 9.7837 18.2411C9.79024 17.971 9.9036 17.7145 10.0989 17.5282C10.2941 17.3418 10.5553 17.2407 10.8249 17.2473C11.4409 17.2473 12.0139 17.2473 12.6053 17.2473C13.0937 17.2329 13.5783 17.3377 14.0173 17.5528C14.4563 17.7679 14.8364 18.0868 15.125 18.4819C15.933 19.5587 16.4201 20.8428 16.5296 22.1856C16.622 22.9819 16.2154 23.4201 15.4084 23.4201C14.9094 23.4201 14.4104 23.4201 13.9175 23.4201H7.38104C7.10997 23.4201 6.88819 23.4201 6.88819 23.8028C6.88819 25.3646 6.88819 26.9325 6.88819 28.4942C6.87311 28.6793 6.91923 28.8642 7.01943 29.0203C7.11964 29.1765 7.26836 29.2953 7.44265 29.3584C7.66371 29.4314 7.85353 29.5774 7.98109 29.7725C8.10866 29.9676 8.16643 30.2002 8.14497 30.4325C8.14497 31.4633 8.14497 32.4942 8.14497 33.5189C8.14497 33.8522 8.26818 34.0004 8.60085 34.0004C10.295 34.0004 11.9831 34.0004 13.6772 34.0004C13.9791 34.0004 14.1085 33.8646 14.1023 33.5683C14.1023 33.0189 14.1023 32.4757 14.1023 31.9325C14.1023 31.5991 13.9853 31.4572 13.6464 31.4695C13.0304 31.4695 12.4143 31.4695 11.8352 31.4695C11.666 31.4639 11.5011 31.415 11.3561 31.3274C11.2111 31.2399 11.0909 31.1166 11.0069 30.9693C10.923 30.8221 10.878 30.6557 10.8763 30.4861C10.8746 30.3165 10.9163 30.1493 10.9974 30.0004C11.102 29.8062 11.2645 29.6496 11.4621 29.5523C11.6598 29.4549 11.8828 29.4217 12.1001 29.4572H38.9606C39.1727 29.4503 39.3836 29.4926 39.5767 29.5806C39.7595 29.693 39.9013 29.8613 39.9812 30.0607C40.0611 30.2601 40.0747 30.48 40.0201 30.6877C39.9655 30.8955 39.8455 31.0802 39.678 31.2143C39.5105 31.3484 39.3043 31.4249 39.09 31.4325C38.4739 31.4325 37.8579 31.4325 37.2418 31.4325C36.9831 31.4325 36.8722 31.5436 36.8722 31.7967C36.8722 32.3646 36.8722 32.9325 36.8722 33.5004C36.8722 33.8275 37.0139 33.9448 37.3219 33.9448H42.3305C42.7618 33.9448 42.8234 33.8831 42.8234 33.451C42.8234 32.4057 42.8234 31.3625 42.8234 30.3214C42.8068 30.1154 42.8581 29.9097 42.9694 29.7358C43.0807 29.5619 43.2458 29.4293 43.4394 29.3584C43.657 29.277 43.8394 29.1221 43.9552 28.9204C44.071 28.7187 44.113 28.4828 44.074 28.2535C44.074 26.7967 44.074 25.3399 44.074 23.8831C44.074 23.3893 44.074 23.3584 43.5503 23.3584H37.2603C36.6935 23.3584 36.1267 23.3584 35.5538 23.3584C35.3911 23.3828 35.225 23.3665 35.0702 23.311C34.9153 23.2555 34.7765 23.1626 34.6662 23.0404C34.5558 22.9182 34.4773 22.7706 34.4376 22.6107C34.398 22.4508 34.3983 22.2836 34.4387 22.1238C34.4706 21.8057 34.5241 21.4902 34.5989 21.1794C34.7865 20.1676 35.2085 19.214 35.831 18.3954C36.1231 18.0117 36.5025 17.7033 36.9376 17.4961C37.3726 17.2889 37.8508 17.1888 38.3322 17.2041C38.9483 17.2041 39.5644 17.2041 40.1435 17.2041C40.3069 17.2022 40.4687 17.2359 40.6179 17.3028C40.8336 17.3936 41.0114 17.5562 41.1214 17.7631C41.2314 17.97 41.2668 18.2086 41.2216 18.4387Z" fill="#AD5A40"/>
</svg>
