<svg width="25" height="38" viewBox="0 0 25 38" fill="none" xmlns="http://www.w3.org/2000/svg">
<path d="M19.7547 10.0416H19.7549C20.9732 10.0402 22.1412 9.55557 23.0027 8.69409C23.8642 7.8326 24.3488 6.66458 24.3502 5.44626V5.4461C24.3502 4.53711 24.0807 3.64852 23.5758 2.8927C23.0708 2.13688 22.353 1.54778 21.5133 1.19989C20.6735 0.852011 19.7494 0.760974 18.8579 0.938295C17.9663 1.11562 17.1474 1.55333 16.5047 2.19608C15.8619 2.83884 15.4242 3.65776 15.2469 4.54928C15.0696 5.44081 15.1606 6.36489 15.5085 7.20468C15.8564 8.04446 16.4455 8.76222 17.2013 9.26719C17.9571 9.77215 18.8457 10.0416 19.7547 10.0416ZM18.0577 2.90599C18.56 2.57044 19.1505 2.39136 19.7546 2.39139C20.5643 2.39253 21.3406 2.71476 21.9132 3.28742C22.4857 3.86009 22.8078 4.63646 22.8088 5.44627C22.8087 6.05031 22.6295 6.64075 22.2939 7.14296C21.9582 7.64523 21.4811 8.03667 20.923 8.2678C20.3648 8.49893 19.7507 8.55936 19.1582 8.44145C18.5657 8.32354 18.0215 8.03258 17.5944 7.60537C17.1673 7.17817 16.8764 6.6339 16.7586 6.04139C16.6408 5.44888 16.7014 4.83475 16.9326 4.27665C17.1638 3.71856 17.5554 3.24156 18.0577 2.90599Z" fill="#AD5A40" stroke="#AD5A40" stroke-width="0.3"/>
<path d="M1.18185 15.3754L1.18208 15.3755C2.18468 13.6411 3.32066 11.9873 4.57973 10.429C5.98484 8.52628 7.83781 6.99968 9.97433 5.98466L9.9837 5.9802L9.98384 5.98053C10.9962 5.58274 12.1246 5.60008 13.1242 6.02879C14.1239 6.4575 14.9142 7.26301 15.3238 8.27063L15.3239 8.27089L18.0471 15.0049L22.7397 16.3263L1.18185 15.3754ZM1.18185 15.3754L1.17786 15.3833C0.427983 16.8785 0.178579 18.5751 0.466316 20.2227L1.31381 34.1769C1.31381 34.1769 1.31381 34.1769 1.31381 34.1769C1.3624 34.9797 1.71488 35.7338 2.29959 36.286C2.88431 36.8383 3.65738 37.1471 4.46164 37.1497L4.46263 37.1497M1.18185 15.3754L4.46263 37.1497M4.46263 37.1497C5.26688 37.1471 6.03995 36.8383 6.62468 36.2861C7.2094 35.7339 7.56189 34.9797 7.61049 34.1769L7.46076 34.1679L7.61049 34.1769L8.51814 19.1695C9.51437 17.4766 10.694 15.8989 12.0355 14.4647L13.5631 18.2405L13.5633 18.2409M4.46263 37.1497L13.5633 18.2409M22.1432 20.6522L22.1416 20.6522C22.0651 20.6512 21.9888 20.6449 21.9133 20.6333L15.7309 19.8923L22.1432 20.6522ZM22.1432 20.6522C22.6761 20.653 23.1912 20.4607 23.5932 20.1109C23.9951 19.761 24.2567 19.2774 24.3295 18.7495C24.4023 18.2217 24.2813 17.6853 23.989 17.2398C23.6968 16.7943 23.253 16.4698 22.74 16.3263L22.1432 20.6522ZM13.5633 18.2409C13.744 18.6847 14.0404 19.072 14.4216 19.3625C14.8028 19.6529 15.2548 19.8358 15.7307 19.8922L13.5633 18.2409ZM11.4946 7.23331H11.4946C11.1733 7.23325 10.855 7.29375 10.5562 7.41163C8.66336 8.33281 7.02346 9.7013 5.77836 11.3987L5.77421 11.4044L5.77408 11.4043C4.56582 12.8996 3.47581 14.4866 2.51393 16.1511C1.92737 17.3744 1.74746 18.7533 2.0006 20.0863L2.00238 20.0957L2.00295 20.1052L2.84732 34.0102L2.84762 34.015L2.84754 34.0151C2.85953 34.4379 3.03442 34.8397 3.33568 35.1366C3.63663 35.4332 4.04044 35.6022 4.46291 35.6083C4.87435 35.6062 5.26958 35.4476 5.56841 35.1647C5.86758 34.8815 6.04767 34.495 6.07204 34.0838L6.07205 34.0836L6.99097 18.8895C6.99097 18.8895 6.99097 18.8895 6.99097 18.8895L6.99098 18.8893L7.14071 18.8983L11.4946 7.23331ZM11.4946 7.23331H11.4947H11.4947M11.4946 7.23331H11.4947M11.4947 7.23331C12.01 7.23326 12.5137 7.38692 12.9412 7.67466C13.3687 7.96234 13.7007 8.37098 13.8947 8.84833L11.4947 7.23331ZM11.8792 12.5447C9.96525 14.2672 8.34929 16.2943 7.09677 18.544L13.0539 12.8727C13.0104 12.7648 12.943 12.6681 12.8567 12.59C12.7704 12.512 12.6677 12.4546 12.5561 12.422C12.4442 12.3886 12.3261 12.3814 12.211 12.4008C12.0957 12.4203 11.9864 12.4661 11.8917 12.5347L11.8852 12.5394L11.8792 12.5447ZM14.9915 17.6619L13.054 12.873L17.0599 16.1065C17.1304 16.1697 17.2145 16.216 17.3057 16.2416L17.265 16.386L17.2651 16.386L22.3215 17.8104L22.3384 17.8152C22.4709 17.8557 22.5875 17.9367 22.6719 18.0469C22.7596 18.1616 22.8076 18.3017 22.8087 18.446L22.8087 18.4467C22.8098 18.5405 22.7907 18.6334 22.7525 18.7191C22.7144 18.8048 22.6582 18.8812 22.5878 18.9431C22.5174 19.0051 22.4345 19.0511 22.3446 19.078C22.2548 19.1049 22.1602 19.112 22.0673 19.0989L22.0643 19.0985L15.9149 18.3615L15.9143 18.3614C15.712 18.338 15.5197 18.2607 15.3573 18.1377C15.1951 18.0147 15.0688 17.8505 14.9916 17.6621C14.9915 17.6621 14.9915 17.662 14.9915 17.6619ZM13.8948 8.84855L16.7598 15.9327L13.8948 8.84855Z" fill="#AD5A40" stroke="#AD5A40" stroke-width="0.3"/>
<path d="M23.5794 37.1502C23.6806 37.1503 23.7809 37.1304 23.8744 37.0917L23.817 36.9531L24.2001 36.3795H24.3501V36.3795V22.7503C24.3501 22.3197 24.2653 21.8933 24.1005 21.4954C23.9357 21.0976 23.6942 20.7361 23.3897 20.4316C23.0851 20.1271 22.7236 19.8855 22.3258 19.7207C21.9279 19.5559 21.5015 19.4711 21.0709 19.4711C20.6402 19.4711 20.2138 19.5559 19.816 19.7207C19.4181 19.8855 19.0566 20.1271 18.7521 20.4316C18.4476 20.7361 18.2061 21.0976 18.0413 21.4954C17.8765 21.8933 17.7917 22.3197 17.7917 22.7503C17.7917 22.9547 17.8728 23.1508 18.0174 23.2953C18.1619 23.4398 18.3579 23.521 18.5623 23.521C18.7667 23.521 18.9628 23.4398 19.1073 23.2953C19.2518 23.1508 19.333 22.9547 19.333 22.7503C19.333 22.2894 19.5161 21.8474 19.842 21.5215C20.168 21.1956 20.61 21.0125 21.0709 21.0125C21.5318 21.0125 21.9738 21.1956 22.2997 21.5215C22.6256 21.8474 22.8087 22.2894 22.8087 22.7503V36.3795M23.5794 37.1502C23.4782 37.1503 23.378 37.1304 23.2845 37.0917C23.1909 37.053 23.1059 36.9962 23.0344 36.9246C22.9628 36.853 22.906 36.768 22.8673 36.6745C22.8286 36.581 22.8087 36.4807 22.8087 36.3795M23.5794 37.1502C23.5794 37.1502 23.5794 37.1502 23.5793 37.1502L23.5794 37.0002L23.5795 37.1502C23.5795 37.1502 23.5795 37.1502 23.5794 37.1502ZM22.8087 36.3795L22.9587 36.3795H22.8087V36.3795Z" fill="#AD5A40" stroke="#AD5A40" stroke-width="0.3"/>
</svg>
