<svg width="37" height="38" viewBox="0 0 37 38" fill="none" xmlns="http://www.w3.org/2000/svg">
<path d="M17.4031 8.13583L17.4028 8.13583L17.382 8.13583C17.382 8.13583 17.3819 8.13583 17.3819 8.13583H17.3817V8.03583C16.4497 8.03862 15.5547 7.67105 14.8937 7.01397C14.2327 6.3569 13.8597 5.46414 13.8569 4.53211C13.8542 3.60007 14.2217 2.7051 14.8788 2.04408C15.5359 1.38306 16.4286 1.01013 17.3607 1.00734L17.4031 8.13583ZM17.4031 8.13583C18.3616 8.13296 19.2798 7.74942 19.9555 7.06959C20.6313 6.38976 21.0094 5.46932 21.0065 4.51076C21.0036 3.55221 20.6201 2.63405 19.9402 1.95828C19.2604 1.28254 18.3401 0.90451 17.3816 0.90734M17.4031 8.13583L17.3816 0.90734M17.3816 0.90734H17.3817V1.00734L17.3814 0.90734C17.3815 0.90734 17.3815 0.90734 17.3816 0.90734ZM17.3817 2.25947L17.3821 2.25947C17.982 2.25746 18.5582 2.49387 18.9838 2.91668C19.4095 3.33949 19.6497 3.91408 19.6517 4.51403C19.6537 5.11398 19.4173 5.69016 18.9945 6.1158C18.5718 6.54135 17.9974 6.78159 17.3976 6.78371C16.7982 6.78076 16.2229 6.54731 15.7909 6.13175C15.4732 5.81708 15.2558 5.41536 15.1661 4.97727C15.0764 4.53895 15.1186 4.08388 15.2873 3.66951C15.456 3.25514 15.7438 2.90006 16.1141 2.64909C16.4844 2.3982 16.9208 2.26262 17.368 2.25947L17.3817 2.25947Z" fill="#AD5A40" stroke="#AD5A40" stroke-width="0.2"/>
<mask id="path-2-outside-1_250_4502" maskUnits="userSpaceOnUse" x="5.02563" y="7.61426" width="24" height="30" fill="black">
<rect fill="white" x="5.02563" y="7.61426" width="24" height="30"/>
<path d="M27.9578 33.8858L25.6903 25.9612C25.6879 25.9528 25.685 25.9446 25.6816 25.9366C25.6436 25.8164 25.5967 25.6992 25.5413 25.5859C25.5255 25.5491 25.5097 25.5158 25.4922 25.4824C25.4425 25.3965 25.388 25.3134 25.3291 25.2334C25.2911 25.1775 25.2502 25.1236 25.2063 25.0721C25.1748 25.0353 25.1415 25.0002 25.0801 24.9406C25.0154 24.8735 24.9463 24.8108 24.8732 24.7529C24.8539 24.7354 24.8241 24.7091 24.8048 24.6951L20.9819 21.8893L20.9573 17.3053L24.8451 20.0568C25.3046 20.3923 25.8786 20.5316 26.4408 20.444C27.003 20.3563 27.5073 20.0489 27.8429 19.5894C28.1785 19.1299 28.3177 18.5559 28.2301 17.9937C28.1425 17.4315 27.8351 16.9272 27.3756 16.5916L20.9205 11.9586C20.8859 11.0544 20.5002 10.1993 19.8453 9.57495C19.1905 8.95056 18.318 8.60599 17.4133 8.61441C16.9413 8.61725 16.4751 8.71754 16.0437 8.90902C15.8698 8.97337 15.7052 9.06065 15.5544 9.16855L15.5229 9.1931C15.4825 9.21941 15.4422 9.24922 15.3791 9.29657L9.72542 13.393C9.55822 13.5158 9.41044 13.663 9.28701 13.8297C9.25019 13.877 9.21336 13.9261 9.17303 13.9875L9.1134 14.0874C9.07178 14.1519 9.03485 14.2193 9.00293 14.2891L6.21292 20.5372C5.98038 21.0567 5.96373 21.6474 6.16664 22.1791C6.36955 22.7109 6.7754 23.1403 7.2949 23.3728C7.81441 23.6054 8.40501 23.622 8.93679 23.4191C9.46857 23.2162 9.89796 22.8104 10.1305 22.2909L12.6978 16.5425L13.9569 15.6289L13.9937 22.4504L9.1362 33.5596C8.87252 34.1504 8.85364 34.8217 9.0837 35.4264C9.31376 36.0311 9.77401 36.5201 10.3637 36.7863C10.6751 36.9269 11.0129 36.9992 11.3545 36.9984C11.8299 37.0013 12.2958 36.8662 12.6958 36.6094C13.0958 36.3525 13.4127 35.9851 13.6079 35.5517L15.5018 31.2133L15.109 36.3829C15.1032 36.462 15.1138 36.5414 15.1401 36.6162C15.1664 36.691 15.2078 36.7596 15.2618 36.8177C15.3157 36.8758 15.3811 36.9221 15.4538 36.9538C15.5265 36.9855 15.6049 37.0019 15.6842 37.0019H20.6645C20.7412 37.0017 20.8171 36.9862 20.8878 36.9564C20.9585 36.9266 21.0226 36.883 21.0763 36.8281C21.13 36.7733 21.1722 36.7083 21.2006 36.637C21.2289 36.5657 21.2428 36.4895 21.2414 36.4127L21.045 28.6495C21.0413 28.4994 20.9791 28.3566 20.8717 28.2518C20.7642 28.1469 20.62 28.0883 20.4698 28.0883H16.8574L17.8973 25.7034L21.2291 28.1374L23.2528 35.2308C23.4007 35.7405 23.7097 36.1886 24.1337 36.508C24.5576 36.8273 25.0737 37.0006 25.6044 37.0019C25.8315 37.0018 26.0575 36.9706 26.276 36.909C26.8977 36.728 27.4226 36.3087 27.7366 35.7425C28.0506 35.1763 28.1282 34.5089 27.9525 33.8858H27.9578ZM20.0665 35.8498H16.298L16.8013 29.2475H19.9069L20.0665 35.8498ZM26.9056 18.9187C26.8275 19.0249 26.7291 19.1146 26.6161 19.1826C26.5031 19.2506 26.3778 19.2955 26.2473 19.3147C26.1169 19.3339 25.9839 19.3271 25.8561 19.2947C25.7283 19.2622 25.6082 19.2047 25.5027 19.1256L20.9433 15.9007L20.9345 13.393L26.7004 17.5351C26.9106 17.6914 27.0508 17.9242 27.0908 18.183C27.1308 18.4419 27.0674 18.7061 26.9144 18.9187H26.9056ZM12.5558 35.0852C12.4158 35.3979 12.1575 35.6422 11.8376 35.7645C11.5177 35.8868 11.1623 35.8771 10.8495 35.7376C10.5369 35.5966 10.2929 35.3376 10.171 35.0171C10.0491 34.6966 10.0591 34.3409 10.1989 34.0278L14.8197 23.4553L15.3458 23.8446L16.9468 25.0142L12.5558 35.0852ZM25.9727 35.8007C25.6432 35.8939 25.2902 35.8528 24.9909 35.6866C24.6915 35.5203 24.4702 35.2423 24.3751 34.9134L22.2936 27.6376C22.2588 27.5142 22.1835 27.4061 22.0796 27.3308L18.0077 24.3496L15.1546 22.2663L15.1143 14.4925C15.1139 14.3866 15.0843 14.2828 15.0286 14.1927C14.973 14.1025 14.8936 14.0295 14.7991 13.9816C14.7046 13.9337 14.5987 13.9128 14.4931 13.9213C14.3875 13.9298 14.2863 13.9672 14.2006 14.0296L11.9069 15.6902C11.8251 15.7496 11.7604 15.8294 11.7193 15.9217L9.07833 21.8104C9.02514 21.9294 8.94901 22.0368 8.8543 22.1265C8.75959 22.2161 8.64815 22.2862 8.52635 22.3328C8.40455 22.3794 8.27476 22.4015 8.14441 22.3979C8.01406 22.3943 7.88569 22.3651 7.76663 22.3119C7.64757 22.2587 7.54015 22.1826 7.45051 22.0879C7.36088 21.9932 7.29077 21.8817 7.2442 21.7599C7.19762 21.6381 7.1755 21.5083 7.17909 21.378C7.18267 21.2476 7.2119 21.1193 7.26509 21.0002L10.0551 14.7503C10.0657 14.7304 10.0775 14.7111 10.0902 14.6924L10.141 14.6048C10.1551 14.5837 10.1726 14.5644 10.1989 14.5276C10.2562 14.448 10.3247 14.3772 10.4023 14.3172L16.2383 10.1015C16.3165 10.0467 16.4021 10.0036 16.4926 9.97346C16.7857 9.84026 17.1036 9.77035 17.4255 9.76829H17.4396C18.0569 9.77058 18.6483 10.0162 19.0856 10.4519C19.5229 10.8875 19.7708 11.4781 19.7754 12.0953L19.8298 22.1611V22.1944C19.83 22.2848 19.8514 22.3739 19.8922 22.4546C19.933 22.5353 19.9921 22.6053 20.0647 22.6591L24.0981 25.6157L24.1296 25.642C24.1747 25.6778 24.2175 25.7165 24.2576 25.7578C24.2576 25.7578 24.326 25.8262 24.3278 25.8279C24.3295 25.8297 24.3629 25.8753 24.4014 25.9296C24.44 25.984 24.4558 26.005 24.4768 26.0418L24.9942 25.7876L24.5084 26.112C24.537 26.1687 24.5616 26.2273 24.5821 26.2874C24.5854 26.2987 24.5895 26.3099 24.5943 26.3207L26.846 34.1962C26.8935 34.3594 26.9084 34.5305 26.8897 34.6995C26.8711 34.8685 26.8194 35.0322 26.7375 35.1812C26.6555 35.3302 26.5451 35.4617 26.4123 35.568C26.2796 35.6743 26.1272 35.7533 25.9639 35.8007H25.9727Z"/>
</mask>
<path d="M27.9578 33.8858L25.6903 25.9612C25.6879 25.9528 25.685 25.9446 25.6816 25.9366C25.6436 25.8164 25.5967 25.6992 25.5413 25.5859C25.5255 25.5491 25.5097 25.5158 25.4922 25.4824C25.4425 25.3965 25.388 25.3134 25.3291 25.2334C25.2911 25.1775 25.2502 25.1236 25.2063 25.0721C25.1748 25.0353 25.1415 25.0002 25.0801 24.9406C25.0154 24.8735 24.9463 24.8108 24.8732 24.7529C24.8539 24.7354 24.8241 24.7091 24.8048 24.6951L20.9819 21.8893L20.9573 17.3053L24.8451 20.0568C25.3046 20.3923 25.8786 20.5316 26.4408 20.444C27.003 20.3563 27.5073 20.0489 27.8429 19.5894C28.1785 19.1299 28.3177 18.5559 28.2301 17.9937C28.1425 17.4315 27.8351 16.9272 27.3756 16.5916L20.9205 11.9586C20.8859 11.0544 20.5002 10.1993 19.8453 9.57495C19.1905 8.95056 18.318 8.60599 17.4133 8.61441C16.9413 8.61725 16.4751 8.71754 16.0437 8.90902C15.8698 8.97337 15.7052 9.06065 15.5544 9.16855L15.5229 9.1931C15.4825 9.21941 15.4422 9.24922 15.3791 9.29657L9.72542 13.393C9.55822 13.5158 9.41044 13.663 9.28701 13.8297C9.25019 13.877 9.21336 13.9261 9.17303 13.9875L9.1134 14.0874C9.07178 14.1519 9.03485 14.2193 9.00293 14.2891L6.21292 20.5372C5.98038 21.0567 5.96373 21.6474 6.16664 22.1791C6.36955 22.7109 6.7754 23.1403 7.2949 23.3728C7.81441 23.6054 8.40501 23.622 8.93679 23.4191C9.46857 23.2162 9.89796 22.8104 10.1305 22.2909L12.6978 16.5425L13.9569 15.6289L13.9937 22.4504L9.1362 33.5596C8.87252 34.1504 8.85364 34.8217 9.0837 35.4264C9.31376 36.0311 9.77401 36.5201 10.3637 36.7863C10.6751 36.9269 11.0129 36.9992 11.3545 36.9984C11.8299 37.0013 12.2958 36.8662 12.6958 36.6094C13.0958 36.3525 13.4127 35.9851 13.6079 35.5517L15.5018 31.2133L15.109 36.3829C15.1032 36.462 15.1138 36.5414 15.1401 36.6162C15.1664 36.691 15.2078 36.7596 15.2618 36.8177C15.3157 36.8758 15.3811 36.9221 15.4538 36.9538C15.5265 36.9855 15.6049 37.0019 15.6842 37.0019H20.6645C20.7412 37.0017 20.8171 36.9862 20.8878 36.9564C20.9585 36.9266 21.0226 36.883 21.0763 36.8281C21.13 36.7733 21.1722 36.7083 21.2006 36.637C21.2289 36.5657 21.2428 36.4895 21.2414 36.4127L21.045 28.6495C21.0413 28.4994 20.9791 28.3566 20.8717 28.2518C20.7642 28.1469 20.62 28.0883 20.4698 28.0883H16.8574L17.8973 25.7034L21.2291 28.1374L23.2528 35.2308C23.4007 35.7405 23.7097 36.1886 24.1337 36.508C24.5576 36.8273 25.0737 37.0006 25.6044 37.0019C25.8315 37.0018 26.0575 36.9706 26.276 36.909C26.8977 36.728 27.4226 36.3087 27.7366 35.7425C28.0506 35.1763 28.1282 34.5089 27.9525 33.8858H27.9578ZM20.0665 35.8498H16.298L16.8013 29.2475H19.9069L20.0665 35.8498ZM26.9056 18.9187C26.8275 19.0249 26.7291 19.1146 26.6161 19.1826C26.5031 19.2506 26.3778 19.2955 26.2473 19.3147C26.1169 19.3339 25.9839 19.3271 25.8561 19.2947C25.7283 19.2622 25.6082 19.2047 25.5027 19.1256L20.9433 15.9007L20.9345 13.393L26.7004 17.5351C26.9106 17.6914 27.0508 17.9242 27.0908 18.183C27.1308 18.4419 27.0674 18.7061 26.9144 18.9187H26.9056ZM12.5558 35.0852C12.4158 35.3979 12.1575 35.6422 11.8376 35.7645C11.5177 35.8868 11.1623 35.8771 10.8495 35.7376C10.5369 35.5966 10.2929 35.3376 10.171 35.0171C10.0491 34.6966 10.0591 34.3409 10.1989 34.0278L14.8197 23.4553L15.3458 23.8446L16.9468 25.0142L12.5558 35.0852ZM25.9727 35.8007C25.6432 35.8939 25.2902 35.8528 24.9909 35.6866C24.6915 35.5203 24.4702 35.2423 24.3751 34.9134L22.2936 27.6376C22.2588 27.5142 22.1835 27.4061 22.0796 27.3308L18.0077 24.3496L15.1546 22.2663L15.1143 14.4925C15.1139 14.3866 15.0843 14.2828 15.0286 14.1927C14.973 14.1025 14.8936 14.0295 14.7991 13.9816C14.7046 13.9337 14.5987 13.9128 14.4931 13.9213C14.3875 13.9298 14.2863 13.9672 14.2006 14.0296L11.9069 15.6902C11.8251 15.7496 11.7604 15.8294 11.7193 15.9217L9.07833 21.8104C9.02514 21.9294 8.94901 22.0368 8.8543 22.1265C8.75959 22.2161 8.64815 22.2862 8.52635 22.3328C8.40455 22.3794 8.27476 22.4015 8.14441 22.3979C8.01406 22.3943 7.88569 22.3651 7.76663 22.3119C7.64757 22.2587 7.54015 22.1826 7.45051 22.0879C7.36088 21.9932 7.29077 21.8817 7.2442 21.7599C7.19762 21.6381 7.1755 21.5083 7.17909 21.378C7.18267 21.2476 7.2119 21.1193 7.26509 21.0002L10.0551 14.7503C10.0657 14.7304 10.0775 14.7111 10.0902 14.6924L10.141 14.6048C10.1551 14.5837 10.1726 14.5644 10.1989 14.5276C10.2562 14.448 10.3247 14.3772 10.4023 14.3172L16.2383 10.1015C16.3165 10.0467 16.4021 10.0036 16.4926 9.97346C16.7857 9.84026 17.1036 9.77035 17.4255 9.76829H17.4396C18.0569 9.77058 18.6483 10.0162 19.0856 10.4519C19.5229 10.8875 19.7708 11.4781 19.7754 12.0953L19.8298 22.1611V22.1944C19.83 22.2848 19.8514 22.3739 19.8922 22.4546C19.933 22.5353 19.9921 22.6053 20.0647 22.6591L24.0981 25.6157L24.1296 25.642C24.1747 25.6778 24.2175 25.7165 24.2576 25.7578C24.2576 25.7578 24.326 25.8262 24.3278 25.8279C24.3295 25.8297 24.3629 25.8753 24.4014 25.9296C24.44 25.984 24.4558 26.005 24.4768 26.0418L24.9942 25.7876L24.5084 26.112C24.537 26.1687 24.5616 26.2273 24.5821 26.2874C24.5854 26.2987 24.5895 26.3099 24.5943 26.3207L26.846 34.1962C26.8935 34.3594 26.9084 34.5305 26.8897 34.6995C26.8711 34.8685 26.8194 35.0322 26.7375 35.1812C26.6555 35.3302 26.5451 35.4617 26.4123 35.568C26.2796 35.6743 26.1272 35.7533 25.9639 35.8007H25.9727Z" fill="#AD5A40"/>
<path d="M27.9578 33.8858L25.6903 25.9612C25.6879 25.9528 25.685 25.9446 25.6816 25.9366C25.6436 25.8164 25.5967 25.6992 25.5413 25.5859C25.5255 25.5491 25.5097 25.5158 25.4922 25.4824C25.4425 25.3965 25.388 25.3134 25.3291 25.2334C25.2911 25.1775 25.2502 25.1236 25.2063 25.0721C25.1748 25.0353 25.1415 25.0002 25.0801 24.9406C25.0154 24.8735 24.9463 24.8108 24.8732 24.7529C24.8539 24.7354 24.8241 24.7091 24.8048 24.6951L20.9819 21.8893L20.9573 17.3053L24.8451 20.0568C25.3046 20.3923 25.8786 20.5316 26.4408 20.444C27.003 20.3563 27.5073 20.0489 27.8429 19.5894C28.1785 19.1299 28.3177 18.5559 28.2301 17.9937C28.1425 17.4315 27.8351 16.9272 27.3756 16.5916L20.9205 11.9586C20.8859 11.0544 20.5002 10.1993 19.8453 9.57495C19.1905 8.95056 18.318 8.60599 17.4133 8.61441C16.9413 8.61725 16.4751 8.71754 16.0437 8.90902C15.8698 8.97337 15.7052 9.06065 15.5544 9.16855L15.5229 9.1931C15.4825 9.21941 15.4422 9.24922 15.3791 9.29657L9.72542 13.393C9.55822 13.5158 9.41044 13.663 9.28701 13.8297C9.25019 13.877 9.21336 13.9261 9.17303 13.9875L9.1134 14.0874C9.07178 14.1519 9.03485 14.2193 9.00293 14.2891L6.21292 20.5372C5.98038 21.0567 5.96373 21.6474 6.16664 22.1791C6.36955 22.7109 6.7754 23.1403 7.2949 23.3728C7.81441 23.6054 8.40501 23.622 8.93679 23.4191C9.46857 23.2162 9.89796 22.8104 10.1305 22.2909L12.6978 16.5425L13.9569 15.6289L13.9937 22.4504L9.1362 33.5596C8.87252 34.1504 8.85364 34.8217 9.0837 35.4264C9.31376 36.0311 9.77401 36.5201 10.3637 36.7863C10.6751 36.9269 11.0129 36.9992 11.3545 36.9984C11.8299 37.0013 12.2958 36.8662 12.6958 36.6094C13.0958 36.3525 13.4127 35.9851 13.6079 35.5517L15.5018 31.2133L15.109 36.3829C15.1032 36.462 15.1138 36.5414 15.1401 36.6162C15.1664 36.691 15.2078 36.7596 15.2618 36.8177C15.3157 36.8758 15.3811 36.9221 15.4538 36.9538C15.5265 36.9855 15.6049 37.0019 15.6842 37.0019H20.6645C20.7412 37.0017 20.8171 36.9862 20.8878 36.9564C20.9585 36.9266 21.0226 36.883 21.0763 36.8281C21.13 36.7733 21.1722 36.7083 21.2006 36.637C21.2289 36.5657 21.2428 36.4895 21.2414 36.4127L21.045 28.6495C21.0413 28.4994 20.9791 28.3566 20.8717 28.2518C20.7642 28.1469 20.62 28.0883 20.4698 28.0883H16.8574L17.8973 25.7034L21.2291 28.1374L23.2528 35.2308C23.4007 35.7405 23.7097 36.1886 24.1337 36.508C24.5576 36.8273 25.0737 37.0006 25.6044 37.0019C25.8315 37.0018 26.0575 36.9706 26.276 36.909C26.8977 36.728 27.4226 36.3087 27.7366 35.7425C28.0506 35.1763 28.1282 34.5089 27.9525 33.8858H27.9578ZM20.0665 35.8498H16.298L16.8013 29.2475H19.9069L20.0665 35.8498ZM26.9056 18.9187C26.8275 19.0249 26.7291 19.1146 26.6161 19.1826C26.5031 19.2506 26.3778 19.2955 26.2473 19.3147C26.1169 19.3339 25.9839 19.3271 25.8561 19.2947C25.7283 19.2622 25.6082 19.2047 25.5027 19.1256L20.9433 15.9007L20.9345 13.393L26.7004 17.5351C26.9106 17.6914 27.0508 17.9242 27.0908 18.183C27.1308 18.4419 27.0674 18.7061 26.9144 18.9187H26.9056ZM12.5558 35.0852C12.4158 35.3979 12.1575 35.6422 11.8376 35.7645C11.5177 35.8868 11.1623 35.8771 10.8495 35.7376C10.5369 35.5966 10.2929 35.3376 10.171 35.0171C10.0491 34.6966 10.0591 34.3409 10.1989 34.0278L14.8197 23.4553L15.3458 23.8446L16.9468 25.0142L12.5558 35.0852ZM25.9727 35.8007C25.6432 35.8939 25.2902 35.8528 24.9909 35.6866C24.6915 35.5203 24.4702 35.2423 24.3751 34.9134L22.2936 27.6376C22.2588 27.5142 22.1835 27.4061 22.0796 27.3308L18.0077 24.3496L15.1546 22.2663L15.1143 14.4925C15.1139 14.3866 15.0843 14.2828 15.0286 14.1927C14.973 14.1025 14.8936 14.0295 14.7991 13.9816C14.7046 13.9337 14.5987 13.9128 14.4931 13.9213C14.3875 13.9298 14.2863 13.9672 14.2006 14.0296L11.9069 15.6902C11.8251 15.7496 11.7604 15.8294 11.7193 15.9217L9.07833 21.8104C9.02514 21.9294 8.94901 22.0368 8.8543 22.1265C8.75959 22.2161 8.64815 22.2862 8.52635 22.3328C8.40455 22.3794 8.27476 22.4015 8.14441 22.3979C8.01406 22.3943 7.88569 22.3651 7.76663 22.3119C7.64757 22.2587 7.54015 22.1826 7.45051 22.0879C7.36088 21.9932 7.29077 21.8817 7.2442 21.7599C7.19762 21.6381 7.1755 21.5083 7.17909 21.378C7.18267 21.2476 7.2119 21.1193 7.26509 21.0002L10.0551 14.7503C10.0657 14.7304 10.0775 14.7111 10.0902 14.6924L10.141 14.6048C10.1551 14.5837 10.1726 14.5644 10.1989 14.5276C10.2562 14.448 10.3247 14.3772 10.4023 14.3172L16.2383 10.1015C16.3165 10.0467 16.4021 10.0036 16.4926 9.97346C16.7857 9.84026 17.1036 9.77035 17.4255 9.76829H17.4396C18.0569 9.77058 18.6483 10.0162 19.0856 10.4519C19.5229 10.8875 19.7708 11.4781 19.7754 12.0953L19.8298 22.1611V22.1944C19.83 22.2848 19.8514 22.3739 19.8922 22.4546C19.933 22.5353 19.9921 22.6053 20.0647 22.6591L24.0981 25.6157L24.1296 25.642C24.1747 25.6778 24.2175 25.7165 24.2576 25.7578C24.2576 25.7578 24.326 25.8262 24.3278 25.8279C24.3295 25.8297 24.3629 25.8753 24.4014 25.9296C24.44 25.984 24.4558 26.005 24.4768 26.0418L24.9942 25.7876L24.5084 26.112C24.537 26.1687 24.5616 26.2273 24.5821 26.2874C24.5854 26.2987 24.5895 26.3099 24.5943 26.3207L26.846 34.1962C26.8935 34.3594 26.9084 34.5305 26.8897 34.6995C26.8711 34.8685 26.8194 35.0322 26.7375 35.1812C26.6555 35.3302 26.5451 35.4617 26.4123 35.568C26.2796 35.6743 26.1272 35.7533 25.9639 35.8007H25.9727Z" stroke="#AD5A40" stroke-width="0.4" mask="url(#path-2-outside-1_250_4502)"/>
<path d="M3.96308 27.9947V27.9948H8.17127H8.17176V28.0948L3.96308 27.9947ZM3.96308 27.9947L3.96033 27.9948M3.96308 27.9947L3.96033 27.9948M3.96033 27.9948C3.82476 27.9985 3.69344 28.0429 3.58338 28.1221C3.47343 28.2013 3.38976 28.3116 3.3432 28.4388C3.34316 28.439 3.34311 28.4391 3.34306 28.4392M3.96033 27.9948L3.34306 28.4392M6.06751 37.1014H6.06742L1.07688 37.1014L1.07663 37.1014M6.06751 37.1014L0.536512 36.2245C0.503893 36.3116 0.492896 36.4054 0.504463 36.4977C0.516031 36.59 0.549817 36.6781 0.602926 36.7545C0.656034 36.8309 0.72688 36.8933 0.809385 36.9363C0.89189 36.9793 0.983592 37.0016 1.07663 37.0014V37.1014M6.06751 37.1014C6.21575 37.1012 6.35985 37.0525 6.47768 36.9625C6.59551 36.8726 6.68055 36.7464 6.71975 36.6034L6.71982 36.6032M6.06751 37.1014L6.71982 36.6032M1.07663 37.1014C0.967504 37.1016 0.859949 37.0754 0.763173 37.025C0.666324 36.9745 0.583162 36.9013 0.52082 36.8116C0.458478 36.722 0.418818 36.6185 0.405239 36.5101C0.391662 36.4018 0.404569 36.2917 0.442855 36.1895C0.442857 36.1895 0.442859 36.1895 0.44286 36.1895L3.34306 28.4392M1.07663 37.1014L3.34306 28.4392M6.71982 36.6032L8.82563 28.8515M6.71982 36.6032L8.82563 28.8515M8.82563 28.8515C8.82568 28.8513 8.82572 28.8512 8.82576 28.851L8.82563 28.8515ZM7.28852 29.3469L5.54212 35.7492H2.05018L4.44107 29.3469H7.28852Z" fill="#AD5A40" stroke="#AD5A40" stroke-width="0.2"/>
<path d="M35.8932 36.1939L35.8931 36.1939L35.8943 36.1975C35.9321 36.2993 35.9448 36.4087 35.9313 36.5165C35.9177 36.6248 35.878 36.7283 35.8157 36.8179C35.7533 36.9076 35.6702 36.9808 35.5733 37.0313C35.4766 37.0817 35.369 37.1079 35.2599 37.1077C35.2598 37.1077 35.2597 37.1077 35.2596 37.1077M35.8932 36.1939L35.2599 37.0077L35.2596 37.1077M35.8932 36.1939L35.8919 36.1905L32.9914 28.4396L32.9913 28.4393C32.9428 28.3105 32.8561 28.1996 32.7429 28.1213C32.6297 28.043 32.4953 28.001 32.3576 28.0011L35.8932 36.1939ZM35.2596 37.1077L30.2779 37.1077H30.2778C30.1295 37.1076 29.9854 37.0588 29.8676 36.9688C29.7498 36.8789 29.6647 36.7527 29.6255 36.6098L29.6255 36.6096L27.5108 28.8558M35.2596 37.1077L27.5108 28.8558M27.5108 28.8558L27.6071 28.8288L27.5106 28.8551L27.5107 28.8554C27.4827 28.7551 27.4784 28.6497 27.498 28.5474C27.5177 28.445 27.5609 28.3486 27.6242 28.2657C27.6875 28.1829 27.7692 28.1158 27.8628 28.0699C27.9563 28.024 28.0591 28.0005 28.1633 28.0011M27.5108 28.8558L32.3576 28.1011L32.3576 28.0011L28.1633 28.0011M28.1633 28.0011C28.1634 28.0011 28.1635 28.0011 28.1636 28.0011L28.163 28.1011V28.0011H28.1633ZM34.2811 35.7503H30.7891L29.0427 29.348H31.8902L34.2811 35.7503Z" fill="#AD5A40" stroke="#AD5A40" stroke-width="0.2"/>
</svg>
