<svg width="36" height="38" viewBox="0 0 36 38" fill="none" xmlns="http://www.w3.org/2000/svg">
<path d="M9.68936 30.9533H8.16939L6.50283 33.252L6.49585 33.2616L6.48745 33.27C6.35968 33.3978 6.14616 33.55 5.90926 33.55H1.06991C0.833007 33.55 0.619485 33.3978 0.491717 33.27L0.491715 33.27C0.397846 33.1761 0.361195 33.0474 0.352322 32.932C0.343276 32.8144 0.361214 32.6911 0.396463 32.5854L0.39873 32.5785L0.39889 32.5786L10.8442 5.60954C11.1028 4.90061 11.8088 4.39098 12.6371 4.39098H13.6888L13.9052 2.98431C13.9052 2.98423 13.9052 2.98415 13.9052 2.98407C14.0938 1.72757 15.1626 0.85 16.4142 0.85H27.9814C29.2329 0.85 30.3017 1.72753 30.4903 2.98399L9.68936 30.9533ZM9.68936 30.9533L8.88876 36.3287L8.88713 36.3397V36.3508V36.357C8.88712 36.4412 8.8871 36.5413 8.9043 36.6358C8.92248 36.7358 8.96166 36.8416 9.04909 36.929C9.20162 37.0815 9.42047 37.15 9.62729 37.15H14.4666C14.7377 37.15 15.0528 37.0142 15.1399 36.6952L16.0993 34.4943H28.3553L29.3193 36.7058L29.3191 36.7059L29.3226 36.713C29.3905 36.8488 29.48 36.9597 29.5949 37.0363C29.7107 37.1135 29.8437 37.15 29.9879 37.15H34.8273C35.0341 37.15 35.253 37.0815 35.4055 36.929C35.555 36.7795 35.6362 36.5503 35.5639 36.3164L30.4904 2.98431L9.68936 30.9533ZM7.21958 29.753L7.21118 29.7614L7.20421 29.771L5.53765 32.0697H2.17449L12.2432 6.19548C12.347 5.99071 12.482 5.87131 12.6961 5.87131H13.5247L9.91162 29.473H7.79778C7.56087 29.473 7.34735 29.6252 7.21958 29.753ZM29.014 3.2097L33.9446 35.6697H30.4403L29.4763 33.4581L29.4765 33.458L29.4729 33.451C29.405 33.3151 29.3155 33.2042 29.2007 33.1277C29.0848 33.0504 28.9519 33.0139 28.8076 33.0139H15.5879C15.3169 33.0139 15.0018 33.1498 14.9147 33.4687L13.9553 35.6697H10.451L15.3816 3.20968C15.4878 2.68583 15.9022 2.33033 16.4142 2.33033H27.9814C28.4934 2.33033 28.9077 2.68584 29.014 3.2097Z" fill="#AD5A40" stroke="#AD5A40" stroke-width="0.3"/>
<path d="M26.73 8.12921L26.7302 8.12936L26.7354 8.12349C27.29 7.50728 27.6028 6.70146 27.5409 5.88889L27.4821 4.773C27.4807 4.57515 27.3814 4.40504 27.246 4.28766C27.11 4.16981 26.9281 4.09609 26.742 4.09609H17.6535C17.4673 4.09609 17.2855 4.16981 17.1495 4.28766C17.014 4.40504 16.9147 4.57515 16.9133 4.77301L16.8546 5.88888C16.793 6.6973 17.1024 7.56617 17.6654 8.12921C18.2216 8.6854 19.0259 9.05839 19.8371 9.05839H24.5584C25.3695 9.05839 26.1738 8.6854 26.73 8.12921ZM26.1208 5.91512L26.1207 5.91512L26.121 5.91716C26.1741 6.34164 26.0142 6.76221 25.7017 7.02266L25.6912 7.03139L25.6825 7.04187C25.422 7.3544 24.9966 7.51904 24.5584 7.51904H19.8371C19.4094 7.51904 19.0353 7.36125 18.7086 7.03663C18.4366 6.70824 18.2776 6.33258 18.2756 5.90669L18.3189 5.51741H26.0766L26.1208 5.91512Z" fill="#AD5A40" stroke="#AD5A40" stroke-width="0.3"/>
<path d="M21.5363 13.4371L21.5362 13.437L21.5332 13.4429L14.1007 27.895C14.0214 28.0185 14.0059 28.1554 14.0145 28.2763C14.0232 28.3988 14.0577 28.5165 14.0882 28.6081L14.0945 28.6272L14.1057 28.6439C14.2468 28.8555 14.4674 29.0058 14.7616 29.0058H29.6928C29.8117 29.0058 29.9394 28.9671 30.0516 28.9067C30.1645 28.8459 30.2735 28.7568 30.3487 28.6439C30.4988 28.4189 30.5004 28.1212 30.3536 27.8946L22.8644 13.447C22.7457 13.1766 22.4772 13.0517 22.2198 13.0517C21.9606 13.0517 21.6851 13.1768 21.5363 13.4371ZM28.4432 27.4664H15.9522L22.1977 15.3728L28.4432 27.4664Z" fill="#AD5A40" stroke="#AD5A40" stroke-width="0.3"/>
<path d="M21.4577 18.4691V22.6002C21.4577 22.8114 21.5287 22.999 21.6639 23.1342C21.7991 23.2693 21.9867 23.3404 22.1978 23.3404C22.409 23.3404 22.5966 23.2693 22.7318 23.1342C22.867 22.999 22.938 22.8114 22.938 22.6002V18.4691C22.938 18.2579 22.867 18.0703 22.7318 17.9351C22.5966 17.7999 22.409 17.7289 22.1978 17.7289C21.7513 17.7289 21.4577 18.1011 21.4577 18.4691Z" fill="#AD5A40" stroke="#AD5A40" stroke-width="0.3"/>
<path d="M22.1978 23.6894C21.9867 23.6894 21.7991 23.7604 21.6639 23.8956C21.5287 24.0308 21.4577 24.2184 21.4577 24.4295V24.9017C21.4577 25.1128 21.5287 25.3004 21.6639 25.4356C21.7991 25.5708 21.9867 25.6418 22.1978 25.6418C22.409 25.6418 22.5966 25.5708 22.7318 25.4356C22.867 25.3004 22.938 25.1128 22.938 24.9017V24.4295C22.938 24.2184 22.867 24.0308 22.7318 23.8956C22.5966 23.7604 22.409 23.6894 22.1978 23.6894Z" fill="#AD5A40" stroke="#AD5A40" stroke-width="0.3"/>
</svg>
