<svg width="46" height="38" viewBox="0 0 46 38" fill="none" xmlns="http://www.w3.org/2000/svg">
<path d="M8.68572 1L8.90986 0.128358C8.59682 0.0478589 8.26465 0.141411 8.03962 0.37345L8.68572 1ZM1.5 8.40983L0.853908 7.78328C0.631282 8.01285 0.547194 8.34331 0.633017 8.65137L1.5 8.40983ZM4.27768 18.3801L3.4107 18.6217C3.49701 18.9315 3.74208 19.1717 4.05355 19.2518L4.27768 18.3801ZM14.243 20.9425L14.0189 21.8142C14.3319 21.8947 14.664 21.8011 14.889 21.5691L14.243 20.9425ZM21.43 13.5327L22.076 14.1593C22.2987 13.9297 22.3828 13.5991 22.2969 13.291L21.43 13.5327ZM18.6504 3.56241L19.5173 3.32072C19.431 3.01098 19.186 2.77085 18.8745 2.69077L18.6504 3.56241ZM12.7485 15.5816L12.504 14.7154L12.5037 14.7155L12.7485 15.5816ZM6.88753 12.2663L7.75462 12.0252L7.75444 12.0246L6.88753 12.2663ZM10.179 6.36222L9.93409 5.49618L9.93403 5.4962L10.179 6.36222ZM16.0412 9.67878L15.1742 9.9203L15.1742 9.92039L16.0412 9.67878ZM24.5819 16.9941C24.1948 16.6823 23.6283 16.7434 23.3165 17.1305C23.0047 17.5176 23.0658 18.0842 23.4529 18.396L24.5819 16.9941ZM30.5785 22.9792L30.014 23.6801L30.6457 24.1888L31.2172 23.6133L30.5785 22.9792ZM37.4523 16.0571L38.0903 15.4223L37.4517 14.7804L36.8137 15.4229L37.4523 16.0571ZM39.9462 18.564L40.587 17.9321L40.5842 17.9293L39.9462 18.564ZM41.2703 18.5646L40.6318 17.9303L40.6317 17.9305L41.2703 18.5646ZM44.1518 15.6642L44.7903 16.2985L44.7921 16.2967L44.1518 15.6642ZM44.1505 14.3301L44.7908 13.6976L44.7892 13.696L44.1505 14.3301ZM33.2691 3.36952L33.9078 2.73543L33.9049 2.73256L33.2691 3.36952ZM31.9405 3.37081L31.3046 2.73386L31.3018 2.73672L31.9405 3.37081ZM29.0603 6.27191L28.4216 5.63782L28.4206 5.63887L29.0603 6.27191ZM29.0629 7.60343L29.7018 6.96959L29.6987 6.96646L29.0629 7.60343ZM31.551 10.1116L32.1896 10.7458L32.819 10.112L32.1899 9.47782L31.551 10.1116ZM25.6466 14.7804C25.2963 15.1331 25.2983 15.7029 25.651 16.0531C26.0037 16.4034 26.5736 16.4014 26.9238 16.0487L25.6466 14.7804ZM19.3763 22.6606C18.9855 22.3534 18.4197 22.4212 18.1126 22.812C17.8054 23.2028 17.8732 23.7686 18.264 24.0758L19.3763 22.6606ZM24.2562 28.7858C24.647 29.0929 25.2128 29.0251 25.52 28.6344C25.8272 28.2436 25.7594 27.6778 25.3686 27.3706L24.2562 28.7858ZM22.0197 19.999C21.629 19.6917 21.0632 19.7593 20.7559 20.15C20.4486 20.5407 20.5162 21.1066 20.9069 21.4138L22.0197 19.999ZM26.8979 26.1258C27.2886 26.4331 27.8544 26.3654 28.1617 25.9748C28.469 25.5841 28.4014 25.0182 28.0107 24.711L26.8979 26.1258ZM16.7341 25.32C16.3435 25.0127 15.7776 25.0802 15.4703 25.4709C15.163 25.8615 15.2305 26.4274 15.6212 26.7347L16.7341 25.32ZM21.6121 31.4479C22.0028 31.7553 22.5686 31.6877 22.876 31.2971C23.1833 30.9064 23.1158 30.3406 22.7251 30.0333L21.6121 31.4479ZM16.6856 36.9692L16.8757 37.8489L17.1364 37.7926L17.3243 37.6033L16.6856 36.9692ZM19.7907 33.8417L20.4294 34.4758L21.1332 33.7669L20.355 33.1406L19.7907 33.8417ZM13.2238 28.5562L13.7881 27.8551L13.1563 27.3466L12.585 27.9222L13.2238 28.5562ZM10.7728 31.0257L10.134 30.3917L9.95918 30.5679L9.89935 30.8088L10.7728 31.0257ZM12.5736 35.1738L11.935 35.808L11.935 35.8081L12.5736 35.1738ZM8.03962 0.37345L0.853908 7.78328L2.14609 9.03638L9.33181 1.62655L8.03962 0.37345ZM0.633017 8.65137L3.4107 18.6217L5.14467 18.1386L2.36698 8.16829L0.633017 8.65137ZM4.05355 19.2518L14.0189 21.8142L14.4671 20.0709L4.50181 17.5085L4.05355 19.2518ZM14.889 21.5691L22.076 14.1593L20.784 12.9061L13.597 20.3159L14.889 21.5691ZM22.2969 13.291L19.5173 3.32072L17.7835 3.8041L20.5631 13.7744L22.2969 13.291ZM18.8745 2.69077L8.90986 0.128358L8.46157 1.87164L18.4263 4.43405L18.8745 2.69077ZM12.5037 14.7155C10.4602 15.293 8.33067 14.0965 7.75462 12.0252L6.02043 12.5075C6.86141 15.5314 9.98229 17.2985 12.9932 16.4477L12.5037 14.7155ZM7.75444 12.0246C7.17645 9.95217 8.3787 7.80672 10.4239 7.22825L9.93403 5.4962C6.92484 6.34731 5.17901 9.49053 6.02061 12.5081L7.75444 12.0246ZM10.4239 7.22826C12.467 6.65054 14.5974 7.84966 15.1742 9.9203L16.9082 9.43725C16.0667 6.41661 12.9467 4.64432 9.93409 5.49618L10.4239 7.22826ZM15.1742 9.92039C15.7523 11.9948 14.5501 14.1381 12.504 14.7154L12.9929 16.4478C16.0038 15.5982 17.7496 12.4567 16.9082 9.43716L15.1742 9.92039ZM23.4529 18.396L30.014 23.6801L31.1431 22.2782L24.5819 16.9941L23.4529 18.396ZM31.2172 23.6133L38.0909 16.6912L36.8137 15.4229L29.9399 22.345L31.2172 23.6133ZM36.8142 16.6918L39.3081 19.1987L40.5842 17.9293L38.0903 15.4223L36.8142 16.6918ZM39.3053 19.1959C40.0219 19.9226 41.1927 19.9201 41.9089 19.1988L40.6317 17.9305C40.6273 17.9349 40.624 17.9367 40.6211 17.9379C40.6176 17.9393 40.613 17.9403 40.6078 17.9403C40.6026 17.9403 40.5984 17.9393 40.5956 17.9381C40.5934 17.9372 40.5907 17.9358 40.587 17.9321L39.3053 19.1959ZM41.9088 19.1989L44.7903 16.2985L43.5133 15.0299L40.6318 17.9303L41.9088 19.1989ZM44.7921 16.2967C45.5025 15.5774 45.4981 14.4136 44.7908 13.6976L43.5102 14.9625C43.5166 14.969 43.5231 14.9801 43.5231 14.9983C43.5231 15.0164 43.5168 15.0263 43.5115 15.0317L44.7921 16.2967ZM44.7892 13.696L33.9078 2.73543L32.6304 4.0036L43.5118 14.9642L44.7892 13.696ZM33.9049 2.73256C33.1874 2.01631 32.0233 2.01645 31.3046 2.73386L32.5763 4.00776C32.5815 4.00255 32.5858 4.00011 32.5896 3.99858C32.594 3.99681 32.5995 3.99559 32.6058 3.99559C32.6121 3.99558 32.6175 3.9968 32.6216 3.99846C32.6251 3.99987 32.6288 4.00201 32.6333 4.00648L33.9049 2.73256ZM31.3018 2.73672L28.4216 5.63782L29.699 6.90599L32.5792 4.0049L31.3018 2.73672ZM28.4206 5.63887C27.7115 6.35541 27.7091 7.52373 28.427 8.2404L29.6987 6.96646C29.6945 6.96227 29.6887 6.95398 29.6887 6.9372C29.6887 6.92018 29.6947 6.91036 29.7 6.90494L28.4206 5.63887ZM28.4239 8.23726L30.912 10.7455L32.1899 9.47782L29.7018 6.9696L28.4239 8.23726ZM30.9124 9.47749L25.6466 14.7804L26.9238 16.0487L32.1896 10.7458L30.9124 9.47749ZM18.264 24.0758L24.2562 28.7858L25.3686 27.3706L19.3763 22.6606L18.264 24.0758ZM20.9069 21.4138L26.8979 26.1258L28.0107 24.711L22.0197 19.999L20.9069 21.4138ZM15.6212 26.7347L21.6121 31.4479L22.7251 30.0333L16.7341 25.32L15.6212 26.7347ZM17.3243 37.6033L20.4294 34.4758L19.152 33.2076L16.047 36.3351L17.3243 37.6033ZM20.355 33.1406L13.7881 27.8551L12.6595 29.2573L19.2264 34.5428L20.355 33.1406ZM12.585 27.9222L10.134 30.3917L11.4116 31.6597L13.8626 29.1902L12.585 27.9222ZM10.7728 31.0257C9.89935 30.8088 9.8992 30.8094 9.89904 30.8101C9.89899 30.8103 9.89884 30.8109 9.89873 30.8113C9.89851 30.8122 9.89829 30.8131 9.89807 30.8141C9.89761 30.8159 9.89714 30.8179 9.89664 30.82C9.89564 30.8242 9.89455 30.829 9.89339 30.8341C9.89106 30.8445 9.88843 30.8568 9.88561 30.8709C9.87995 30.8992 9.8735 30.9351 9.86711 30.978C9.85433 31.0639 9.84179 31.1785 9.8364 31.3186C9.82561 31.5993 9.84361 31.9817 9.94543 32.4399C10.1511 33.3652 10.6882 34.5525 11.935 35.808L13.2122 34.5397C12.1943 33.5147 11.8311 32.6279 11.7026 32.0494C11.6373 31.7555 11.6297 31.5285 11.6351 31.3877C11.6378 31.3172 11.6438 31.268 11.6475 31.2429C11.6494 31.2303 11.6507 31.2238 11.6507 31.2236C11.6507 31.2235 11.6504 31.225 11.6497 31.2282C11.6494 31.2298 11.6489 31.2318 11.6483 31.2342C11.6481 31.2354 11.6477 31.2367 11.6474 31.2381C11.6472 31.2388 11.6471 31.2395 11.6469 31.2403C11.6468 31.2407 11.6466 31.2413 11.6466 31.2415C11.6464 31.242 11.6463 31.2427 10.7728 31.0257ZM11.935 35.8081C13.1515 37.0327 14.3309 37.5664 15.2517 37.7774C15.7076 37.8818 16.0899 37.9048 16.3699 37.8992C16.5097 37.8964 16.6241 37.8864 16.7094 37.8759C16.752 37.8706 16.7875 37.8652 16.8153 37.8604C16.8293 37.8581 16.8413 37.8558 16.8514 37.8539C16.8564 37.8529 16.8609 37.852 16.865 37.8512C16.867 37.8507 16.8689 37.8503 16.8707 37.85C16.8716 37.8498 16.8725 37.8496 16.8733 37.8494C16.8737 37.8493 16.8743 37.8492 16.8745 37.8492C16.8751 37.849 16.8757 37.8489 16.6856 36.9692C16.4956 36.0895 16.4962 36.0894 16.4967 36.0893C16.4969 36.0892 16.4975 36.0891 16.4978 36.089C16.4985 36.0889 16.4992 36.0887 16.4999 36.0886C16.5012 36.0883 16.5024 36.0881 16.5035 36.0878C16.5057 36.0874 16.5075 36.087 16.5088 36.0868C16.5115 36.0863 16.5125 36.0861 16.5118 36.0862C16.5105 36.0864 16.5026 36.0877 16.4886 36.0895C16.4605 36.093 16.4078 36.0981 16.3337 36.0996C16.1855 36.1026 15.9514 36.091 15.6536 36.0228C15.067 35.8885 14.1904 35.5245 13.2121 34.5396L11.935 35.8081Z" fill="#AD5A40"/>
</svg>
