<svg width="37" height="38" viewBox="0 0 37 38" fill="none" xmlns="http://www.w3.org/2000/svg">
<path d="M36.5169 20.0214L36.5168 20.0213L35.6159 19.7638L33.4753 20.9519C33.4753 20.9519 33.4753 20.9519 33.4753 20.9519C33.1554 21.1295 33.0399 21.5327 33.2175 21.8527L33.2175 21.8528C33.3389 22.0708 33.5647 22.1938 33.7974 22.1938C33.9062 22.1938 34.0167 22.1668 34.1184 22.1103C34.1184 22.1103 34.1184 22.1103 34.1184 22.1103L36.2591 20.9222L36.2591 20.9222C36.579 20.7446 36.6945 20.3414 36.5169 20.0214Z" fill="#AD5A40" stroke="#AD5A40" stroke-width="0.2"/>
<path d="M30.6716 19.4166L30.6716 19.4166C30.3235 19.3042 30.1324 18.9309 30.2446 18.5827L30.2446 18.5826L30.9288 16.4623C30.9288 16.4623 30.9288 16.4623 30.9288 16.4623C31.0411 16.1141 31.4144 15.9227 31.7628 16.0353L30.6716 19.4166ZM30.6716 19.4166C30.7391 19.4384 30.8077 19.4487 30.8751 19.4487C31.1548 19.4487 31.415 19.2704 31.5056 18.9896L31.5056 18.9896M30.6716 19.4166L31.5056 18.9896M31.5056 18.9896L32.1897 16.8692L32.1898 16.8692M31.5056 18.9896L32.1898 16.8692M32.1898 16.8692C32.302 16.521 32.1109 16.1477 31.7628 16.0353L32.1898 16.8692Z" fill="#AD5A40" stroke="#AD5A40" stroke-width="0.2"/>
<path d="M33.2789 20.1509L33.2788 20.1509C33.1498 20.335 32.9442 20.4334 32.7355 20.4334L33.2789 20.1509ZM33.2789 20.1509L35.9843 16.2861L35.9843 16.2861M33.2789 20.1509L35.9843 16.2861M35.9843 16.2861C36.1939 15.9864 36.1211 15.5733 35.8213 15.3634L35.8213 15.3634M35.9843 16.2861L35.8213 15.3634M35.8213 15.3634C35.5216 15.1537 35.1086 15.2269 34.8987 15.5262L34.8987 15.5262M35.8213 15.3634L34.8987 15.5262M34.8987 15.5262L32.1933 19.391L32.1933 19.391M34.8987 15.5262L32.1933 19.391M32.1933 19.391C31.9837 19.6907 32.0564 20.1038 32.3563 20.3137L32.1933 19.391Z" fill="#AD5A40" stroke="#AD5A40" stroke-width="0.2"/>
<path d="M1.0625 32.6H13.7188C14.0847 32.6 14.3813 32.3034 14.3813 31.9375C14.3813 31.5716 14.0847 31.275 13.7188 31.275H1.0625C0.696627 31.275 0.4 31.5716 0.4 31.9375C0.4 32.3034 0.696627 32.6 1.0625 32.6Z" fill="#AD5A40" stroke="#AD5A40" stroke-width="0.2"/>
<path d="M19.6251 33.5252H6.40625C6.04038 33.5252 5.74375 33.8219 5.74375 34.1877C5.74375 34.5536 6.04038 34.8502 6.40625 34.8502H19.6251C19.9909 34.8502 20.2876 34.5536 20.2876 34.1877C20.2876 33.8219 19.9909 33.5252 19.6251 33.5252Z" fill="#AD5A40" stroke="#AD5A40" stroke-width="0.2"/>
<path d="M13.7188 35.7752H1.0625C0.696627 35.7752 0.4 36.0719 0.4 36.4377C0.4 36.8036 0.696627 37.1002 1.0625 37.1002H13.7188C14.0847 37.1002 14.3813 36.8036 14.3813 36.4377C14.3813 36.0719 14.0847 35.7752 13.7188 35.7752Z" fill="#AD5A40" stroke="#AD5A40" stroke-width="0.2"/>
<path d="M32.6615 22.4265L32.6616 22.4265C33.2533 22.9207 33.6231 23.4945 33.744 24.0779C33.8655 24.6634 33.7343 25.2502 33.3393 25.7601M32.6615 22.4265L33.2602 25.6988M32.6615 22.4265C32.5454 22.3297 32.2945 22.126 31.968 21.861C30.9308 21.0189 29.1315 19.5582 28.4765 18.9443C26.9901 17.5514 25.3085 17.0233 23.2547 17.3077L23.2547 17.3077M32.6615 22.4265L23.2547 17.3077M33.3393 25.7601L33.2602 25.6988M33.3393 25.7601C33.3393 25.76 33.3393 25.76 33.3394 25.76L33.2602 25.6988M33.3393 25.7601C32.9022 26.3255 32.3168 26.6298 31.6485 26.6298C31.0339 26.6298 30.4044 26.3738 29.7788 25.8838L29.7787 25.8838C28.9077 25.2008 27.9331 24.4559 27.1109 23.8448C26.3123 23.2512 25.6638 22.7885 25.3911 22.6278M33.2602 25.6988C32.8403 26.2422 32.283 26.5298 31.6485 26.5298C31.0627 26.5298 30.4543 26.2859 29.8405 25.8051C28.0972 24.4381 25.9392 22.8237 25.4146 22.5258M25.3911 22.6278C25.4013 22.627 25.4116 22.6263 25.4218 22.6255L25.4146 22.5258M25.3911 22.6278C25.3821 22.6224 25.3734 22.6174 25.3652 22.6128L25.4146 22.5258M25.3911 22.6278C24.3327 22.7046 23.2903 22.8102 22.0005 22.9732M25.4146 22.5258C24.3093 22.6054 23.2244 22.7161 21.862 22.89C21.9081 22.9178 21.9543 22.9455 22.0005 22.9732M22.0005 22.9732C22.4515 23.2434 22.9084 23.508 23.3675 23.746L23.3675 23.7461C24.3948 24.2791 24.7049 25.1118 24.9501 25.9577C25.9498 29.4058 26.5479 31.8638 26.8304 33.69M22.0005 22.9732C21.9475 22.9799 21.8941 22.9867 21.8402 22.9936C22.3271 23.2868 22.8227 23.5762 23.3214 23.8348C24.3102 24.3479 24.6104 25.1449 24.854 25.9855L26.8304 33.69M26.8304 33.69L26.7316 33.7053L26.8304 33.69C26.8304 33.69 26.8304 33.69 26.8304 33.69ZM26.8304 33.69C26.9828 34.6728 26.7807 35.3367 26.3978 35.7766C26.0178 36.213 25.4743 36.4118 24.9766 36.497C24.8203 36.5238 24.6698 36.5376 24.5294 36.5376C23.8488 36.5376 23.399 36.22 23.0858 35.794C22.7785 35.3757 22.6001 34.8494 22.4544 34.4194L22.4522 34.4129L22.4522 34.4128C22.1925 33.6458 21.5312 31.1503 21.1786 29.8199C21.0754 29.4305 20.9987 29.141 20.9662 29.0237L20.9662 29.0237C20.9301 28.8932 20.8739 28.7702 20.8146 28.6726C20.7532 28.5715 20.6957 28.5095 20.6626 28.4886L20.6625 28.4886L20.0879 28.1252L20.0833 28.1223C18.1881 26.9238 16.2314 25.6863 14.2553 24.5744L14.3043 24.4873L14.2553 24.5744C10.2048 22.2946 8.90201 18.4573 8.22991 15.3691C8.17829 15.4152 8.12681 15.4611 8.07541 15.5068M26.8304 33.69L8.07541 15.5068M23.2547 17.3077C22.0169 17.4793 20.7563 17.567 19.5332 17.652M23.2547 17.3077L19.5332 17.652M27.806 12.0567L27.806 12.0567C27.3917 12.2606 26.3586 12.7461 25.3052 13.2412L25.2006 13.2903C24.1104 13.8027 23.0196 14.3157 22.5841 14.5311C21.4661 15.0842 20.326 15.0947 19.073 14.5594L19.1123 14.4674L19.073 14.5594C18.6547 14.3806 18.2359 14.2165 17.8015 14.05L18.5271 17.5955L27.806 12.0567ZM27.806 12.0567C28.4688 11.7302 28.9262 11.2568 29.1135 10.6816L29.1135 10.6815M27.806 12.0567L29.1135 10.6815M29.1135 10.6815C29.2857 10.1514 29.2168 9.57522 28.924 9.01861L28.9239 9.01858M29.1135 10.6815L28.9239 9.01858M28.9239 9.01858C28.6385 8.47635 28.2045 8.11533 27.6759 7.96509C27.1487 7.81526 26.5376 7.8779 25.8998 8.1624L25.8997 8.16245L25.8995 8.16249L25.8992 8.16265L25.8974 8.16344L25.8904 8.16656L25.8627 8.17881L25.7569 8.22578C25.6651 8.26652 25.5327 8.32536 25.3702 8.39774C25.0453 8.5425 24.5999 8.74145 24.1183 8.95823C23.1558 9.3915 22.0464 9.89691 21.4651 10.1828L21.465 10.1828M28.9239 9.01858L21.465 10.1828M21.465 10.1828C21.2545 10.2865 21.0847 10.3358 20.9159 10.3393C20.7467 10.3428 20.569 10.3004 20.3422 10.2052C19.5046 9.85293 17.3338 8.96342 15.7912 8.33129C15.0841 8.04154 14.5089 7.80587 14.2546 7.70079L14.18 7.66997M21.465 10.1828L14.18 7.66997M14.18 7.66997L14.1342 7.73637M14.18 7.66997L14.1342 7.73637M14.1342 7.73637C13.9113 8.05892 13.6518 8.35137 13.3635 8.61053L13.2457 8.71647M14.1342 7.73637L13.2457 8.71647M13.2457 8.71647L13.392 8.77725M13.2457 8.71647L13.392 8.77725M13.392 8.77725C13.7455 8.924 14.5818 9.26699 15.5503 9.66414C17.1353 10.3141 19.0741 11.1092 19.8288 11.4267L19.8288 11.4267M13.392 8.77725L19.8288 11.4267M19.8288 11.4267C20.222 11.592 20.5894 11.6719 20.9547 11.6626C21.32 11.6533 21.6772 11.555 22.0499 11.3718L22.0499 11.3718M19.8288 11.4267L22.0499 11.3718M22.0499 11.3718C22.6173 11.0928 23.7139 10.5933 24.6701 10.1629C25.1478 9.94789 25.5901 9.75034 25.9129 9.60654C26.0743 9.53465 26.2058 9.47619 26.2969 9.43572L26.4021 9.38905L26.4296 9.37689L26.4366 9.37379L26.4383 9.37301L26.4388 9.37281L26.4389 9.37277L26.3984 9.28131L26.4389 9.37275M22.0499 11.3718L26.4389 9.37275M26.4389 9.37275L26.4391 9.37265C26.7716 9.22442 27.0387 9.17608 27.2493 9.21804C27.4536 9.25877 27.6212 9.38799 27.7516 9.63567C27.8833 9.88629 27.91 10.0976 27.8535 10.2718C27.8101 10.4051 27.7171 10.5229 27.599 10.6247C27.4813 10.7261 27.3439 10.8072 27.2206 10.8678L27.2205 10.8679C26.8157 11.0672 25.7944 11.5472 24.7444 12.0407L24.6267 12.096C23.5373 12.608 22.4407 13.1238 21.9966 13.3434C21.2249 13.7251 20.4986 13.7276 19.5938 13.3409L19.5937 13.3408C19.3081 13.2188 18.8626 13.0425 18.4895 12.8971C18.3028 12.8244 18.1338 12.7592 18.0115 12.7122L17.8667 12.6567L17.8273 12.6416L17.8171 12.6377L17.8144 12.6367L17.8138 12.6365L17.8137 12.6364M26.4389 9.37275L17.8137 12.6364M17.8137 12.6364C17.3511 12.4597 16.8775 12.5552 16.5992 12.8956L16.5991 12.8956M17.8137 12.6364L16.5991 12.8956M16.5991 12.8956C16.397 13.1434 16.3321 13.4779 16.4042 13.8307L16.4042 13.8308M16.5991 12.8956L16.4042 13.8308M16.4042 13.8308L17.2293 17.8614M16.4042 13.8308L17.2293 17.8614M18.7758 18.9338C18.0944 18.9827 17.4613 18.497 17.3273 17.8414L16.5022 13.8107L18.7758 18.9338ZM18.7758 18.9338C19.018 18.916 19.2626 18.8989 19.5087 18.8817L19.6185 18.8741L18.7758 18.9338ZM17.2293 17.8614C17.3734 18.5662 18.0514 19.086 18.783 19.0335L18.7831 19.0335C19.0253 19.0157 19.2697 18.9987 19.5159 18.9815L19.6254 18.9738C19.6254 18.9738 19.6254 18.9738 19.6254 18.9738C20.8661 18.8876 22.1529 18.798 23.4365 18.6201C24.2714 18.5044 25.0045 18.5475 25.6774 18.7577C26.3501 18.9678 26.9682 19.3469 27.5704 19.9112C28.4687 20.7531 29.4402 21.5302 30.3762 22.2789L30.3792 22.2813L30.3865 22.2872C30.8582 22.6645 31.345 23.0539 31.8124 23.4439C31.9704 23.5758 32.2121 23.8075 32.3514 24.082C32.4205 24.2183 32.4622 24.361 32.4592 24.5048C32.4562 24.6471 32.4095 24.7967 32.2913 24.9491L32.2912 24.9492C32.1011 25.1954 31.8921 25.3048 31.6485 25.3048C31.3571 25.3048 30.9934 25.1521 30.5962 24.8409C28.3471 23.0774 27.1338 22.1934 26.4586 21.7501C26.1215 21.5287 25.9147 21.4146 25.7779 21.356C25.7089 21.3264 25.6556 21.3101 25.6109 21.3015C25.5657 21.2928 25.5324 21.2928 25.5081 21.2928H25.5074V21.2928L25.5038 21.2929L25.4623 21.2944L25.4623 21.2944L25.459 21.2946C24.0214 21.3948 22.6408 21.5438 20.6959 21.8085L20.6959 21.8085C20.3676 21.8532 20.1557 21.9794 20.0213 22.1242C19.8881 22.2676 19.8375 22.4219 19.8183 22.514M17.2293 17.8614L7.71057 14.1897C7.72839 14.1737 7.74182 14.1617 7.75043 14.1539M19.8183 22.514C19.8183 22.514 19.8183 22.514 19.8183 22.514L19.9162 22.5345L19.8183 22.514ZM19.8183 22.514C19.7989 22.607 19.7837 22.7698 19.8497 22.9559C19.9162 23.1439 20.0621 23.3461 20.349 23.5206M20.349 23.5206L20.6161 23.6834L20.6682 23.5981M20.349 23.5206L20.3489 23.5206L20.401 23.4352M20.349 23.5206L20.401 23.4352M20.6682 23.5981L20.6162 23.6835L20.6186 23.6849C21.3057 24.104 22.0197 24.5395 22.7574 24.9222C23.0198 25.0584 23.1903 25.2135 23.3243 25.4274C23.4608 25.6452 23.562 25.928 23.6775 26.3265L23.6775 26.3265C24.6626 29.7253 25.2478 32.1285 25.5209 33.8928L25.521 33.8928C25.5999 34.4013 25.5475 34.6928 25.4208 34.87C25.295 35.046 25.0773 35.1355 24.7528 35.1911C24.668 35.2056 24.5928 35.2126 24.5291 35.2126H24.529C24.4588 35.2126 24.4049 35.2072 24.3546 35.1873C24.3056 35.1678 24.2518 35.1311 24.1898 35.0552C24.0615 34.8982 23.9115 34.5908 23.7073 33.9878C23.3871 33.0427 23.0437 31.7199 22.7104 30.4353C22.5476 29.8075 22.39 29.2 22.2433 28.67L22.2433 28.67C22.1233 28.2372 21.8338 27.6612 21.3704 27.3684M20.6682 23.5981L20.401 23.4352M20.6682 23.5981L20.6692 23.5987C21.3572 24.0183 22.0688 24.4523 22.8034 24.8335C23.3563 25.1204 23.5422 25.5004 23.7735 26.2987L20.401 23.4352M21.3704 27.3684L20.7961 27.0053L20.7426 27.0898M21.3704 27.3684L21.3704 27.3684L21.3169 27.4529M21.3704 27.3684L21.3169 27.4529M20.7426 27.0898L20.7961 27.0053L20.7942 27.0041C18.8871 25.798 16.9127 24.5493 14.9052 23.4197C12.0884 21.8343 10.4219 19.2528 9.50988 15.0195L9.50987 15.0194C9.47501 14.8578 9.44394 14.6949 9.40654 14.4987L9.40652 14.4986C9.31859 14.0405 8.95865 13.7238 8.50767 13.7238C8.22022 13.7238 7.93529 13.8516 7.68332 14.0798L7.75043 14.1539M20.7426 27.0898L20.7419 27.0893C18.8341 25.8827 16.8614 24.6352 14.8561 23.5069L22.147 28.6967C22.03 28.275 21.7503 27.7267 21.3169 27.4529M20.7426 27.0898L21.3169 27.4529M7.75043 14.1539L7.68344 14.0797C7.67488 14.0874 7.6615 14.0994 7.64373 14.1153C7.49183 14.2517 7.01941 14.6759 6.49771 15.1677C5.91677 15.7154 5.26836 16.3528 4.93528 16.7707M7.75043 14.1539C7.98885 13.938 8.25086 13.8238 8.50767 13.8238L4.93528 16.7707M4.93528 16.7707C4.82729 16.9062 4.72836 17.0996 4.63469 17.336C4.54052 17.5736 4.44938 17.8605 4.35913 18.187C4.17867 18.8398 3.99969 19.6583 3.80655 20.5711L3.80654 20.5711C3.7061 21.0469 3.62019 21.4516 3.56755 21.6378L3.66377 21.665M4.93528 16.7707L2.13806 19.4066M2.55139 22.4622C2.64809 22.4838 2.74008 22.4946 2.82497 22.4946C2.97439 22.4946 3.42921 22.4946 3.66377 21.665M2.55139 22.4622L3.90438 20.5918C3.8044 21.0655 3.7176 21.4747 3.66377 21.665M2.55139 22.4622C1.50742 22.2299 1.60273 21.675 1.64365 21.4376L2.55139 22.4622ZM3.66377 21.665L3.56754 21.6378C3.45489 22.0363 3.2941 22.2198 3.15846 22.3068C3.02215 22.3942 2.89584 22.3946 2.82497 22.3946C2.74845 22.3946 2.6638 22.3848 2.57314 22.3646L2.57312 22.3646C2.0668 22.2519 1.86238 22.067 1.77961 21.9061C1.69486 21.7413 1.7216 21.5741 1.7422 21.4546L1.74223 21.4544C1.7911 21.1678 2.0714 19.7421 2.13806 19.4066M2.13806 19.4066C2.63021 16.9438 4.08036 14.5448 6.11803 12.8275L6.11805 12.8275C7.17807 11.9338 8.15965 10.9334 9.10537 9.96761L9.23422 9.83603L9.05369 9.79962C8.67416 9.72308 8.30414 9.60526 7.94821 9.439L7.94805 9.43893C7.94198 9.4361 7.93555 9.43259 7.9258 9.42715L7.92407 9.42619C7.91544 9.42136 7.90384 9.41488 7.89146 9.40894L7.82702 9.37805L7.77692 9.42901C6.96791 10.2519 6.13713 11.0784 5.26405 11.8144C3.00264 13.7203 1.38932 16.3918 0.838613 19.1473L0.838585 19.1474C0.78331 19.4261 0.490195 20.9141 0.436288 21.2307C0.33267 21.8328 0.452634 22.3673 0.776076 22.7894C1.09834 23.21 1.61454 23.5087 2.28521 23.6579C2.28522 23.6579 2.28523 23.6579 2.28524 23.6579L2.30696 23.5603M2.13806 19.4066L5.00522 20.8246C4.89644 21.3386 4.81049 21.7445 4.74647 21.9713C4.45012 23.0188 3.74975 23.6196 2.82497 23.6196C2.65799 23.6196 2.48384 23.5997 2.30696 23.5603M2.30696 23.5603C0.998212 23.2692 0.335729 22.4045 0.534855 21.2475L2.30696 23.5603ZM8.07541 15.5068C7.29275 16.2043 6.56129 16.8563 5.9716 17.5964L8.07541 15.5068ZM19.5332 17.652C19.25 17.6717 18.969 17.6914 18.6771 17.7123M19.5332 17.652L18.6771 17.7123M18.6771 17.7123C18.6494 17.7114 18.6145 17.6986 18.5829 17.6739C18.5499 17.648 18.5318 17.6179 18.5271 17.5955L18.6771 17.7123ZM27.2647 10.9576C26.859 11.1573 25.8375 11.6374 24.7885 12.1304C23.6601 12.6608 22.5 13.206 22.0409 13.4331C21.2395 13.8294 20.4823 13.8294 19.5545 13.4328L27.2647 10.9576ZM20.716 28.4041C20.8223 28.4712 20.9851 28.717 21.0626 28.997L20.716 28.4041Z" fill="#AD5A40" stroke="#AD5A40" stroke-width="0.2"/>
<path d="M13.6968 6.65465C14.6649 4.61981 13.8365 2.26741 11.811 1.30181L11.8109 1.3018C11.2517 1.03539 10.6578 0.9 10.0458 0.9C8.49792 0.9 7.11228 1.76309 6.43106 3.152L6.43103 3.15205C5.95318 4.12766 5.89293 5.24001 6.26036 6.28306L6.26036 6.28308C6.6261 7.32054 7.36458 8.14439 8.3401 8.60099L8.34013 8.601C8.87085 8.8492 9.43738 8.97503 10.0236 8.97503C11.5859 8.97503 13.0276 8.06422 13.6968 6.65465ZM13.6968 6.65465L13.6065 6.61169M13.6968 6.65465C13.6968 6.65463 13.6968 6.6546 13.6968 6.65458L13.6065 6.61169M13.6065 6.61169C12.9539 7.98636 11.5474 8.87503 10.0236 8.87503C9.45201 8.87503 8.89994 8.75241 8.3825 8.51042L6.52084 3.19604C7.18524 1.84142 8.53603 1 10.0458 1C10.6427 1 11.2219 1.13197 11.7679 1.39208C13.7433 2.33375 14.5511 4.62631 13.6065 6.61169ZM12.5002 6.0858L12.5002 6.08575C13.1505 4.71863 12.5968 3.14433 11.241 2.4979C10.8606 2.3166 10.4586 2.22501 10.0458 2.22501C9.00644 2.22501 8.0778 2.80347 7.62083 3.73526L12.5002 6.0858ZM12.5002 6.0858C12.0491 7.03582 11.0768 7.65003 10.0236 7.65003M12.5002 6.0858L10.0236 7.65003M7.51026 5.84263L7.51027 5.84266C7.75739 6.5442 8.25174 7.09676 8.90164 7.40085L7.51026 5.84263ZM7.51026 5.84263C7.26103 5.13589 7.30096 4.38787 7.62083 3.73528L7.51026 5.84263ZM10.0236 7.65003C9.63254 7.65003 9.25536 7.56617 8.90168 7.40087L10.0236 7.65003Z" fill="#AD5A40" stroke="#AD5A40" stroke-width="0.2"/>
<path d="M12.0956 14.5672C11.9778 14.2208 11.602 14.0359 11.2546 14.1542L11.2546 14.1542L12.001 14.5995M12.0956 14.5672C12.0956 14.5673 12.0956 14.5673 12.0957 14.5673L12.001 14.5995M12.0956 14.5672C12.0956 14.5672 12.0956 14.5672 12.0956 14.5672L12.001 14.5995M12.0956 14.5672C12.2094 14.9006 12.3209 15.2483 12.434 15.6013L12.4341 15.6013C12.8057 16.7623 13.1863 17.9488 13.7302 18.8845L13.7302 18.8846C14.069 19.4687 14.5301 19.8211 15.4737 20.4055M12.001 14.5995C12.1144 14.9318 12.2256 15.2786 12.3388 15.6318C12.7096 16.79 13.0933 17.9878 13.6437 18.9347C13.9961 19.5423 14.4767 19.9056 15.421 20.4905M15.4737 20.4055C15.4737 20.4055 15.4737 20.4055 15.4736 20.4055L15.421 20.4905M15.4737 20.4055L15.421 20.4905M15.4737 20.4055C15.7849 20.5981 15.8809 21.0064 15.6881 21.3176L15.6031 21.2649C15.7668 21.0007 15.6853 20.6541 15.421 20.4905M10.9364 14.9629L10.8417 14.9952L10.9364 14.9629ZM10.9364 14.9629L10.8418 14.9952L10.9364 14.9629ZM11.2674 15.9748L11.1721 16.0053L11.1721 16.0054L11.2674 15.9748ZM12.5844 19.5497C12.5844 19.5498 12.5844 19.5498 12.5844 19.5498L12.6709 19.4996L12.5844 19.5497Z" fill="#AD5A40" stroke="#AD5A40" stroke-width="0.2"/>
<path d="M16.8125 23.0373C17.1784 23.0373 17.475 22.7406 17.475 22.3748C17.475 22.0089 17.1784 21.7123 16.8125 21.7123C16.4466 21.7123 16.15 22.0089 16.15 22.3748C16.15 22.7406 16.4466 23.0373 16.8125 23.0373Z" fill="#AD5A40" stroke="#AD5A40" stroke-width="0.2"/>
</svg>
