<svg width="35" height="38" viewBox="0 0 35 38" fill="none" xmlns="http://www.w3.org/2000/svg">
<mask id="path-1-outside-1_250_4498" maskUnits="userSpaceOnUse" x="-0.5" y="0.00732422" width="36" height="38" fill="black">
<rect fill="white" x="-0.5" y="0.00732422" width="36" height="38"/>
<path d="M9.52114 27.9519H3.16795C3.07754 27.9519 2.99083 27.9132 2.9269 27.8443C2.86296 27.7755 2.82705 27.6821 2.82705 27.5847C2.82705 27.4873 2.86296 27.3939 2.9269 27.325C2.99083 27.2561 3.07754 27.2174 3.16795 27.2174H9.52114C9.99023 27.2174 10.3864 26.6923 10.3864 26.071V25.7075C10.3864 25.0862 9.99023 24.561 9.52114 24.561H3.22727C3.13686 24.561 3.05015 24.5223 2.98621 24.4535C2.92228 24.3846 2.88636 24.2912 2.88636 24.1938C2.88636 24.0964 2.92228 24.003 2.98621 23.9342C3.05015 23.8653 3.13686 23.8266 3.22727 23.8266H9.52045C10.3734 23.8266 11.0675 24.6705 11.0675 25.7075V26.071C11.0682 27.108 10.3741 27.9519 9.52114 27.9519Z"/>
<path d="M5.29727 27.9394C5.20686 27.9394 5.12015 27.9007 5.05621 27.8318C4.99228 27.763 4.95636 27.6696 4.95636 27.5722V24.1938C4.95636 24.0964 4.99228 24.003 5.05621 23.9342C5.12015 23.8653 5.20686 23.8266 5.29727 23.8266C5.38769 23.8266 5.4744 23.8653 5.53833 23.9342C5.60226 24.003 5.63818 24.0964 5.63818 24.1938V27.5722C5.63818 27.6696 5.60226 27.763 5.53833 27.8318C5.4744 27.9007 5.38769 27.9394 5.29727 27.9394Z"/>
<path d="M31.3352 27.9519H24.9889C24.1366 27.9519 23.4432 27.108 23.4432 26.071V25.7075C23.4432 24.6705 24.1366 23.8266 24.9889 23.8266H31.2752C31.3656 23.8266 31.4524 23.8653 31.5163 23.9342C31.5802 24.003 31.6161 24.0964 31.6161 24.1938C31.6161 24.2912 31.5802 24.3846 31.5163 24.4535C31.4524 24.5223 31.3656 24.561 31.2752 24.561H24.9889C24.5205 24.561 24.125 25.0862 24.125 25.7075V26.071C24.125 26.6923 24.5205 27.2174 24.9889 27.2174H31.3352C31.4256 27.2174 31.5124 27.2561 31.5763 27.325C31.6402 27.3939 31.6761 27.4873 31.6761 27.5847C31.6761 27.6821 31.6402 27.7755 31.5763 27.8443C31.5124 27.9132 31.4256 27.9519 31.3352 27.9519Z"/>
<path d="M29.2086 27.9394C29.1182 27.9394 29.0315 27.9007 28.9676 27.8318C28.9036 27.763 28.8677 27.6696 28.8677 27.5722V24.1938C28.8677 24.0964 28.9036 24.003 28.9676 23.9342C29.0315 23.8653 29.1182 23.8266 29.2086 23.8266C29.2991 23.8266 29.3858 23.8653 29.4497 23.9342C29.5136 24.003 29.5495 24.0964 29.5495 24.1938V27.5722C29.5495 27.6696 29.5136 27.763 29.4497 27.8318C29.3858 27.9007 29.2991 27.9394 29.2086 27.9394Z"/>
<path d="M7.02705 37.0073H5.34091C4.37682 37.0073 3.59273 36.1429 3.59273 35.0809V32.9746C3.59273 32.8772 3.62864 32.7838 3.69258 32.7149C3.75651 32.6461 3.84322 32.6074 3.93364 32.6074C4.02405 32.6074 4.11076 32.6461 4.1747 32.7149C4.23863 32.7838 4.27455 32.8772 4.27455 32.9746V35.0787C4.27455 35.736 4.75182 36.2707 5.34091 36.2707H7.02909C7.61682 36.2707 8.09477 35.736 8.09477 35.0787V32.9746C8.09477 32.8772 8.13069 32.7838 8.19462 32.7149C8.25856 32.6461 8.34527 32.6074 8.43568 32.6074C8.5261 32.6074 8.61281 32.6461 8.67674 32.7149C8.74067 32.7838 8.77659 32.8772 8.77659 32.9746V35.0787C8.77455 36.1429 7.99046 37.0073 7.02705 37.0073Z"/>
<path d="M28.9918 37.0073H27.3036C26.3402 37.0073 25.5561 36.1429 25.5561 35.0809V33.098C25.5561 33.0006 25.5921 32.9072 25.656 32.8383C25.7199 32.7695 25.8066 32.7308 25.897 32.7308C25.9875 32.7308 26.0742 32.7695 26.1381 32.8383C26.202 32.9072 26.238 33.0006 26.238 33.098V35.0809C26.238 35.7382 26.7152 36.2729 27.3036 36.2729H28.9918C29.5795 36.2729 30.0575 35.7382 30.0575 35.0809V33.098C30.0575 33.0006 30.0934 32.9072 30.1573 32.8383C30.2213 32.7695 30.308 32.7308 30.3984 32.7308C30.4888 32.7308 30.5755 32.7695 30.6395 32.8383C30.7034 32.9072 30.7393 33.0006 30.7393 33.098V35.0809C30.7393 36.1429 29.9545 37.0073 28.9918 37.0073Z"/>
<path d="M1.48864 20.0855C1.22649 20.0853 0.97513 19.973 0.789764 19.7733C0.604398 19.5737 0.500181 19.3029 0.5 19.0205V14.3937C0.5 14.1112 0.60416 13.8404 0.789565 13.6407C0.97497 13.441 1.22643 13.3288 1.48864 13.3288C1.75084 13.3288 2.0023 13.441 2.18771 13.6407C2.37311 13.8404 2.47727 14.1112 2.47727 14.3937V19.0205C2.47709 19.3029 2.37287 19.5737 2.18751 19.7733C2.00214 19.973 1.75078 20.0853 1.48864 20.0855ZM1.48864 14.0632C1.40732 14.0634 1.32938 14.0983 1.27188 14.1602C1.21438 14.2221 1.182 14.3061 1.18182 14.3937V19.0205C1.18182 19.1082 1.21414 19.1923 1.27168 19.2542C1.32922 19.3162 1.40726 19.351 1.48864 19.351C1.57001 19.351 1.64805 19.3162 1.70559 19.2542C1.76313 19.1923 1.79545 19.1082 1.79545 19.0205V14.3937C1.79527 14.3061 1.76289 14.2221 1.70539 14.1602C1.64789 14.0983 1.56995 14.0634 1.48864 14.0632Z"/>
<path d="M1.52273 14.0632C1.43792 14.0636 1.356 14.03 1.29296 13.9689C1.22993 13.9078 1.1903 13.8236 1.18182 13.7327C1.18182 13.6967 1.10818 12.8514 1.64068 12.2198C2.00477 11.7865 2.54545 11.5669 3.24773 11.5669H6.33636C6.42678 11.5669 6.51349 11.6056 6.57742 11.6744C6.64136 11.7433 6.67727 11.8367 6.67727 11.9341C6.67727 12.0315 6.64136 12.1249 6.57742 12.1937C6.51349 12.2626 6.42678 12.3013 6.33636 12.3013H3.24909C2.74795 12.3013 2.37705 12.4401 2.14727 12.7126C1.82068 13.0996 1.86364 13.6548 1.86364 13.6592C1.86806 13.7073 1.86365 13.7558 1.85065 13.802C1.83766 13.8482 1.81633 13.8912 1.7879 13.9285C1.75946 13.9658 1.72448 13.9967 1.68495 14.0194C1.64541 14.0422 1.6021 14.0563 1.5575 14.061L1.52273 14.0632Z"/>
<path d="M33.2614 20.0855C32.9992 20.0853 32.7479 19.973 32.5625 19.7733C32.3771 19.5737 32.2729 19.3029 32.2727 19.0205V14.3937C32.2727 14.1112 32.3769 13.8404 32.5623 13.6407C32.7477 13.441 32.9992 13.3288 33.2614 13.3288C33.5236 13.3288 33.775 13.441 33.9604 13.6407C34.1458 13.8404 34.25 14.1112 34.25 14.3937V19.0205C34.2498 19.3029 34.1456 19.5737 33.9602 19.7733C33.7749 19.973 33.5235 20.0853 33.2614 20.0855ZM33.2614 14.0632C33.18 14.0634 33.1021 14.0983 33.0446 14.1602C32.9871 14.2221 32.9547 14.3061 32.9545 14.3937V19.0205C32.9545 19.1082 32.9869 19.1923 33.0444 19.2542C33.102 19.3162 33.18 19.351 33.2614 19.351C33.3427 19.351 33.4208 19.3162 33.4783 19.2542C33.5359 19.1923 33.5682 19.1082 33.5682 19.0205V14.3937C33.568 14.3061 33.5356 14.2221 33.4781 14.1602C33.4206 14.0983 33.3427 14.0634 33.2614 14.0632Z"/>
<path d="M33.2273 14.0632H33.1932C33.1483 14.0586 33.1048 14.0445 33.065 14.0216C33.0252 13.9988 32.9901 13.9677 32.9616 13.9301C32.933 13.8926 32.9117 13.8493 32.8988 13.8028C32.8859 13.7563 32.8817 13.7075 32.8864 13.6592C32.8864 13.6453 32.9252 13.0886 32.598 12.7045C32.3675 12.4342 31.998 12.2976 31.4995 12.2976H28.1586C28.0682 12.2976 27.9815 12.2589 27.9176 12.1901C27.8536 12.1212 27.8177 12.0278 27.8177 11.9304C27.8177 11.833 27.8536 11.7396 27.9176 11.6708C27.9815 11.6019 28.0682 11.5632 28.1586 11.5632H31.4995C32.2018 11.5632 32.7425 11.7835 33.1066 12.2161C33.6405 12.8514 33.5682 13.696 33.5682 13.7327C33.5597 13.8236 33.5201 13.9078 33.457 13.9689C33.394 14.03 33.3121 14.0636 33.2273 14.0632Z"/>
<path d="M30.3295 21.9112C30.2391 21.9112 30.1524 21.8725 30.0885 21.8037C30.0246 21.7348 29.9886 21.6414 29.9886 21.544V2.10382C29.9886 1.91067 29.8755 1.74175 29.7473 1.74175H4.81318C4.685 1.74175 4.57182 1.91067 4.57182 2.10382V21.4831C4.57182 21.5805 4.5359 21.6739 4.47197 21.7427C4.40804 21.8116 4.32132 21.8503 4.23091 21.8503C4.14049 21.8503 4.05378 21.8116 3.98985 21.7427C3.92592 21.6739 3.89 21.5805 3.89 21.4831V2.10382C3.89 1.49939 4.30455 1.00732 4.81318 1.00732H29.75C30.2586 1.00732 30.6732 1.49939 30.6732 2.10382V21.544C30.6732 21.5925 30.6643 21.6405 30.647 21.6852C30.6297 21.73 30.6043 21.7706 30.5724 21.8047C30.5404 21.8389 30.5025 21.8659 30.4608 21.8841C30.4192 21.9024 30.3745 21.9116 30.3295 21.9112Z"/>
<path d="M22.6932 29.8658C22.6028 29.8658 22.5161 29.8271 22.4521 29.7582C22.3882 29.6894 22.3523 29.596 22.3523 29.4986V21.591H12.0568V29.4986C12.0568 29.596 12.0209 29.6894 11.957 29.7582C11.893 29.8271 11.8063 29.8658 11.7159 29.8658C11.6255 29.8658 11.5388 29.8271 11.4748 29.7582C11.4109 29.6894 11.375 29.596 11.375 29.4986V21.2238C11.375 21.1264 11.4109 21.033 11.4748 20.9642C11.5388 20.8953 11.6255 20.8566 11.7159 20.8566H22.6932C22.7836 20.8566 22.8703 20.8953 22.9342 20.9642C22.9982 21.033 23.0341 21.1264 23.0341 21.2238V29.4986C23.0341 29.596 22.9982 29.6894 22.9342 29.7582C22.8703 29.8271 22.7836 29.8658 22.6932 29.8658Z"/>
<path d="M31.8295 33.3051H22.1082C22.0178 33.3051 21.9311 33.2664 21.8671 33.1975C21.8032 33.1287 21.7673 33.0353 21.7673 32.9379C21.7673 32.8405 21.8032 32.7471 21.8671 32.6782C21.9311 32.6094 22.0178 32.5707 22.1082 32.5707H31.8295C31.92 32.5707 32.0067 32.532 32.0706 32.4631C32.1345 32.3942 32.1705 32.3008 32.1705 32.2035V30.294C32.1705 30.1966 32.1345 30.1032 32.0706 30.0343C32.0067 29.9654 31.92 29.9267 31.8295 29.9267H2.45341C2.36299 29.9267 2.27628 29.9654 2.21235 30.0343C2.14842 30.1032 2.1125 30.1966 2.1125 30.294V32.2035C2.1125 32.3008 2.14842 32.3942 2.21235 32.4631C2.27628 32.532 2.36299 32.5707 2.45341 32.5707H12.1932C12.2836 32.5707 12.3703 32.6094 12.4342 32.6782C12.4982 32.7471 12.5341 32.8405 12.5341 32.9379C12.5341 33.0353 12.4982 33.1287 12.4342 33.1975C12.3703 33.2664 12.2836 33.3051 12.1932 33.3051H2.45341C2.18217 33.3051 1.92203 33.189 1.73023 32.9824C1.53843 32.7758 1.43068 32.4956 1.43068 32.2035V30.294C1.43068 30.0018 1.53843 29.7216 1.73023 29.515C1.92203 29.3084 2.18217 29.1923 2.45341 29.1923H31.8295C32.1008 29.1923 32.3609 29.3084 32.5527 29.515C32.7445 29.7216 32.8523 30.0018 32.8523 30.294V32.2035C32.8523 32.4956 32.7445 32.7758 32.5527 32.9824C32.3609 33.189 32.1008 33.3051 31.8295 33.3051Z"/>
<path d="M31.4259 29.8658C31.3355 29.8658 31.2488 29.8271 31.1849 29.7582C31.1209 29.6894 31.085 29.596 31.085 29.4986V23.6724C31.085 23.665 31.0986 22.7911 30.5811 22.2197C30.2689 21.876 29.8155 21.7012 29.2332 21.7012H28.1593C28.0689 21.7012 27.9822 21.6625 27.9183 21.5936C27.8543 21.5248 27.8184 21.4314 27.8184 21.334V10.7583C27.8184 10.7465 27.8518 9.46422 27.0357 8.555C26.4684 7.92119 25.6175 7.60025 24.5061 7.60025H9.98955C8.87477 7.60025 8.0225 7.9234 7.45523 8.56088C6.63705 9.47964 6.67659 10.7487 6.67727 10.7641V20.424L6.65886 21.3421C6.6569 21.438 6.62012 21.5294 6.5564 21.5965C6.49268 21.6636 6.40708 21.7012 6.31796 21.7012H5.24409C4.65977 21.7012 4.205 21.8767 3.89273 22.2241C3.38136 22.7925 3.39159 23.6643 3.39227 23.6724V29.4986C3.39227 29.596 3.35636 29.6894 3.29242 29.7582C3.22849 29.8271 3.14178 29.8658 3.05136 29.8658C2.96095 29.8658 2.87424 29.8271 2.8103 29.7582C2.74637 29.6894 2.71045 29.596 2.71045 29.4986V23.6885C2.71045 23.5798 2.70636 22.487 3.40318 21.7129C3.84841 21.2179 4.46818 20.9668 5.24409 20.9668H5.98455L5.99545 20.416V10.7832C5.99136 10.6364 5.975 9.16237 6.96295 8.05265C7.66386 7.26535 8.68182 6.86583 9.98955 6.86583H24.5055C25.8132 6.86583 26.8311 7.26535 27.532 8.05265C28.52 9.16237 28.503 10.64 28.4995 10.7832V20.9668H29.2332C30.0091 20.9668 30.6289 21.2179 31.0741 21.7129C31.7709 22.487 31.7689 23.5784 31.7668 23.6885V29.4986C31.7668 29.596 31.7309 29.6894 31.667 29.7582C31.603 29.8271 31.5163 29.8658 31.4259 29.8658Z"/>
<path d="M22.0509 35.2205H12.2327C12.1423 35.2205 12.0556 35.1818 11.9917 35.1129C11.9277 35.044 11.8918 34.9506 11.8918 34.8533V30.9983C11.8918 30.9009 11.9277 30.8075 11.9917 30.7386C12.0556 30.6697 12.1423 30.6311 12.2327 30.6311H22.0509C22.1413 30.6311 22.228 30.6697 22.292 30.7386C22.3559 30.8075 22.3918 30.9009 22.3918 30.9983V34.8533C22.3918 34.9506 22.3559 35.044 22.292 35.1129C22.228 35.1818 22.1413 35.2205 22.0509 35.2205ZM12.5736 34.486H21.71V31.3655H12.5736V34.486Z"/>
<path d="M28.0339 10.6011H6.45159C6.36118 10.6011 6.27446 10.5624 6.21053 10.4936C6.1466 10.4247 6.11068 10.3313 6.11068 10.2339C6.11068 10.1365 6.1466 10.0431 6.21053 9.97424C6.27446 9.90537 6.36118 9.86668 6.45159 9.86668H28.0339C28.1243 9.86668 28.211 9.90537 28.2749 9.97424C28.3389 10.0431 28.3748 10.1365 28.3748 10.2339C28.3748 10.3313 28.3389 10.4247 28.2749 10.4936C28.211 10.5624 28.1243 10.6011 28.0339 10.6011Z"/>
<path d="M28.0339 19.351H6.45159C6.36118 19.351 6.27446 19.3123 6.21053 19.2435C6.1466 19.1746 6.11068 19.0812 6.11068 18.9838C6.11068 18.8864 6.1466 18.793 6.21053 18.7242C6.27446 18.6553 6.36118 18.6166 6.45159 18.6166H28.0339C28.1243 18.6166 28.211 18.6553 28.2749 18.7242C28.3389 18.793 28.3748 18.8864 28.3748 18.9838C28.3748 19.0812 28.3389 19.1746 28.2749 19.2435C28.211 19.3123 28.1243 19.351 28.0339 19.351Z"/>
<path d="M12.693 4.99304H12.6589C12.5684 4.99304 12.4817 4.95436 12.4178 4.88549C12.3539 4.81662 12.318 4.72322 12.318 4.62583C12.318 4.52844 12.3539 4.43504 12.4178 4.36617C12.4817 4.29731 12.5684 4.25862 12.6589 4.25862H12.693C12.7834 4.25862 12.8701 4.29731 12.934 4.36617C12.9979 4.43504 13.0339 4.52844 13.0339 4.62583C13.0339 4.72322 12.9979 4.81662 12.934 4.88549C12.8701 4.95436 12.7834 4.99304 12.693 4.99304Z"/>
<path d="M20.8332 4.99304H20.765C20.6746 4.99304 20.5879 4.95436 20.5239 4.88549C20.46 4.81662 20.4241 4.72322 20.4241 4.62583C20.4241 4.52844 20.46 4.43504 20.5239 4.36617C20.5879 4.29731 20.6746 4.25862 20.765 4.25862H20.8332C20.9236 4.25862 21.0103 4.29731 21.0742 4.36617C21.1382 4.43504 21.1741 4.52844 21.1741 4.62583C21.1741 4.72322 21.1382 4.81662 21.0742 4.88549C21.0103 4.95436 20.9236 4.99304 20.8332 4.99304ZM19.4764 4.99304H19.4116C19.3212 4.99304 19.2345 4.95436 19.1705 4.88549C19.1066 4.81662 19.0707 4.72322 19.0707 4.62583C19.0707 4.52844 19.1066 4.43504 19.1705 4.36617C19.2345 4.29731 19.3212 4.25862 19.4116 4.25862H19.4764C19.5668 4.25862 19.6535 4.29731 19.7174 4.36617C19.7814 4.43504 19.8173 4.52844 19.8173 4.62583C19.8173 4.72322 19.7814 4.81662 19.7174 4.88549C19.6535 4.95436 19.5668 4.99304 19.4764 4.99304ZM18.1195 4.99304H18.0555C17.965 4.99304 17.8783 4.95436 17.8144 4.88549C17.7505 4.81662 17.7145 4.72322 17.7145 4.62583C17.7145 4.52844 17.7505 4.43504 17.8144 4.36617C17.8783 4.29731 17.965 4.25862 18.0555 4.25862H18.1195C18.21 4.25862 18.2967 4.29731 18.3606 4.36617C18.4245 4.43504 18.4605 4.52844 18.4605 4.62583C18.4605 4.72322 18.4245 4.81662 18.3606 4.88549C18.2967 4.95436 18.21 4.99304 18.1195 4.99304ZM16.7634 4.99304H16.6986C16.6082 4.99304 16.5215 4.95436 16.4576 4.88549C16.3936 4.81662 16.3577 4.72322 16.3577 4.62583C16.3577 4.52844 16.3936 4.43504 16.4576 4.36617C16.5215 4.29731 16.6082 4.25862 16.6986 4.25862H16.7634C16.8538 4.25862 16.9405 4.29731 17.0045 4.36617C17.0684 4.43504 17.1043 4.52844 17.1043 4.62583C17.1043 4.72322 17.0684 4.81662 17.0045 4.88549C16.9405 4.95436 16.8538 4.99304 16.7634 4.99304ZM15.4066 4.99304H15.3418C15.2514 4.99304 15.1647 4.95436 15.1008 4.88549C15.0368 4.81662 15.0009 4.72322 15.0009 4.62583C15.0009 4.52844 15.0368 4.43504 15.1008 4.36617C15.1647 4.29731 15.2514 4.25862 15.3418 4.25862H15.4066C15.497 4.25862 15.5837 4.29731 15.6476 4.36617C15.7116 4.43504 15.7475 4.52844 15.7475 4.62583C15.7475 4.72322 15.7116 4.81662 15.6476 4.88549C15.5837 4.95436 15.497 4.99304 15.4066 4.99304ZM14.0498 4.99304H13.985C13.8946 4.99304 13.8079 4.95436 13.7439 4.88549C13.68 4.81662 13.6441 4.72322 13.6441 4.62583C13.6441 4.52844 13.68 4.43504 13.7439 4.36617C13.8079 4.29731 13.8946 4.25862 13.985 4.25862H14.0498C14.1402 4.25862 14.2269 4.29731 14.2908 4.36617C14.3548 4.43504 14.3907 4.52844 14.3907 4.62583C14.3907 4.72322 14.3548 4.81662 14.2908 4.88549C14.2269 4.95436 14.1402 4.99304 14.0498 4.99304Z"/>
<path d="M22.1593 4.99304H22.1252C22.0348 4.99304 21.9481 4.95436 21.8842 4.88549C21.8202 4.81662 21.7843 4.72322 21.7843 4.62583C21.7843 4.52844 21.8202 4.43504 21.8842 4.36617C21.9481 4.29731 22.0348 4.25862 22.1252 4.25862H22.1593C22.2497 4.25862 22.3364 4.29731 22.4004 4.36617C22.4643 4.43504 22.5002 4.52844 22.5002 4.62583C22.5002 4.72322 22.4643 4.81662 22.4004 4.88549C22.3364 4.95436 22.2497 4.99304 22.1593 4.99304Z"/>
<path d="M3.98545 34.3531C3.89504 34.3531 3.80833 34.3144 3.7444 34.2456C3.68046 34.1767 3.64455 34.0833 3.64455 33.9859C3.64455 33.8885 3.68046 33.7951 3.7444 33.7262C3.80833 33.6574 3.89504 33.6187 3.98545 33.6187H5.16909C5.25951 33.6187 5.34622 33.6574 5.41015 33.7262C5.47408 33.7951 5.51 33.8885 5.51 33.9859C5.51 34.0833 5.47408 34.1767 5.41015 34.2456C5.34622 34.3144 5.25951 34.3531 5.16909 34.3531H3.98545Z"/>
<path d="M3.97045 35.7184C3.88004 35.7184 3.79333 35.6797 3.7294 35.6109C3.66546 35.542 3.62955 35.4486 3.62955 35.3512C3.62955 35.2538 3.66546 35.1604 3.7294 35.0915C3.79333 35.0227 3.88004 34.984 3.97045 34.984H5.18545C5.27587 34.984 5.36258 35.0227 5.42651 35.0915C5.49045 35.1604 5.52636 35.2538 5.52636 35.3512C5.52636 35.4486 5.49045 35.542 5.42651 35.6109C5.36258 35.6797 5.27587 35.7184 5.18545 35.7184H3.97045Z"/>
<path d="M7.19 34.3531C7.09959 34.3531 7.01287 34.3144 6.94894 34.2456C6.88501 34.1767 6.84909 34.0833 6.84909 33.9859C6.84909 33.8885 6.88501 33.7951 6.94894 33.7262C7.01287 33.6574 7.09959 33.6187 7.19 33.6187H8.37364C8.46405 33.6187 8.55076 33.6574 8.6147 33.7262C8.67863 33.7951 8.71455 33.8885 8.71455 33.9859C8.71455 34.0833 8.67863 34.1767 8.6147 34.2456C8.55076 34.3144 8.46405 34.3531 8.37364 34.3531H7.19Z"/>
<path d="M7.175 35.7184C7.08459 35.7184 6.99787 35.6797 6.93394 35.6109C6.87001 35.542 6.83409 35.4486 6.83409 35.3512C6.83409 35.2538 6.87001 35.1604 6.93394 35.0915C6.99787 35.0227 7.08459 34.984 7.175 34.984H8.39C8.48041 34.984 8.56713 35.0227 8.63106 35.0915C8.69499 35.1604 8.73091 35.2538 8.73091 35.3512C8.73091 35.4486 8.69499 35.542 8.63106 35.6109C8.56713 35.6797 8.48041 35.7184 8.39 35.7184H7.175Z"/>
<path d="M25.9673 34.3531C25.8769 34.3531 25.7901 34.3144 25.7262 34.2456C25.6623 34.1767 25.6264 34.0833 25.6264 33.9859C25.6264 33.8885 25.6623 33.7951 25.7262 33.7262C25.7901 33.6574 25.8769 33.6187 25.9673 33.6187H27.1264C27.2168 33.6187 27.3035 33.6574 27.3674 33.7262C27.4314 33.7951 27.4673 33.8885 27.4673 33.9859C27.4673 34.0833 27.4314 34.1767 27.3674 34.2456C27.3035 34.3144 27.2168 34.3531 27.1264 34.3531H25.9673Z"/>
<path d="M25.9523 35.7184C25.8619 35.7184 25.7751 35.6797 25.7112 35.6109C25.6473 35.542 25.6114 35.4486 25.6114 35.3512C25.6114 35.2538 25.6473 35.1604 25.7112 35.0915C25.7751 35.0227 25.8619 34.984 25.9523 34.984H27.1386C27.2291 34.984 27.3158 35.0227 27.3797 35.0915C27.4436 35.1604 27.4795 35.2538 27.4795 35.3512C27.4795 35.4486 27.4436 35.542 27.3797 35.6109C27.3158 35.6797 27.2291 35.7184 27.1386 35.7184H25.9523Z"/>
<path d="M29.1636 34.3531C29.0732 34.3531 28.9865 34.3144 28.9226 34.2456C28.8586 34.1767 28.8227 34.0833 28.8227 33.9859C28.8227 33.8885 28.8586 33.7951 28.9226 33.7262C28.9865 33.6574 29.0732 33.6187 29.1636 33.6187H30.3227C30.4131 33.6187 30.4999 33.6574 30.5638 33.7262C30.6277 33.7951 30.6636 33.8885 30.6636 33.9859C30.6636 34.0833 30.6277 34.1767 30.5638 34.2456C30.4999 34.3144 30.4131 34.3531 30.3227 34.3531H29.1636Z"/>
<path d="M29.1486 35.7184C29.0582 35.7184 28.9715 35.6797 28.9076 35.6109C28.8436 35.542 28.8077 35.4486 28.8077 35.3512C28.8077 35.2538 28.8436 35.1604 28.9076 35.0915C28.9715 35.0227 29.0582 34.984 29.1486 34.984H30.335C30.4254 34.984 30.5121 35.0227 30.5761 35.0915C30.64 35.1604 30.6759 35.2538 30.6759 35.3512C30.6759 35.4486 30.64 35.542 30.5761 35.6109C30.5121 35.6797 30.4254 35.7184 30.335 35.7184H29.1486Z"/>
<path d="M20.2523 32.9166C20.2523 32.8192 20.2882 32.7258 20.3521 32.6569C20.4161 32.5881 20.5028 32.5494 20.5932 32.5494C20.6836 32.5494 20.7703 32.5881 20.8342 32.6569C20.8982 32.7258 20.9341 32.8192 20.9341 32.9166C20.9341 33.014 20.8982 33.1074 20.8342 33.1762C20.7703 33.2451 20.6836 33.2838 20.5932 33.2838C20.5028 33.2838 20.4161 33.2451 20.3521 33.1762C20.2882 33.1074 20.2523 33.014 20.2523 32.9166ZM18.8886 32.9166C18.8886 32.8192 18.9246 32.7258 18.9885 32.6569C19.0524 32.5881 19.1391 32.5494 19.2295 32.5494C19.32 32.5494 19.4067 32.5881 19.4706 32.6569C19.5345 32.7258 19.5705 32.8192 19.5705 32.9166C19.5705 33.014 19.5345 33.1074 19.4706 33.1762C19.4067 33.2451 19.32 33.2838 19.2295 33.2838C19.1391 33.2838 19.0524 33.2451 18.9885 33.1762C18.9246 33.1074 18.8886 33.014 18.8886 32.9166ZM17.525 32.9166C17.525 32.8192 17.5609 32.7258 17.6249 32.6569C17.6888 32.5881 17.7755 32.5494 17.8659 32.5494C17.9563 32.5494 18.043 32.5881 18.107 32.6569C18.1709 32.7258 18.2068 32.8192 18.2068 32.9166C18.2068 33.014 18.1709 33.1074 18.107 33.1762C18.043 33.2451 17.9563 33.2838 17.8659 33.2838C17.7755 33.2838 17.6888 33.2451 17.6249 33.1762C17.5609 33.1074 17.525 33.014 17.525 32.9166ZM16.1614 32.9166C16.1614 32.8192 16.1973 32.7258 16.2612 32.6569C16.3251 32.5881 16.4119 32.5494 16.5023 32.5494C16.5927 32.5494 16.6794 32.5881 16.7433 32.6569C16.8073 32.7258 16.8432 32.8192 16.8432 32.9166C16.8432 33.014 16.8073 33.1074 16.7433 33.1762C16.6794 33.2451 16.5927 33.2838 16.5023 33.2838C16.4119 33.2838 16.3251 33.2451 16.2612 33.1762C16.1973 33.1074 16.1614 33.014 16.1614 32.9166ZM14.7977 32.9166C14.7977 32.8192 14.8336 32.7258 14.8976 32.6569C14.9615 32.5881 15.0482 32.5494 15.1386 32.5494C15.2291 32.5494 15.3158 32.5881 15.3797 32.6569C15.4436 32.7258 15.4795 32.8192 15.4795 32.9166C15.4795 33.014 15.4436 33.1074 15.3797 33.1762C15.3158 33.2451 15.2291 33.2838 15.1386 33.2838C15.0482 33.2838 14.9615 33.2451 14.8976 33.1762C14.8336 33.1074 14.7977 33.014 14.7977 32.9166ZM13.4341 32.9166C13.4341 32.8192 13.47 32.7258 13.5339 32.6569C13.5979 32.5881 13.6846 32.5494 13.775 32.5494C13.8654 32.5494 13.9521 32.5881 14.0161 32.6569C14.08 32.7258 14.1159 32.8192 14.1159 32.9166C14.1159 33.014 14.08 33.1074 14.0161 33.1762C13.9521 33.2451 13.8654 33.2838 13.775 33.2838C13.6846 33.2838 13.5979 33.2451 13.5339 33.1762C13.47 33.1074 13.4341 33.014 13.4341 32.9166Z"/>
</mask>
<path d="M9.52114 27.9519H3.16795C3.07754 27.9519 2.99083 27.9132 2.9269 27.8443C2.86296 27.7755 2.82705 27.6821 2.82705 27.5847C2.82705 27.4873 2.86296 27.3939 2.9269 27.325C2.99083 27.2561 3.07754 27.2174 3.16795 27.2174H9.52114C9.99023 27.2174 10.3864 26.6923 10.3864 26.071V25.7075C10.3864 25.0862 9.99023 24.561 9.52114 24.561H3.22727C3.13686 24.561 3.05015 24.5223 2.98621 24.4535C2.92228 24.3846 2.88636 24.2912 2.88636 24.1938C2.88636 24.0964 2.92228 24.003 2.98621 23.9342C3.05015 23.8653 3.13686 23.8266 3.22727 23.8266H9.52045C10.3734 23.8266 11.0675 24.6705 11.0675 25.7075V26.071C11.0682 27.108 10.3741 27.9519 9.52114 27.9519Z" fill="#AD5A40"/>
<path d="M5.29727 27.9394C5.20686 27.9394 5.12015 27.9007 5.05621 27.8318C4.99228 27.763 4.95636 27.6696 4.95636 27.5722V24.1938C4.95636 24.0964 4.99228 24.003 5.05621 23.9342C5.12015 23.8653 5.20686 23.8266 5.29727 23.8266C5.38769 23.8266 5.4744 23.8653 5.53833 23.9342C5.60226 24.003 5.63818 24.0964 5.63818 24.1938V27.5722C5.63818 27.6696 5.60226 27.763 5.53833 27.8318C5.4744 27.9007 5.38769 27.9394 5.29727 27.9394Z" fill="#AD5A40"/>
<path d="M31.3352 27.9519H24.9889C24.1366 27.9519 23.4432 27.108 23.4432 26.071V25.7075C23.4432 24.6705 24.1366 23.8266 24.9889 23.8266H31.2752C31.3656 23.8266 31.4524 23.8653 31.5163 23.9342C31.5802 24.003 31.6161 24.0964 31.6161 24.1938C31.6161 24.2912 31.5802 24.3846 31.5163 24.4535C31.4524 24.5223 31.3656 24.561 31.2752 24.561H24.9889C24.5205 24.561 24.125 25.0862 24.125 25.7075V26.071C24.125 26.6923 24.5205 27.2174 24.9889 27.2174H31.3352C31.4256 27.2174 31.5124 27.2561 31.5763 27.325C31.6402 27.3939 31.6761 27.4873 31.6761 27.5847C31.6761 27.6821 31.6402 27.7755 31.5763 27.8443C31.5124 27.9132 31.4256 27.9519 31.3352 27.9519Z" fill="#AD5A40"/>
<path d="M29.2086 27.9394C29.1182 27.9394 29.0315 27.9007 28.9676 27.8318C28.9036 27.763 28.8677 27.6696 28.8677 27.5722V24.1938C28.8677 24.0964 28.9036 24.003 28.9676 23.9342C29.0315 23.8653 29.1182 23.8266 29.2086 23.8266C29.2991 23.8266 29.3858 23.8653 29.4497 23.9342C29.5136 24.003 29.5495 24.0964 29.5495 24.1938V27.5722C29.5495 27.6696 29.5136 27.763 29.4497 27.8318C29.3858 27.9007 29.2991 27.9394 29.2086 27.9394Z" fill="#AD5A40"/>
<path d="M7.02705 37.0073H5.34091C4.37682 37.0073 3.59273 36.1429 3.59273 35.0809V32.9746C3.59273 32.8772 3.62864 32.7838 3.69258 32.7149C3.75651 32.6461 3.84322 32.6074 3.93364 32.6074C4.02405 32.6074 4.11076 32.6461 4.1747 32.7149C4.23863 32.7838 4.27455 32.8772 4.27455 32.9746V35.0787C4.27455 35.736 4.75182 36.2707 5.34091 36.2707H7.02909C7.61682 36.2707 8.09477 35.736 8.09477 35.0787V32.9746C8.09477 32.8772 8.13069 32.7838 8.19462 32.7149C8.25856 32.6461 8.34527 32.6074 8.43568 32.6074C8.5261 32.6074 8.61281 32.6461 8.67674 32.7149C8.74067 32.7838 8.77659 32.8772 8.77659 32.9746V35.0787C8.77455 36.1429 7.99046 37.0073 7.02705 37.0073Z" fill="#AD5A40"/>
<path d="M28.9918 37.0073H27.3036C26.3402 37.0073 25.5561 36.1429 25.5561 35.0809V33.098C25.5561 33.0006 25.5921 32.9072 25.656 32.8383C25.7199 32.7695 25.8066 32.7308 25.897 32.7308C25.9875 32.7308 26.0742 32.7695 26.1381 32.8383C26.202 32.9072 26.238 33.0006 26.238 33.098V35.0809C26.238 35.7382 26.7152 36.2729 27.3036 36.2729H28.9918C29.5795 36.2729 30.0575 35.7382 30.0575 35.0809V33.098C30.0575 33.0006 30.0934 32.9072 30.1573 32.8383C30.2213 32.7695 30.308 32.7308 30.3984 32.7308C30.4888 32.7308 30.5755 32.7695 30.6395 32.8383C30.7034 32.9072 30.7393 33.0006 30.7393 33.098V35.0809C30.7393 36.1429 29.9545 37.0073 28.9918 37.0073Z" fill="#AD5A40"/>
<path d="M1.48864 20.0855C1.22649 20.0853 0.97513 19.973 0.789764 19.7733C0.604398 19.5737 0.500181 19.3029 0.5 19.0205V14.3937C0.5 14.1112 0.60416 13.8404 0.789565 13.6407C0.97497 13.441 1.22643 13.3288 1.48864 13.3288C1.75084 13.3288 2.0023 13.441 2.18771 13.6407C2.37311 13.8404 2.47727 14.1112 2.47727 14.3937V19.0205C2.47709 19.3029 2.37287 19.5737 2.18751 19.7733C2.00214 19.973 1.75078 20.0853 1.48864 20.0855ZM1.48864 14.0632C1.40732 14.0634 1.32938 14.0983 1.27188 14.1602C1.21438 14.2221 1.182 14.3061 1.18182 14.3937V19.0205C1.18182 19.1082 1.21414 19.1923 1.27168 19.2542C1.32922 19.3162 1.40726 19.351 1.48864 19.351C1.57001 19.351 1.64805 19.3162 1.70559 19.2542C1.76313 19.1923 1.79545 19.1082 1.79545 19.0205V14.3937C1.79527 14.3061 1.76289 14.2221 1.70539 14.1602C1.64789 14.0983 1.56995 14.0634 1.48864 14.0632Z" fill="#AD5A40"/>
<path d="M1.52273 14.0632C1.43792 14.0636 1.356 14.03 1.29296 13.9689C1.22993 13.9078 1.1903 13.8236 1.18182 13.7327C1.18182 13.6967 1.10818 12.8514 1.64068 12.2198C2.00477 11.7865 2.54545 11.5669 3.24773 11.5669H6.33636C6.42678 11.5669 6.51349 11.6056 6.57742 11.6744C6.64136 11.7433 6.67727 11.8367 6.67727 11.9341C6.67727 12.0315 6.64136 12.1249 6.57742 12.1937C6.51349 12.2626 6.42678 12.3013 6.33636 12.3013H3.24909C2.74795 12.3013 2.37705 12.4401 2.14727 12.7126C1.82068 13.0996 1.86364 13.6548 1.86364 13.6592C1.86806 13.7073 1.86365 13.7558 1.85065 13.802C1.83766 13.8482 1.81633 13.8912 1.7879 13.9285C1.75946 13.9658 1.72448 13.9967 1.68495 14.0194C1.64541 14.0422 1.6021 14.0563 1.5575 14.061L1.52273 14.0632Z" fill="#AD5A40"/>
<path d="M33.2614 20.0855C32.9992 20.0853 32.7479 19.973 32.5625 19.7733C32.3771 19.5737 32.2729 19.3029 32.2727 19.0205V14.3937C32.2727 14.1112 32.3769 13.8404 32.5623 13.6407C32.7477 13.441 32.9992 13.3288 33.2614 13.3288C33.5236 13.3288 33.775 13.441 33.9604 13.6407C34.1458 13.8404 34.25 14.1112 34.25 14.3937V19.0205C34.2498 19.3029 34.1456 19.5737 33.9602 19.7733C33.7749 19.973 33.5235 20.0853 33.2614 20.0855ZM33.2614 14.0632C33.18 14.0634 33.1021 14.0983 33.0446 14.1602C32.9871 14.2221 32.9547 14.3061 32.9545 14.3937V19.0205C32.9545 19.1082 32.9869 19.1923 33.0444 19.2542C33.102 19.3162 33.18 19.351 33.2614 19.351C33.3427 19.351 33.4208 19.3162 33.4783 19.2542C33.5359 19.1923 33.5682 19.1082 33.5682 19.0205V14.3937C33.568 14.3061 33.5356 14.2221 33.4781 14.1602C33.4206 14.0983 33.3427 14.0634 33.2614 14.0632Z" fill="#AD5A40"/>
<path d="M33.2273 14.0632H33.1932C33.1483 14.0586 33.1048 14.0445 33.065 14.0216C33.0252 13.9988 32.9901 13.9677 32.9616 13.9301C32.933 13.8926 32.9117 13.8493 32.8988 13.8028C32.8859 13.7563 32.8817 13.7075 32.8864 13.6592C32.8864 13.6453 32.9252 13.0886 32.598 12.7045C32.3675 12.4342 31.998 12.2976 31.4995 12.2976H28.1586C28.0682 12.2976 27.9815 12.2589 27.9176 12.1901C27.8536 12.1212 27.8177 12.0278 27.8177 11.9304C27.8177 11.833 27.8536 11.7396 27.9176 11.6708C27.9815 11.6019 28.0682 11.5632 28.1586 11.5632H31.4995C32.2018 11.5632 32.7425 11.7835 33.1066 12.2161C33.6405 12.8514 33.5682 13.696 33.5682 13.7327C33.5597 13.8236 33.5201 13.9078 33.457 13.9689C33.394 14.03 33.3121 14.0636 33.2273 14.0632Z" fill="#AD5A40"/>
<path d="M30.3295 21.9112C30.2391 21.9112 30.1524 21.8725 30.0885 21.8037C30.0246 21.7348 29.9886 21.6414 29.9886 21.544V2.10382C29.9886 1.91067 29.8755 1.74175 29.7473 1.74175H4.81318C4.685 1.74175 4.57182 1.91067 4.57182 2.10382V21.4831C4.57182 21.5805 4.5359 21.6739 4.47197 21.7427C4.40804 21.8116 4.32132 21.8503 4.23091 21.8503C4.14049 21.8503 4.05378 21.8116 3.98985 21.7427C3.92592 21.6739 3.89 21.5805 3.89 21.4831V2.10382C3.89 1.49939 4.30455 1.00732 4.81318 1.00732H29.75C30.2586 1.00732 30.6732 1.49939 30.6732 2.10382V21.544C30.6732 21.5925 30.6643 21.6405 30.647 21.6852C30.6297 21.73 30.6043 21.7706 30.5724 21.8047C30.5404 21.8389 30.5025 21.8659 30.4608 21.8841C30.4192 21.9024 30.3745 21.9116 30.3295 21.9112Z" fill="#AD5A40"/>
<path d="M22.6932 29.8658C22.6028 29.8658 22.5161 29.8271 22.4521 29.7582C22.3882 29.6894 22.3523 29.596 22.3523 29.4986V21.591H12.0568V29.4986C12.0568 29.596 12.0209 29.6894 11.957 29.7582C11.893 29.8271 11.8063 29.8658 11.7159 29.8658C11.6255 29.8658 11.5388 29.8271 11.4748 29.7582C11.4109 29.6894 11.375 29.596 11.375 29.4986V21.2238C11.375 21.1264 11.4109 21.033 11.4748 20.9642C11.5388 20.8953 11.6255 20.8566 11.7159 20.8566H22.6932C22.7836 20.8566 22.8703 20.8953 22.9342 20.9642C22.9982 21.033 23.0341 21.1264 23.0341 21.2238V29.4986C23.0341 29.596 22.9982 29.6894 22.9342 29.7582C22.8703 29.8271 22.7836 29.8658 22.6932 29.8658Z" fill="#AD5A40"/>
<path d="M31.8295 33.3051H22.1082C22.0178 33.3051 21.9311 33.2664 21.8671 33.1975C21.8032 33.1287 21.7673 33.0353 21.7673 32.9379C21.7673 32.8405 21.8032 32.7471 21.8671 32.6782C21.9311 32.6094 22.0178 32.5707 22.1082 32.5707H31.8295C31.92 32.5707 32.0067 32.532 32.0706 32.4631C32.1345 32.3942 32.1705 32.3008 32.1705 32.2035V30.294C32.1705 30.1966 32.1345 30.1032 32.0706 30.0343C32.0067 29.9654 31.92 29.9267 31.8295 29.9267H2.45341C2.36299 29.9267 2.27628 29.9654 2.21235 30.0343C2.14842 30.1032 2.1125 30.1966 2.1125 30.294V32.2035C2.1125 32.3008 2.14842 32.3942 2.21235 32.4631C2.27628 32.532 2.36299 32.5707 2.45341 32.5707H12.1932C12.2836 32.5707 12.3703 32.6094 12.4342 32.6782C12.4982 32.7471 12.5341 32.8405 12.5341 32.9379C12.5341 33.0353 12.4982 33.1287 12.4342 33.1975C12.3703 33.2664 12.2836 33.3051 12.1932 33.3051H2.45341C2.18217 33.3051 1.92203 33.189 1.73023 32.9824C1.53843 32.7758 1.43068 32.4956 1.43068 32.2035V30.294C1.43068 30.0018 1.53843 29.7216 1.73023 29.515C1.92203 29.3084 2.18217 29.1923 2.45341 29.1923H31.8295C32.1008 29.1923 32.3609 29.3084 32.5527 29.515C32.7445 29.7216 32.8523 30.0018 32.8523 30.294V32.2035C32.8523 32.4956 32.7445 32.7758 32.5527 32.9824C32.3609 33.189 32.1008 33.3051 31.8295 33.3051Z" fill="#AD5A40"/>
<path d="M31.4259 29.8658C31.3355 29.8658 31.2488 29.8271 31.1849 29.7582C31.1209 29.6894 31.085 29.596 31.085 29.4986V23.6724C31.085 23.665 31.0986 22.7911 30.5811 22.2197C30.2689 21.876 29.8155 21.7012 29.2332 21.7012H28.1593C28.0689 21.7012 27.9822 21.6625 27.9183 21.5936C27.8543 21.5248 27.8184 21.4314 27.8184 21.334V10.7583C27.8184 10.7465 27.8518 9.46422 27.0357 8.555C26.4684 7.92119 25.6175 7.60025 24.5061 7.60025H9.98955C8.87477 7.60025 8.0225 7.9234 7.45523 8.56088C6.63705 9.47964 6.67659 10.7487 6.67727 10.7641V20.424L6.65886 21.3421C6.6569 21.438 6.62012 21.5294 6.5564 21.5965C6.49268 21.6636 6.40708 21.7012 6.31796 21.7012H5.24409C4.65977 21.7012 4.205 21.8767 3.89273 22.2241C3.38136 22.7925 3.39159 23.6643 3.39227 23.6724V29.4986C3.39227 29.596 3.35636 29.6894 3.29242 29.7582C3.22849 29.8271 3.14178 29.8658 3.05136 29.8658C2.96095 29.8658 2.87424 29.8271 2.8103 29.7582C2.74637 29.6894 2.71045 29.596 2.71045 29.4986V23.6885C2.71045 23.5798 2.70636 22.487 3.40318 21.7129C3.84841 21.2179 4.46818 20.9668 5.24409 20.9668H5.98455L5.99545 20.416V10.7832C5.99136 10.6364 5.975 9.16237 6.96295 8.05265C7.66386 7.26535 8.68182 6.86583 9.98955 6.86583H24.5055C25.8132 6.86583 26.8311 7.26535 27.532 8.05265C28.52 9.16237 28.503 10.64 28.4995 10.7832V20.9668H29.2332C30.0091 20.9668 30.6289 21.2179 31.0741 21.7129C31.7709 22.487 31.7689 23.5784 31.7668 23.6885V29.4986C31.7668 29.596 31.7309 29.6894 31.667 29.7582C31.603 29.8271 31.5163 29.8658 31.4259 29.8658Z" fill="#AD5A40"/>
<path d="M22.0509 35.2205H12.2327C12.1423 35.2205 12.0556 35.1818 11.9917 35.1129C11.9277 35.044 11.8918 34.9506 11.8918 34.8533V30.9983C11.8918 30.9009 11.9277 30.8075 11.9917 30.7386C12.0556 30.6697 12.1423 30.6311 12.2327 30.6311H22.0509C22.1413 30.6311 22.228 30.6697 22.292 30.7386C22.3559 30.8075 22.3918 30.9009 22.3918 30.9983V34.8533C22.3918 34.9506 22.3559 35.044 22.292 35.1129C22.228 35.1818 22.1413 35.2205 22.0509 35.2205ZM12.5736 34.486H21.71V31.3655H12.5736V34.486Z" fill="#AD5A40"/>
<path d="M28.0339 10.6011H6.45159C6.36118 10.6011 6.27446 10.5624 6.21053 10.4936C6.1466 10.4247 6.11068 10.3313 6.11068 10.2339C6.11068 10.1365 6.1466 10.0431 6.21053 9.97424C6.27446 9.90537 6.36118 9.86668 6.45159 9.86668H28.0339C28.1243 9.86668 28.211 9.90537 28.2749 9.97424C28.3389 10.0431 28.3748 10.1365 28.3748 10.2339C28.3748 10.3313 28.3389 10.4247 28.2749 10.4936C28.211 10.5624 28.1243 10.6011 28.0339 10.6011Z" fill="#AD5A40"/>
<path d="M28.0339 19.351H6.45159C6.36118 19.351 6.27446 19.3123 6.21053 19.2435C6.1466 19.1746 6.11068 19.0812 6.11068 18.9838C6.11068 18.8864 6.1466 18.793 6.21053 18.7242C6.27446 18.6553 6.36118 18.6166 6.45159 18.6166H28.0339C28.1243 18.6166 28.211 18.6553 28.2749 18.7242C28.3389 18.793 28.3748 18.8864 28.3748 18.9838C28.3748 19.0812 28.3389 19.1746 28.2749 19.2435C28.211 19.3123 28.1243 19.351 28.0339 19.351Z" fill="#AD5A40"/>
<path d="M12.693 4.99304H12.6589C12.5684 4.99304 12.4817 4.95436 12.4178 4.88549C12.3539 4.81662 12.318 4.72322 12.318 4.62583C12.318 4.52844 12.3539 4.43504 12.4178 4.36617C12.4817 4.29731 12.5684 4.25862 12.6589 4.25862H12.693C12.7834 4.25862 12.8701 4.29731 12.934 4.36617C12.9979 4.43504 13.0339 4.52844 13.0339 4.62583C13.0339 4.72322 12.9979 4.81662 12.934 4.88549C12.8701 4.95436 12.7834 4.99304 12.693 4.99304Z" fill="#AD5A40"/>
<path d="M20.8332 4.99304H20.765C20.6746 4.99304 20.5879 4.95436 20.5239 4.88549C20.46 4.81662 20.4241 4.72322 20.4241 4.62583C20.4241 4.52844 20.46 4.43504 20.5239 4.36617C20.5879 4.29731 20.6746 4.25862 20.765 4.25862H20.8332C20.9236 4.25862 21.0103 4.29731 21.0742 4.36617C21.1382 4.43504 21.1741 4.52844 21.1741 4.62583C21.1741 4.72322 21.1382 4.81662 21.0742 4.88549C21.0103 4.95436 20.9236 4.99304 20.8332 4.99304ZM19.4764 4.99304H19.4116C19.3212 4.99304 19.2345 4.95436 19.1705 4.88549C19.1066 4.81662 19.0707 4.72322 19.0707 4.62583C19.0707 4.52844 19.1066 4.43504 19.1705 4.36617C19.2345 4.29731 19.3212 4.25862 19.4116 4.25862H19.4764C19.5668 4.25862 19.6535 4.29731 19.7174 4.36617C19.7814 4.43504 19.8173 4.52844 19.8173 4.62583C19.8173 4.72322 19.7814 4.81662 19.7174 4.88549C19.6535 4.95436 19.5668 4.99304 19.4764 4.99304ZM18.1195 4.99304H18.0555C17.965 4.99304 17.8783 4.95436 17.8144 4.88549C17.7505 4.81662 17.7145 4.72322 17.7145 4.62583C17.7145 4.52844 17.7505 4.43504 17.8144 4.36617C17.8783 4.29731 17.965 4.25862 18.0555 4.25862H18.1195C18.21 4.25862 18.2967 4.29731 18.3606 4.36617C18.4245 4.43504 18.4605 4.52844 18.4605 4.62583C18.4605 4.72322 18.4245 4.81662 18.3606 4.88549C18.2967 4.95436 18.21 4.99304 18.1195 4.99304ZM16.7634 4.99304H16.6986C16.6082 4.99304 16.5215 4.95436 16.4576 4.88549C16.3936 4.81662 16.3577 4.72322 16.3577 4.62583C16.3577 4.52844 16.3936 4.43504 16.4576 4.36617C16.5215 4.29731 16.6082 4.25862 16.6986 4.25862H16.7634C16.8538 4.25862 16.9405 4.29731 17.0045 4.36617C17.0684 4.43504 17.1043 4.52844 17.1043 4.62583C17.1043 4.72322 17.0684 4.81662 17.0045 4.88549C16.9405 4.95436 16.8538 4.99304 16.7634 4.99304ZM15.4066 4.99304H15.3418C15.2514 4.99304 15.1647 4.95436 15.1008 4.88549C15.0368 4.81662 15.0009 4.72322 15.0009 4.62583C15.0009 4.52844 15.0368 4.43504 15.1008 4.36617C15.1647 4.29731 15.2514 4.25862 15.3418 4.25862H15.4066C15.497 4.25862 15.5837 4.29731 15.6476 4.36617C15.7116 4.43504 15.7475 4.52844 15.7475 4.62583C15.7475 4.72322 15.7116 4.81662 15.6476 4.88549C15.5837 4.95436 15.497 4.99304 15.4066 4.99304ZM14.0498 4.99304H13.985C13.8946 4.99304 13.8079 4.95436 13.7439 4.88549C13.68 4.81662 13.6441 4.72322 13.6441 4.62583C13.6441 4.52844 13.68 4.43504 13.7439 4.36617C13.8079 4.29731 13.8946 4.25862 13.985 4.25862H14.0498C14.1402 4.25862 14.2269 4.29731 14.2908 4.36617C14.3548 4.43504 14.3907 4.52844 14.3907 4.62583C14.3907 4.72322 14.3548 4.81662 14.2908 4.88549C14.2269 4.95436 14.1402 4.99304 14.0498 4.99304Z" fill="#AD5A40"/>
<path d="M22.1593 4.99304H22.1252C22.0348 4.99304 21.9481 4.95436 21.8842 4.88549C21.8202 4.81662 21.7843 4.72322 21.7843 4.62583C21.7843 4.52844 21.8202 4.43504 21.8842 4.36617C21.9481 4.29731 22.0348 4.25862 22.1252 4.25862H22.1593C22.2497 4.25862 22.3364 4.29731 22.4004 4.36617C22.4643 4.43504 22.5002 4.52844 22.5002 4.62583C22.5002 4.72322 22.4643 4.81662 22.4004 4.88549C22.3364 4.95436 22.2497 4.99304 22.1593 4.99304Z" fill="#AD5A40"/>
<path d="M3.98545 34.3531C3.89504 34.3531 3.80833 34.3144 3.7444 34.2456C3.68046 34.1767 3.64455 34.0833 3.64455 33.9859C3.64455 33.8885 3.68046 33.7951 3.7444 33.7262C3.80833 33.6574 3.89504 33.6187 3.98545 33.6187H5.16909C5.25951 33.6187 5.34622 33.6574 5.41015 33.7262C5.47408 33.7951 5.51 33.8885 5.51 33.9859C5.51 34.0833 5.47408 34.1767 5.41015 34.2456C5.34622 34.3144 5.25951 34.3531 5.16909 34.3531H3.98545Z" fill="#AD5A40"/>
<path d="M3.97045 35.7184C3.88004 35.7184 3.79333 35.6797 3.7294 35.6109C3.66546 35.542 3.62955 35.4486 3.62955 35.3512C3.62955 35.2538 3.66546 35.1604 3.7294 35.0915C3.79333 35.0227 3.88004 34.984 3.97045 34.984H5.18545C5.27587 34.984 5.36258 35.0227 5.42651 35.0915C5.49045 35.1604 5.52636 35.2538 5.52636 35.3512C5.52636 35.4486 5.49045 35.542 5.42651 35.6109C5.36258 35.6797 5.27587 35.7184 5.18545 35.7184H3.97045Z" fill="#AD5A40"/>
<path d="M7.19 34.3531C7.09959 34.3531 7.01287 34.3144 6.94894 34.2456C6.88501 34.1767 6.84909 34.0833 6.84909 33.9859C6.84909 33.8885 6.88501 33.7951 6.94894 33.7262C7.01287 33.6574 7.09959 33.6187 7.19 33.6187H8.37364C8.46405 33.6187 8.55076 33.6574 8.6147 33.7262C8.67863 33.7951 8.71455 33.8885 8.71455 33.9859C8.71455 34.0833 8.67863 34.1767 8.6147 34.2456C8.55076 34.3144 8.46405 34.3531 8.37364 34.3531H7.19Z" fill="#AD5A40"/>
<path d="M7.175 35.7184C7.08459 35.7184 6.99787 35.6797 6.93394 35.6109C6.87001 35.542 6.83409 35.4486 6.83409 35.3512C6.83409 35.2538 6.87001 35.1604 6.93394 35.0915C6.99787 35.0227 7.08459 34.984 7.175 34.984H8.39C8.48041 34.984 8.56713 35.0227 8.63106 35.0915C8.69499 35.1604 8.73091 35.2538 8.73091 35.3512C8.73091 35.4486 8.69499 35.542 8.63106 35.6109C8.56713 35.6797 8.48041 35.7184 8.39 35.7184H7.175Z" fill="#AD5A40"/>
<path d="M25.9673 34.3531C25.8769 34.3531 25.7901 34.3144 25.7262 34.2456C25.6623 34.1767 25.6264 34.0833 25.6264 33.9859C25.6264 33.8885 25.6623 33.7951 25.7262 33.7262C25.7901 33.6574 25.8769 33.6187 25.9673 33.6187H27.1264C27.2168 33.6187 27.3035 33.6574 27.3674 33.7262C27.4314 33.7951 27.4673 33.8885 27.4673 33.9859C27.4673 34.0833 27.4314 34.1767 27.3674 34.2456C27.3035 34.3144 27.2168 34.3531 27.1264 34.3531H25.9673Z" fill="#AD5A40"/>
<path d="M25.9523 35.7184C25.8619 35.7184 25.7751 35.6797 25.7112 35.6109C25.6473 35.542 25.6114 35.4486 25.6114 35.3512C25.6114 35.2538 25.6473 35.1604 25.7112 35.0915C25.7751 35.0227 25.8619 34.984 25.9523 34.984H27.1386C27.2291 34.984 27.3158 35.0227 27.3797 35.0915C27.4436 35.1604 27.4795 35.2538 27.4795 35.3512C27.4795 35.4486 27.4436 35.542 27.3797 35.6109C27.3158 35.6797 27.2291 35.7184 27.1386 35.7184H25.9523Z" fill="#AD5A40"/>
<path d="M29.1636 34.3531C29.0732 34.3531 28.9865 34.3144 28.9226 34.2456C28.8586 34.1767 28.8227 34.0833 28.8227 33.9859C28.8227 33.8885 28.8586 33.7951 28.9226 33.7262C28.9865 33.6574 29.0732 33.6187 29.1636 33.6187H30.3227C30.4131 33.6187 30.4999 33.6574 30.5638 33.7262C30.6277 33.7951 30.6636 33.8885 30.6636 33.9859C30.6636 34.0833 30.6277 34.1767 30.5638 34.2456C30.4999 34.3144 30.4131 34.3531 30.3227 34.3531H29.1636Z" fill="#AD5A40"/>
<path d="M29.1486 35.7184C29.0582 35.7184 28.9715 35.6797 28.9076 35.6109C28.8436 35.542 28.8077 35.4486 28.8077 35.3512C28.8077 35.2538 28.8436 35.1604 28.9076 35.0915C28.9715 35.0227 29.0582 34.984 29.1486 34.984H30.335C30.4254 34.984 30.5121 35.0227 30.5761 35.0915C30.64 35.1604 30.6759 35.2538 30.6759 35.3512C30.6759 35.4486 30.64 35.542 30.5761 35.6109C30.5121 35.6797 30.4254 35.7184 30.335 35.7184H29.1486Z" fill="#AD5A40"/>
<path d="M20.2523 32.9166C20.2523 32.8192 20.2882 32.7258 20.3521 32.6569C20.4161 32.5881 20.5028 32.5494 20.5932 32.5494C20.6836 32.5494 20.7703 32.5881 20.8342 32.6569C20.8982 32.7258 20.9341 32.8192 20.9341 32.9166C20.9341 33.014 20.8982 33.1074 20.8342 33.1762C20.7703 33.2451 20.6836 33.2838 20.5932 33.2838C20.5028 33.2838 20.4161 33.2451 20.3521 33.1762C20.2882 33.1074 20.2523 33.014 20.2523 32.9166ZM18.8886 32.9166C18.8886 32.8192 18.9246 32.7258 18.9885 32.6569C19.0524 32.5881 19.1391 32.5494 19.2295 32.5494C19.32 32.5494 19.4067 32.5881 19.4706 32.6569C19.5345 32.7258 19.5705 32.8192 19.5705 32.9166C19.5705 33.014 19.5345 33.1074 19.4706 33.1762C19.4067 33.2451 19.32 33.2838 19.2295 33.2838C19.1391 33.2838 19.0524 33.2451 18.9885 33.1762C18.9246 33.1074 18.8886 33.014 18.8886 32.9166ZM17.525 32.9166C17.525 32.8192 17.5609 32.7258 17.6249 32.6569C17.6888 32.5881 17.7755 32.5494 17.8659 32.5494C17.9563 32.5494 18.043 32.5881 18.107 32.6569C18.1709 32.7258 18.2068 32.8192 18.2068 32.9166C18.2068 33.014 18.1709 33.1074 18.107 33.1762C18.043 33.2451 17.9563 33.2838 17.8659 33.2838C17.7755 33.2838 17.6888 33.2451 17.6249 33.1762C17.5609 33.1074 17.525 33.014 17.525 32.9166ZM16.1614 32.9166C16.1614 32.8192 16.1973 32.7258 16.2612 32.6569C16.3251 32.5881 16.4119 32.5494 16.5023 32.5494C16.5927 32.5494 16.6794 32.5881 16.7433 32.6569C16.8073 32.7258 16.8432 32.8192 16.8432 32.9166C16.8432 33.014 16.8073 33.1074 16.7433 33.1762C16.6794 33.2451 16.5927 33.2838 16.5023 33.2838C16.4119 33.2838 16.3251 33.2451 16.2612 33.1762C16.1973 33.1074 16.1614 33.014 16.1614 32.9166ZM14.7977 32.9166C14.7977 32.8192 14.8336 32.7258 14.8976 32.6569C14.9615 32.5881 15.0482 32.5494 15.1386 32.5494C15.2291 32.5494 15.3158 32.5881 15.3797 32.6569C15.4436 32.7258 15.4795 32.8192 15.4795 32.9166C15.4795 33.014 15.4436 33.1074 15.3797 33.1762C15.3158 33.2451 15.2291 33.2838 15.1386 33.2838C15.0482 33.2838 14.9615 33.2451 14.8976 33.1762C14.8336 33.1074 14.7977 33.014 14.7977 32.9166ZM13.4341 32.9166C13.4341 32.8192 13.47 32.7258 13.5339 32.6569C13.5979 32.5881 13.6846 32.5494 13.775 32.5494C13.8654 32.5494 13.9521 32.5881 14.0161 32.6569C14.08 32.7258 14.1159 32.8192 14.1159 32.9166C14.1159 33.014 14.08 33.1074 14.0161 33.1762C13.9521 33.2451 13.8654 33.2838 13.775 33.2838C13.6846 33.2838 13.5979 33.2451 13.5339 33.1762C13.47 33.1074 13.4341 33.014 13.4341 32.9166Z" fill="#AD5A40"/>
<path d="M9.52114 27.9519H3.16795C3.07754 27.9519 2.99083 27.9132 2.9269 27.8443C2.86296 27.7755 2.82705 27.6821 2.82705 27.5847C2.82705 27.4873 2.86296 27.3939 2.9269 27.325C2.99083 27.2561 3.07754 27.2174 3.16795 27.2174H9.52114C9.99023 27.2174 10.3864 26.6923 10.3864 26.071V25.7075C10.3864 25.0862 9.99023 24.561 9.52114 24.561H3.22727C3.13686 24.561 3.05015 24.5223 2.98621 24.4535C2.92228 24.3846 2.88636 24.2912 2.88636 24.1938C2.88636 24.0964 2.92228 24.003 2.98621 23.9342C3.05015 23.8653 3.13686 23.8266 3.22727 23.8266H9.52045C10.3734 23.8266 11.0675 24.6705 11.0675 25.7075V26.071C11.0682 27.108 10.3741 27.9519 9.52114 27.9519Z" stroke="#AD5A40" stroke-width="0.6" mask="url(#path-1-outside-1_250_4498)"/>
<path d="M5.29727 27.9394C5.20686 27.9394 5.12015 27.9007 5.05621 27.8318C4.99228 27.763 4.95636 27.6696 4.95636 27.5722V24.1938C4.95636 24.0964 4.99228 24.003 5.05621 23.9342C5.12015 23.8653 5.20686 23.8266 5.29727 23.8266C5.38769 23.8266 5.4744 23.8653 5.53833 23.9342C5.60226 24.003 5.63818 24.0964 5.63818 24.1938V27.5722C5.63818 27.6696 5.60226 27.763 5.53833 27.8318C5.4744 27.9007 5.38769 27.9394 5.29727 27.9394Z" stroke="#AD5A40" stroke-width="0.6" mask="url(#path-1-outside-1_250_4498)"/>
<path d="M31.3352 27.9519H24.9889C24.1366 27.9519 23.4432 27.108 23.4432 26.071V25.7075C23.4432 24.6705 24.1366 23.8266 24.9889 23.8266H31.2752C31.3656 23.8266 31.4524 23.8653 31.5163 23.9342C31.5802 24.003 31.6161 24.0964 31.6161 24.1938C31.6161 24.2912 31.5802 24.3846 31.5163 24.4535C31.4524 24.5223 31.3656 24.561 31.2752 24.561H24.9889C24.5205 24.561 24.125 25.0862 24.125 25.7075V26.071C24.125 26.6923 24.5205 27.2174 24.9889 27.2174H31.3352C31.4256 27.2174 31.5124 27.2561 31.5763 27.325C31.6402 27.3939 31.6761 27.4873 31.6761 27.5847C31.6761 27.6821 31.6402 27.7755 31.5763 27.8443C31.5124 27.9132 31.4256 27.9519 31.3352 27.9519Z" stroke="#AD5A40" stroke-width="0.6" mask="url(#path-1-outside-1_250_4498)"/>
<path d="M29.2086 27.9394C29.1182 27.9394 29.0315 27.9007 28.9676 27.8318C28.9036 27.763 28.8677 27.6696 28.8677 27.5722V24.1938C28.8677 24.0964 28.9036 24.003 28.9676 23.9342C29.0315 23.8653 29.1182 23.8266 29.2086 23.8266C29.2991 23.8266 29.3858 23.8653 29.4497 23.9342C29.5136 24.003 29.5495 24.0964 29.5495 24.1938V27.5722C29.5495 27.6696 29.5136 27.763 29.4497 27.8318C29.3858 27.9007 29.2991 27.9394 29.2086 27.9394Z" stroke="#AD5A40" stroke-width="0.6" mask="url(#path-1-outside-1_250_4498)"/>
<path d="M7.02705 37.0073H5.34091C4.37682 37.0073 3.59273 36.1429 3.59273 35.0809V32.9746C3.59273 32.8772 3.62864 32.7838 3.69258 32.7149C3.75651 32.6461 3.84322 32.6074 3.93364 32.6074C4.02405 32.6074 4.11076 32.6461 4.1747 32.7149C4.23863 32.7838 4.27455 32.8772 4.27455 32.9746V35.0787C4.27455 35.736 4.75182 36.2707 5.34091 36.2707H7.02909C7.61682 36.2707 8.09477 35.736 8.09477 35.0787V32.9746C8.09477 32.8772 8.13069 32.7838 8.19462 32.7149C8.25856 32.6461 8.34527 32.6074 8.43568 32.6074C8.5261 32.6074 8.61281 32.6461 8.67674 32.7149C8.74067 32.7838 8.77659 32.8772 8.77659 32.9746V35.0787C8.77455 36.1429 7.99046 37.0073 7.02705 37.0073Z" stroke="#AD5A40" stroke-width="0.6" mask="url(#path-1-outside-1_250_4498)"/>
<path d="M28.9918 37.0073H27.3036C26.3402 37.0073 25.5561 36.1429 25.5561 35.0809V33.098C25.5561 33.0006 25.5921 32.9072 25.656 32.8383C25.7199 32.7695 25.8066 32.7308 25.897 32.7308C25.9875 32.7308 26.0742 32.7695 26.1381 32.8383C26.202 32.9072 26.238 33.0006 26.238 33.098V35.0809C26.238 35.7382 26.7152 36.2729 27.3036 36.2729H28.9918C29.5795 36.2729 30.0575 35.7382 30.0575 35.0809V33.098C30.0575 33.0006 30.0934 32.9072 30.1573 32.8383C30.2213 32.7695 30.308 32.7308 30.3984 32.7308C30.4888 32.7308 30.5755 32.7695 30.6395 32.8383C30.7034 32.9072 30.7393 33.0006 30.7393 33.098V35.0809C30.7393 36.1429 29.9545 37.0073 28.9918 37.0073Z" stroke="#AD5A40" stroke-width="0.6" mask="url(#path-1-outside-1_250_4498)"/>
<path d="M1.48864 20.0855C1.22649 20.0853 0.97513 19.973 0.789764 19.7733C0.604398 19.5737 0.500181 19.3029 0.5 19.0205V14.3937C0.5 14.1112 0.60416 13.8404 0.789565 13.6407C0.97497 13.441 1.22643 13.3288 1.48864 13.3288C1.75084 13.3288 2.0023 13.441 2.18771 13.6407C2.37311 13.8404 2.47727 14.1112 2.47727 14.3937V19.0205C2.47709 19.3029 2.37287 19.5737 2.18751 19.7733C2.00214 19.973 1.75078 20.0853 1.48864 20.0855ZM1.48864 14.0632C1.40732 14.0634 1.32938 14.0983 1.27188 14.1602C1.21438 14.2221 1.182 14.3061 1.18182 14.3937V19.0205C1.18182 19.1082 1.21414 19.1923 1.27168 19.2542C1.32922 19.3162 1.40726 19.351 1.48864 19.351C1.57001 19.351 1.64805 19.3162 1.70559 19.2542C1.76313 19.1923 1.79545 19.1082 1.79545 19.0205V14.3937C1.79527 14.3061 1.76289 14.2221 1.70539 14.1602C1.64789 14.0983 1.56995 14.0634 1.48864 14.0632Z" stroke="#AD5A40" stroke-width="0.6" mask="url(#path-1-outside-1_250_4498)"/>
<path d="M1.52273 14.0632C1.43792 14.0636 1.356 14.03 1.29296 13.9689C1.22993 13.9078 1.1903 13.8236 1.18182 13.7327C1.18182 13.6967 1.10818 12.8514 1.64068 12.2198C2.00477 11.7865 2.54545 11.5669 3.24773 11.5669H6.33636C6.42678 11.5669 6.51349 11.6056 6.57742 11.6744C6.64136 11.7433 6.67727 11.8367 6.67727 11.9341C6.67727 12.0315 6.64136 12.1249 6.57742 12.1937C6.51349 12.2626 6.42678 12.3013 6.33636 12.3013H3.24909C2.74795 12.3013 2.37705 12.4401 2.14727 12.7126C1.82068 13.0996 1.86364 13.6548 1.86364 13.6592C1.86806 13.7073 1.86365 13.7558 1.85065 13.802C1.83766 13.8482 1.81633 13.8912 1.7879 13.9285C1.75946 13.9658 1.72448 13.9967 1.68495 14.0194C1.64541 14.0422 1.6021 14.0563 1.5575 14.061L1.52273 14.0632Z" stroke="#AD5A40" stroke-width="0.6" mask="url(#path-1-outside-1_250_4498)"/>
<path d="M33.2614 20.0855C32.9992 20.0853 32.7479 19.973 32.5625 19.7733C32.3771 19.5737 32.2729 19.3029 32.2727 19.0205V14.3937C32.2727 14.1112 32.3769 13.8404 32.5623 13.6407C32.7477 13.441 32.9992 13.3288 33.2614 13.3288C33.5236 13.3288 33.775 13.441 33.9604 13.6407C34.1458 13.8404 34.25 14.1112 34.25 14.3937V19.0205C34.2498 19.3029 34.1456 19.5737 33.9602 19.7733C33.7749 19.973 33.5235 20.0853 33.2614 20.0855ZM33.2614 14.0632C33.18 14.0634 33.1021 14.0983 33.0446 14.1602C32.9871 14.2221 32.9547 14.3061 32.9545 14.3937V19.0205C32.9545 19.1082 32.9869 19.1923 33.0444 19.2542C33.102 19.3162 33.18 19.351 33.2614 19.351C33.3427 19.351 33.4208 19.3162 33.4783 19.2542C33.5359 19.1923 33.5682 19.1082 33.5682 19.0205V14.3937C33.568 14.3061 33.5356 14.2221 33.4781 14.1602C33.4206 14.0983 33.3427 14.0634 33.2614 14.0632Z" stroke="#AD5A40" stroke-width="0.6" mask="url(#path-1-outside-1_250_4498)"/>
<path d="M33.2273 14.0632H33.1932C33.1483 14.0586 33.1048 14.0445 33.065 14.0216C33.0252 13.9988 32.9901 13.9677 32.9616 13.9301C32.933 13.8926 32.9117 13.8493 32.8988 13.8028C32.8859 13.7563 32.8817 13.7075 32.8864 13.6592C32.8864 13.6453 32.9252 13.0886 32.598 12.7045C32.3675 12.4342 31.998 12.2976 31.4995 12.2976H28.1586C28.0682 12.2976 27.9815 12.2589 27.9176 12.1901C27.8536 12.1212 27.8177 12.0278 27.8177 11.9304C27.8177 11.833 27.8536 11.7396 27.9176 11.6708C27.9815 11.6019 28.0682 11.5632 28.1586 11.5632H31.4995C32.2018 11.5632 32.7425 11.7835 33.1066 12.2161C33.6405 12.8514 33.5682 13.696 33.5682 13.7327C33.5597 13.8236 33.5201 13.9078 33.457 13.9689C33.394 14.03 33.3121 14.0636 33.2273 14.0632Z" stroke="#AD5A40" stroke-width="0.6" mask="url(#path-1-outside-1_250_4498)"/>
<path d="M30.3295 21.9112C30.2391 21.9112 30.1524 21.8725 30.0885 21.8037C30.0246 21.7348 29.9886 21.6414 29.9886 21.544V2.10382C29.9886 1.91067 29.8755 1.74175 29.7473 1.74175H4.81318C4.685 1.74175 4.57182 1.91067 4.57182 2.10382V21.4831C4.57182 21.5805 4.5359 21.6739 4.47197 21.7427C4.40804 21.8116 4.32132 21.8503 4.23091 21.8503C4.14049 21.8503 4.05378 21.8116 3.98985 21.7427C3.92592 21.6739 3.89 21.5805 3.89 21.4831V2.10382C3.89 1.49939 4.30455 1.00732 4.81318 1.00732H29.75C30.2586 1.00732 30.6732 1.49939 30.6732 2.10382V21.544C30.6732 21.5925 30.6643 21.6405 30.647 21.6852C30.6297 21.73 30.6043 21.7706 30.5724 21.8047C30.5404 21.8389 30.5025 21.8659 30.4608 21.8841C30.4192 21.9024 30.3745 21.9116 30.3295 21.9112Z" stroke="#AD5A40" stroke-width="0.6" mask="url(#path-1-outside-1_250_4498)"/>
<path d="M22.6932 29.8658C22.6028 29.8658 22.5161 29.8271 22.4521 29.7582C22.3882 29.6894 22.3523 29.596 22.3523 29.4986V21.591H12.0568V29.4986C12.0568 29.596 12.0209 29.6894 11.957 29.7582C11.893 29.8271 11.8063 29.8658 11.7159 29.8658C11.6255 29.8658 11.5388 29.8271 11.4748 29.7582C11.4109 29.6894 11.375 29.596 11.375 29.4986V21.2238C11.375 21.1264 11.4109 21.033 11.4748 20.9642C11.5388 20.8953 11.6255 20.8566 11.7159 20.8566H22.6932C22.7836 20.8566 22.8703 20.8953 22.9342 20.9642C22.9982 21.033 23.0341 21.1264 23.0341 21.2238V29.4986C23.0341 29.596 22.9982 29.6894 22.9342 29.7582C22.8703 29.8271 22.7836 29.8658 22.6932 29.8658Z" stroke="#AD5A40" stroke-width="0.6" mask="url(#path-1-outside-1_250_4498)"/>
<path d="M31.8295 33.3051H22.1082C22.0178 33.3051 21.9311 33.2664 21.8671 33.1975C21.8032 33.1287 21.7673 33.0353 21.7673 32.9379C21.7673 32.8405 21.8032 32.7471 21.8671 32.6782C21.9311 32.6094 22.0178 32.5707 22.1082 32.5707H31.8295C31.92 32.5707 32.0067 32.532 32.0706 32.4631C32.1345 32.3942 32.1705 32.3008 32.1705 32.2035V30.294C32.1705 30.1966 32.1345 30.1032 32.0706 30.0343C32.0067 29.9654 31.92 29.9267 31.8295 29.9267H2.45341C2.36299 29.9267 2.27628 29.9654 2.21235 30.0343C2.14842 30.1032 2.1125 30.1966 2.1125 30.294V32.2035C2.1125 32.3008 2.14842 32.3942 2.21235 32.4631C2.27628 32.532 2.36299 32.5707 2.45341 32.5707H12.1932C12.2836 32.5707 12.3703 32.6094 12.4342 32.6782C12.4982 32.7471 12.5341 32.8405 12.5341 32.9379C12.5341 33.0353 12.4982 33.1287 12.4342 33.1975C12.3703 33.2664 12.2836 33.3051 12.1932 33.3051H2.45341C2.18217 33.3051 1.92203 33.189 1.73023 32.9824C1.53843 32.7758 1.43068 32.4956 1.43068 32.2035V30.294C1.43068 30.0018 1.53843 29.7216 1.73023 29.515C1.92203 29.3084 2.18217 29.1923 2.45341 29.1923H31.8295C32.1008 29.1923 32.3609 29.3084 32.5527 29.515C32.7445 29.7216 32.8523 30.0018 32.8523 30.294V32.2035C32.8523 32.4956 32.7445 32.7758 32.5527 32.9824C32.3609 33.189 32.1008 33.3051 31.8295 33.3051Z" stroke="#AD5A40" stroke-width="0.6" mask="url(#path-1-outside-1_250_4498)"/>
<path d="M31.4259 29.8658C31.3355 29.8658 31.2488 29.8271 31.1849 29.7582C31.1209 29.6894 31.085 29.596 31.085 29.4986V23.6724C31.085 23.665 31.0986 22.7911 30.5811 22.2197C30.2689 21.876 29.8155 21.7012 29.2332 21.7012H28.1593C28.0689 21.7012 27.9822 21.6625 27.9183 21.5936C27.8543 21.5248 27.8184 21.4314 27.8184 21.334V10.7583C27.8184 10.7465 27.8518 9.46422 27.0357 8.555C26.4684 7.92119 25.6175 7.60025 24.5061 7.60025H9.98955C8.87477 7.60025 8.0225 7.9234 7.45523 8.56088C6.63705 9.47964 6.67659 10.7487 6.67727 10.7641V20.424L6.65886 21.3421C6.6569 21.438 6.62012 21.5294 6.5564 21.5965C6.49268 21.6636 6.40708 21.7012 6.31796 21.7012H5.24409C4.65977 21.7012 4.205 21.8767 3.89273 22.2241C3.38136 22.7925 3.39159 23.6643 3.39227 23.6724V29.4986C3.39227 29.596 3.35636 29.6894 3.29242 29.7582C3.22849 29.8271 3.14178 29.8658 3.05136 29.8658C2.96095 29.8658 2.87424 29.8271 2.8103 29.7582C2.74637 29.6894 2.71045 29.596 2.71045 29.4986V23.6885C2.71045 23.5798 2.70636 22.487 3.40318 21.7129C3.84841 21.2179 4.46818 20.9668 5.24409 20.9668H5.98455L5.99545 20.416V10.7832C5.99136 10.6364 5.975 9.16237 6.96295 8.05265C7.66386 7.26535 8.68182 6.86583 9.98955 6.86583H24.5055C25.8132 6.86583 26.8311 7.26535 27.532 8.05265C28.52 9.16237 28.503 10.64 28.4995 10.7832V20.9668H29.2332C30.0091 20.9668 30.6289 21.2179 31.0741 21.7129C31.7709 22.487 31.7689 23.5784 31.7668 23.6885V29.4986C31.7668 29.596 31.7309 29.6894 31.667 29.7582C31.603 29.8271 31.5163 29.8658 31.4259 29.8658Z" stroke="#AD5A40" stroke-width="0.6" mask="url(#path-1-outside-1_250_4498)"/>
<path d="M22.0509 35.2205H12.2327C12.1423 35.2205 12.0556 35.1818 11.9917 35.1129C11.9277 35.044 11.8918 34.9506 11.8918 34.8533V30.9983C11.8918 30.9009 11.9277 30.8075 11.9917 30.7386C12.0556 30.6697 12.1423 30.6311 12.2327 30.6311H22.0509C22.1413 30.6311 22.228 30.6697 22.292 30.7386C22.3559 30.8075 22.3918 30.9009 22.3918 30.9983V34.8533C22.3918 34.9506 22.3559 35.044 22.292 35.1129C22.228 35.1818 22.1413 35.2205 22.0509 35.2205ZM12.5736 34.486H21.71V31.3655H12.5736V34.486Z" stroke="#AD5A40" stroke-width="0.6" mask="url(#path-1-outside-1_250_4498)"/>
<path d="M28.0339 10.6011H6.45159C6.36118 10.6011 6.27446 10.5624 6.21053 10.4936C6.1466 10.4247 6.11068 10.3313 6.11068 10.2339C6.11068 10.1365 6.1466 10.0431 6.21053 9.97424C6.27446 9.90537 6.36118 9.86668 6.45159 9.86668H28.0339C28.1243 9.86668 28.211 9.90537 28.2749 9.97424C28.3389 10.0431 28.3748 10.1365 28.3748 10.2339C28.3748 10.3313 28.3389 10.4247 28.2749 10.4936C28.211 10.5624 28.1243 10.6011 28.0339 10.6011Z" stroke="#AD5A40" stroke-width="0.6" mask="url(#path-1-outside-1_250_4498)"/>
<path d="M28.0339 19.351H6.45159C6.36118 19.351 6.27446 19.3123 6.21053 19.2435C6.1466 19.1746 6.11068 19.0812 6.11068 18.9838C6.11068 18.8864 6.1466 18.793 6.21053 18.7242C6.27446 18.6553 6.36118 18.6166 6.45159 18.6166H28.0339C28.1243 18.6166 28.211 18.6553 28.2749 18.7242C28.3389 18.793 28.3748 18.8864 28.3748 18.9838C28.3748 19.0812 28.3389 19.1746 28.2749 19.2435C28.211 19.3123 28.1243 19.351 28.0339 19.351Z" stroke="#AD5A40" stroke-width="0.6" mask="url(#path-1-outside-1_250_4498)"/>
<path d="M12.693 4.99304H12.6589C12.5684 4.99304 12.4817 4.95436 12.4178 4.88549C12.3539 4.81662 12.318 4.72322 12.318 4.62583C12.318 4.52844 12.3539 4.43504 12.4178 4.36617C12.4817 4.29731 12.5684 4.25862 12.6589 4.25862H12.693C12.7834 4.25862 12.8701 4.29731 12.934 4.36617C12.9979 4.43504 13.0339 4.52844 13.0339 4.62583C13.0339 4.72322 12.9979 4.81662 12.934 4.88549C12.8701 4.95436 12.7834 4.99304 12.693 4.99304Z" stroke="#AD5A40" stroke-width="0.6" mask="url(#path-1-outside-1_250_4498)"/>
<path d="M20.8332 4.99304H20.765C20.6746 4.99304 20.5879 4.95436 20.5239 4.88549C20.46 4.81662 20.4241 4.72322 20.4241 4.62583C20.4241 4.52844 20.46 4.43504 20.5239 4.36617C20.5879 4.29731 20.6746 4.25862 20.765 4.25862H20.8332C20.9236 4.25862 21.0103 4.29731 21.0742 4.36617C21.1382 4.43504 21.1741 4.52844 21.1741 4.62583C21.1741 4.72322 21.1382 4.81662 21.0742 4.88549C21.0103 4.95436 20.9236 4.99304 20.8332 4.99304ZM19.4764 4.99304H19.4116C19.3212 4.99304 19.2345 4.95436 19.1705 4.88549C19.1066 4.81662 19.0707 4.72322 19.0707 4.62583C19.0707 4.52844 19.1066 4.43504 19.1705 4.36617C19.2345 4.29731 19.3212 4.25862 19.4116 4.25862H19.4764C19.5668 4.25862 19.6535 4.29731 19.7174 4.36617C19.7814 4.43504 19.8173 4.52844 19.8173 4.62583C19.8173 4.72322 19.7814 4.81662 19.7174 4.88549C19.6535 4.95436 19.5668 4.99304 19.4764 4.99304ZM18.1195 4.99304H18.0555C17.965 4.99304 17.8783 4.95436 17.8144 4.88549C17.7505 4.81662 17.7145 4.72322 17.7145 4.62583C17.7145 4.52844 17.7505 4.43504 17.8144 4.36617C17.8783 4.29731 17.965 4.25862 18.0555 4.25862H18.1195C18.21 4.25862 18.2967 4.29731 18.3606 4.36617C18.4245 4.43504 18.4605 4.52844 18.4605 4.62583C18.4605 4.72322 18.4245 4.81662 18.3606 4.88549C18.2967 4.95436 18.21 4.99304 18.1195 4.99304ZM16.7634 4.99304H16.6986C16.6082 4.99304 16.5215 4.95436 16.4576 4.88549C16.3936 4.81662 16.3577 4.72322 16.3577 4.62583C16.3577 4.52844 16.3936 4.43504 16.4576 4.36617C16.5215 4.29731 16.6082 4.25862 16.6986 4.25862H16.7634C16.8538 4.25862 16.9405 4.29731 17.0045 4.36617C17.0684 4.43504 17.1043 4.52844 17.1043 4.62583C17.1043 4.72322 17.0684 4.81662 17.0045 4.88549C16.9405 4.95436 16.8538 4.99304 16.7634 4.99304ZM15.4066 4.99304H15.3418C15.2514 4.99304 15.1647 4.95436 15.1008 4.88549C15.0368 4.81662 15.0009 4.72322 15.0009 4.62583C15.0009 4.52844 15.0368 4.43504 15.1008 4.36617C15.1647 4.29731 15.2514 4.25862 15.3418 4.25862H15.4066C15.497 4.25862 15.5837 4.29731 15.6476 4.36617C15.7116 4.43504 15.7475 4.52844 15.7475 4.62583C15.7475 4.72322 15.7116 4.81662 15.6476 4.88549C15.5837 4.95436 15.497 4.99304 15.4066 4.99304ZM14.0498 4.99304H13.985C13.8946 4.99304 13.8079 4.95436 13.7439 4.88549C13.68 4.81662 13.6441 4.72322 13.6441 4.62583C13.6441 4.52844 13.68 4.43504 13.7439 4.36617C13.8079 4.29731 13.8946 4.25862 13.985 4.25862H14.0498C14.1402 4.25862 14.2269 4.29731 14.2908 4.36617C14.3548 4.43504 14.3907 4.52844 14.3907 4.62583C14.3907 4.72322 14.3548 4.81662 14.2908 4.88549C14.2269 4.95436 14.1402 4.99304 14.0498 4.99304Z" stroke="#AD5A40" stroke-width="0.6" mask="url(#path-1-outside-1_250_4498)"/>
<path d="M22.1593 4.99304H22.1252C22.0348 4.99304 21.9481 4.95436 21.8842 4.88549C21.8202 4.81662 21.7843 4.72322 21.7843 4.62583C21.7843 4.52844 21.8202 4.43504 21.8842 4.36617C21.9481 4.29731 22.0348 4.25862 22.1252 4.25862H22.1593C22.2497 4.25862 22.3364 4.29731 22.4004 4.36617C22.4643 4.43504 22.5002 4.52844 22.5002 4.62583C22.5002 4.72322 22.4643 4.81662 22.4004 4.88549C22.3364 4.95436 22.2497 4.99304 22.1593 4.99304Z" stroke="#AD5A40" stroke-width="0.6" mask="url(#path-1-outside-1_250_4498)"/>
<path d="M3.98545 34.3531C3.89504 34.3531 3.80833 34.3144 3.7444 34.2456C3.68046 34.1767 3.64455 34.0833 3.64455 33.9859C3.64455 33.8885 3.68046 33.7951 3.7444 33.7262C3.80833 33.6574 3.89504 33.6187 3.98545 33.6187H5.16909C5.25951 33.6187 5.34622 33.6574 5.41015 33.7262C5.47408 33.7951 5.51 33.8885 5.51 33.9859C5.51 34.0833 5.47408 34.1767 5.41015 34.2456C5.34622 34.3144 5.25951 34.3531 5.16909 34.3531H3.98545Z" stroke="#AD5A40" stroke-width="0.6" mask="url(#path-1-outside-1_250_4498)"/>
<path d="M3.97045 35.7184C3.88004 35.7184 3.79333 35.6797 3.7294 35.6109C3.66546 35.542 3.62955 35.4486 3.62955 35.3512C3.62955 35.2538 3.66546 35.1604 3.7294 35.0915C3.79333 35.0227 3.88004 34.984 3.97045 34.984H5.18545C5.27587 34.984 5.36258 35.0227 5.42651 35.0915C5.49045 35.1604 5.52636 35.2538 5.52636 35.3512C5.52636 35.4486 5.49045 35.542 5.42651 35.6109C5.36258 35.6797 5.27587 35.7184 5.18545 35.7184H3.97045Z" stroke="#AD5A40" stroke-width="0.6" mask="url(#path-1-outside-1_250_4498)"/>
<path d="M7.19 34.3531C7.09959 34.3531 7.01287 34.3144 6.94894 34.2456C6.88501 34.1767 6.84909 34.0833 6.84909 33.9859C6.84909 33.8885 6.88501 33.7951 6.94894 33.7262C7.01287 33.6574 7.09959 33.6187 7.19 33.6187H8.37364C8.46405 33.6187 8.55076 33.6574 8.6147 33.7262C8.67863 33.7951 8.71455 33.8885 8.71455 33.9859C8.71455 34.0833 8.67863 34.1767 8.6147 34.2456C8.55076 34.3144 8.46405 34.3531 8.37364 34.3531H7.19Z" stroke="#AD5A40" stroke-width="0.6" mask="url(#path-1-outside-1_250_4498)"/>
<path d="M7.175 35.7184C7.08459 35.7184 6.99787 35.6797 6.93394 35.6109C6.87001 35.542 6.83409 35.4486 6.83409 35.3512C6.83409 35.2538 6.87001 35.1604 6.93394 35.0915C6.99787 35.0227 7.08459 34.984 7.175 34.984H8.39C8.48041 34.984 8.56713 35.0227 8.63106 35.0915C8.69499 35.1604 8.73091 35.2538 8.73091 35.3512C8.73091 35.4486 8.69499 35.542 8.63106 35.6109C8.56713 35.6797 8.48041 35.7184 8.39 35.7184H7.175Z" stroke="#AD5A40" stroke-width="0.6" mask="url(#path-1-outside-1_250_4498)"/>
<path d="M25.9673 34.3531C25.8769 34.3531 25.7901 34.3144 25.7262 34.2456C25.6623 34.1767 25.6264 34.0833 25.6264 33.9859C25.6264 33.8885 25.6623 33.7951 25.7262 33.7262C25.7901 33.6574 25.8769 33.6187 25.9673 33.6187H27.1264C27.2168 33.6187 27.3035 33.6574 27.3674 33.7262C27.4314 33.7951 27.4673 33.8885 27.4673 33.9859C27.4673 34.0833 27.4314 34.1767 27.3674 34.2456C27.3035 34.3144 27.2168 34.3531 27.1264 34.3531H25.9673Z" stroke="#AD5A40" stroke-width="0.6" mask="url(#path-1-outside-1_250_4498)"/>
<path d="M25.9523 35.7184C25.8619 35.7184 25.7751 35.6797 25.7112 35.6109C25.6473 35.542 25.6114 35.4486 25.6114 35.3512C25.6114 35.2538 25.6473 35.1604 25.7112 35.0915C25.7751 35.0227 25.8619 34.984 25.9523 34.984H27.1386C27.2291 34.984 27.3158 35.0227 27.3797 35.0915C27.4436 35.1604 27.4795 35.2538 27.4795 35.3512C27.4795 35.4486 27.4436 35.542 27.3797 35.6109C27.3158 35.6797 27.2291 35.7184 27.1386 35.7184H25.9523Z" stroke="#AD5A40" stroke-width="0.6" mask="url(#path-1-outside-1_250_4498)"/>
<path d="M29.1636 34.3531C29.0732 34.3531 28.9865 34.3144 28.9226 34.2456C28.8586 34.1767 28.8227 34.0833 28.8227 33.9859C28.8227 33.8885 28.8586 33.7951 28.9226 33.7262C28.9865 33.6574 29.0732 33.6187 29.1636 33.6187H30.3227C30.4131 33.6187 30.4999 33.6574 30.5638 33.7262C30.6277 33.7951 30.6636 33.8885 30.6636 33.9859C30.6636 34.0833 30.6277 34.1767 30.5638 34.2456C30.4999 34.3144 30.4131 34.3531 30.3227 34.3531H29.1636Z" stroke="#AD5A40" stroke-width="0.6" mask="url(#path-1-outside-1_250_4498)"/>
<path d="M29.1486 35.7184C29.0582 35.7184 28.9715 35.6797 28.9076 35.6109C28.8436 35.542 28.8077 35.4486 28.8077 35.3512C28.8077 35.2538 28.8436 35.1604 28.9076 35.0915C28.9715 35.0227 29.0582 34.984 29.1486 34.984H30.335C30.4254 34.984 30.5121 35.0227 30.5761 35.0915C30.64 35.1604 30.6759 35.2538 30.6759 35.3512C30.6759 35.4486 30.64 35.542 30.5761 35.6109C30.5121 35.6797 30.4254 35.7184 30.335 35.7184H29.1486Z" stroke="#AD5A40" stroke-width="0.6" mask="url(#path-1-outside-1_250_4498)"/>
<path d="M20.2523 32.9166C20.2523 32.8192 20.2882 32.7258 20.3521 32.6569C20.4161 32.5881 20.5028 32.5494 20.5932 32.5494C20.6836 32.5494 20.7703 32.5881 20.8342 32.6569C20.8982 32.7258 20.9341 32.8192 20.9341 32.9166C20.9341 33.014 20.8982 33.1074 20.8342 33.1762C20.7703 33.2451 20.6836 33.2838 20.5932 33.2838C20.5028 33.2838 20.4161 33.2451 20.3521 33.1762C20.2882 33.1074 20.2523 33.014 20.2523 32.9166ZM18.8886 32.9166C18.8886 32.8192 18.9246 32.7258 18.9885 32.6569C19.0524 32.5881 19.1391 32.5494 19.2295 32.5494C19.32 32.5494 19.4067 32.5881 19.4706 32.6569C19.5345 32.7258 19.5705 32.8192 19.5705 32.9166C19.5705 33.014 19.5345 33.1074 19.4706 33.1762C19.4067 33.2451 19.32 33.2838 19.2295 33.2838C19.1391 33.2838 19.0524 33.2451 18.9885 33.1762C18.9246 33.1074 18.8886 33.014 18.8886 32.9166ZM17.525 32.9166C17.525 32.8192 17.5609 32.7258 17.6249 32.6569C17.6888 32.5881 17.7755 32.5494 17.8659 32.5494C17.9563 32.5494 18.043 32.5881 18.107 32.6569C18.1709 32.7258 18.2068 32.8192 18.2068 32.9166C18.2068 33.014 18.1709 33.1074 18.107 33.1762C18.043 33.2451 17.9563 33.2838 17.8659 33.2838C17.7755 33.2838 17.6888 33.2451 17.6249 33.1762C17.5609 33.1074 17.525 33.014 17.525 32.9166ZM16.1614 32.9166C16.1614 32.8192 16.1973 32.7258 16.2612 32.6569C16.3251 32.5881 16.4119 32.5494 16.5023 32.5494C16.5927 32.5494 16.6794 32.5881 16.7433 32.6569C16.8073 32.7258 16.8432 32.8192 16.8432 32.9166C16.8432 33.014 16.8073 33.1074 16.7433 33.1762C16.6794 33.2451 16.5927 33.2838 16.5023 33.2838C16.4119 33.2838 16.3251 33.2451 16.2612 33.1762C16.1973 33.1074 16.1614 33.014 16.1614 32.9166ZM14.7977 32.9166C14.7977 32.8192 14.8336 32.7258 14.8976 32.6569C14.9615 32.5881 15.0482 32.5494 15.1386 32.5494C15.2291 32.5494 15.3158 32.5881 15.3797 32.6569C15.4436 32.7258 15.4795 32.8192 15.4795 32.9166C15.4795 33.014 15.4436 33.1074 15.3797 33.1762C15.3158 33.2451 15.2291 33.2838 15.1386 33.2838C15.0482 33.2838 14.9615 33.2451 14.8976 33.1762C14.8336 33.1074 14.7977 33.014 14.7977 32.9166ZM13.4341 32.9166C13.4341 32.8192 13.47 32.7258 13.5339 32.6569C13.5979 32.5881 13.6846 32.5494 13.775 32.5494C13.8654 32.5494 13.9521 32.5881 14.0161 32.6569C14.08 32.7258 14.1159 32.8192 14.1159 32.9166C14.1159 33.014 14.08 33.1074 14.0161 33.1762C13.9521 33.2451 13.8654 33.2838 13.775 33.2838C13.6846 33.2838 13.5979 33.2451 13.5339 33.1762C13.47 33.1074 13.4341 33.014 13.4341 32.9166Z" stroke="#AD5A40" stroke-width="0.6" mask="url(#path-1-outside-1_250_4498)"/>
</svg>
