<svg width="37" height="36" viewBox="0 0 37 36" fill="none" xmlns="http://www.w3.org/2000/svg">
<path d="M16.6735 24.4264L20.5229 21.2187C21.0263 20.8007 21.6302 20.5216 22.2748 20.409C22.9193 20.2964 23.5822 20.3542 24.1975 20.5767L28.2404 22.0468C28.4372 22.1184 28.6449 22.155 28.8543 22.1549H36.4275V20.9574H32.8348V1.79634C32.8343 1.32009 32.6448 0.863495 32.3081 0.526732C31.9713 0.189969 31.5147 0.000538445 31.0385 0H5.88962C5.41337 0.000538445 4.95677 0.189969 4.62001 0.526732C4.28325 0.863495 4.09382 1.32009 4.09328 1.79634V20.9528L0.501027 20.9501L0.50015 22.1476L9.88579 22.1548H9.88732C10.0803 22.1549 10.2721 22.1237 10.4552 22.0626L15.4752 20.3893C15.5363 20.3689 15.6002 20.3586 15.6645 20.3586H19.6844L15.9069 23.5065C15.6755 23.6983 15.4841 23.9339 15.3439 24.1998C15.2036 24.4657 15.1172 24.7567 15.0896 25.0561C15.062 25.3554 15.0937 25.6573 15.1829 25.9444C15.2721 26.2315 15.4171 26.4982 15.6096 26.7291C15.802 26.9601 16.0382 27.1508 16.3045 27.2903C16.5707 27.4299 16.8619 27.5155 17.1614 27.5424C17.4608 27.5692 17.7626 27.5367 18.0494 27.4467C18.3363 27.3567 18.6026 27.211 18.833 27.0179L20.8224 25.3601L26.1242 30.6619C26.1866 30.7242 26.2361 30.7982 26.2699 30.8797C26.3037 30.9612 26.3211 31.0485 26.3212 31.1367C26.3212 31.2249 26.3038 31.3123 26.2701 31.3938C26.2364 31.4753 26.1869 31.5493 26.1245 31.6117C26.0622 31.6741 25.9881 31.7236 25.9066 31.7573C25.8251 31.7911 25.7377 31.8084 25.6495 31.8084C25.5613 31.8084 25.474 31.791 25.3925 31.7572C25.311 31.7234 25.237 31.6738 25.1747 31.6114L24.5759 31.0126L20.6838 27.1206L19.837 27.9674L23.729 31.8594C23.7915 31.9218 23.841 31.9958 23.8748 32.0773C23.9086 32.1587 23.926 32.2461 23.926 32.3343C23.9261 32.4225 23.9087 32.5098 23.875 32.5913C23.8412 32.6728 23.7918 32.7469 23.7294 32.8093C23.667 32.8717 23.593 32.9211 23.5115 32.9549C23.43 32.9886 23.3426 33.006 23.2544 33.006C23.1662 33.0059 23.0789 32.9885 22.9974 32.9547C22.9159 32.9209 22.8419 32.8714 22.7795 32.809L22.1808 32.2102L19.4862 29.5157L18.6394 30.3625L21.3339 33.057C21.3963 33.1193 21.4459 33.1933 21.4797 33.2748C21.5135 33.3563 21.5309 33.4436 21.5309 33.5318C21.5309 33.6201 21.5136 33.7074 21.4798 33.7889C21.4461 33.8704 21.3966 33.9445 21.3343 34.0068C21.2719 34.0692 21.1978 34.1187 21.1163 34.1524C21.0348 34.1862 20.9475 34.2035 20.8593 34.2035C20.7711 34.2035 20.6837 34.1861 20.6023 34.1523C20.5208 34.1185 20.4468 34.069 20.3844 34.0065L19.1869 32.809L18.5265 32.1486C18.4822 31.6994 18.2765 31.2814 17.9476 30.9722C17.6187 30.663 17.1889 30.4835 16.7378 30.4669C16.7205 29.996 16.5257 29.5491 16.1925 29.2158C15.8593 28.8826 15.4123 28.6878 14.9414 28.6706C14.9302 28.3786 14.8508 28.0933 14.7094 27.8376C14.5681 27.5819 14.3687 27.3629 14.1274 27.1981C13.8861 27.0334 13.6096 26.9274 13.32 26.8889C13.0303 26.8503 12.7357 26.8802 12.4597 26.976C12.3624 26.6706 12.1881 26.3953 11.9536 26.1767C11.7191 25.9581 11.4323 25.8035 11.1207 25.7278C10.8092 25.6521 10.4834 25.6578 10.1748 25.7444C9.86611 25.8311 9.58492 25.9957 9.35827 26.2224L8.16071 27.42C7.98714 27.5933 7.84952 27.7992 7.75574 28.0259C7.66196 28.2526 7.61387 28.4956 7.61422 28.7409L0.501169 28.7342L0.5 29.9318L4.09328 29.9352V34.1306C4.09382 34.6068 4.28325 35.0634 4.62001 35.4002C4.95677 35.7369 5.41337 35.9264 5.88962 35.9269H11.8774V34.7293H5.88962C5.73087 34.7292 5.57867 34.666 5.46642 34.5538C5.35417 34.4415 5.29102 34.2893 5.29084 34.1306V29.9363L8.04767 29.9389C8.08329 29.9815 8.12071 30.0231 8.16071 30.0631C8.49336 30.3974 8.94086 30.5926 9.41223 30.6088C9.4295 31.0797 9.6243 31.5267 9.95751 31.8599C10.2907 32.1931 10.7377 32.3879 11.2086 32.4052C11.2198 32.6971 11.2992 32.9824 11.4406 33.2381C11.5819 33.4938 11.7813 33.7128 12.0226 33.8776C12.2639 34.0424 12.5404 34.1483 12.83 34.1868C13.1197 34.2254 13.4143 34.1956 13.6903 34.0997C13.7721 34.3561 13.9083 34.5917 14.0895 34.7906C14.2708 34.9895 14.4928 35.1469 14.7405 35.2521C14.9882 35.3573 15.2556 35.4077 15.5246 35.4C15.7936 35.3923 16.0577 35.3266 16.299 35.2074L16.5436 35.4521C16.7581 35.6669 17.0218 35.8261 17.3116 35.9161C17.6015 36.006 17.909 36.024 18.2074 35.9684C18.5058 35.9128 18.7861 35.7853 19.0242 35.597C19.2622 35.4087 19.4508 35.1652 19.5736 34.8876C19.803 35.1056 20.084 35.2616 20.3902 35.3412C20.6965 35.4207 21.018 35.4211 21.3244 35.3423C21.6309 35.2636 21.9123 35.1082 22.1422 34.8908C22.3722 34.6735 22.5431 34.4012 22.639 34.0997C22.8747 34.1819 23.1245 34.216 23.3736 34.2C23.6228 34.1841 23.8662 34.1183 24.0894 34.0067C24.3127 33.895 24.5114 33.7398 24.6736 33.5501C24.8359 33.3603 24.9585 33.14 25.0341 32.9021C25.3646 33.0173 25.7208 33.0373 26.0621 32.9599C26.4034 32.8825 26.7161 32.7109 26.9647 32.4645C27.2132 32.2181 27.3876 31.9069 27.468 31.5663C27.5484 31.2257 27.5315 30.8694 27.4193 30.5379H28.5132C29.1072 30.5385 29.6879 30.3618 30.1809 30.0304L31.0692 29.4345C31.1679 29.3682 31.284 29.3329 31.4029 29.333H31.6372V34.1306C31.6371 34.2893 31.5739 34.4415 31.4617 34.5538C31.3494 34.666 31.1972 34.7292 31.0385 34.7293H25.0506V35.9269H31.0385C31.5147 35.9264 31.9713 35.7369 32.3081 35.4002C32.6448 35.0634 32.8343 34.6068 32.8348 34.1306V29.333H36.4275V28.1354H31.4029C31.0465 28.1351 30.6981 28.2411 30.4022 28.4399L29.5138 29.0358C29.218 29.2347 28.8696 29.3407 28.5132 29.3403H26.4962L23.4124 26.2565C24.4497 26.2863 25.4638 25.9461 26.2733 25.2968L26.6222 25.0176L25.8742 24.0825L25.5252 24.3616C24.9134 24.8521 24.1419 25.0993 23.359 25.056C22.576 25.0126 21.8366 24.6817 21.2826 24.1267L20.8959 23.74L18.0663 26.0979C17.8447 26.2825 17.5588 26.3716 17.2715 26.3454C16.9842 26.3192 16.7191 26.18 16.5344 25.9584C16.3497 25.7368 16.2606 25.4509 16.2867 25.1636C16.3128 24.8763 16.452 24.6112 16.6735 24.4264H16.6735ZM15.6645 19.161C15.4714 19.1609 15.2796 19.1921 15.0965 19.2532L10.0763 20.9265C10.0154 20.9469 9.95153 20.9573 9.88725 20.9572H9.88674L5.29084 20.9537V1.79634C5.29102 1.63759 5.35417 1.4854 5.46642 1.37314C5.57867 1.26089 5.73087 1.19774 5.88962 1.19756H31.0385C31.1972 1.19774 31.3494 1.26089 31.4617 1.37314C31.5739 1.4854 31.6371 1.63759 31.6372 1.79634V20.9574H28.8543C28.7845 20.9574 28.7152 20.9452 28.6497 20.9213L24.6068 19.4512C23.9824 19.2247 23.3187 19.1269 22.6555 19.1635V19.161H15.6645ZM9.48231 29.413C9.34952 29.4129 9.21971 29.3736 9.10929 29.2998C8.99888 29.226 8.91283 29.1211 8.86201 28.9984C8.8112 28.8758 8.7979 28.7408 8.82381 28.6105C8.84972 28.4803 8.91367 28.3606 9.00757 28.2667L10.2051 27.0692C10.3311 26.9434 10.5018 26.8728 10.6798 26.8729C10.8578 26.8729 11.0285 26.9437 11.1543 27.0695C11.2802 27.1954 11.3509 27.3661 11.351 27.5441C11.351 27.7221 11.2804 27.8928 11.1546 28.0187L9.95706 29.2163C9.89486 29.2788 9.82088 29.3284 9.73938 29.3622C9.6579 29.3959 9.57052 29.4132 9.48231 29.413ZM11.2787 31.2093C11.1459 31.2093 11.0161 31.1699 10.9056 31.0961C10.7952 31.0223 10.7092 30.9175 10.6584 30.7948C10.6075 30.6721 10.5942 30.5371 10.6202 30.4069C10.6461 30.2766 10.71 30.157 10.8039 30.0631L12.0015 28.8655L12.6003 28.2667C12.7262 28.141 12.8969 28.0704 13.0749 28.0704C13.2529 28.0705 13.4236 28.1412 13.5495 28.2671C13.6753 28.393 13.746 28.5636 13.7461 28.7416C13.7461 28.9196 13.6755 29.0904 13.5497 29.2163L11.7534 31.0126C11.6912 31.0752 11.6172 31.1248 11.5357 31.1585C11.4542 31.1923 11.3669 31.2095 11.2787 31.2093ZM13.5497 32.809C13.4238 32.9348 13.2531 33.0054 13.0751 33.0053C12.8971 33.0052 12.7264 32.9345 12.6006 32.8086C12.4747 32.6828 12.404 32.5121 12.4039 32.3341C12.4039 32.1561 12.4745 31.9854 12.6003 31.8594L14.3966 30.0631C14.5226 29.9373 14.6933 29.8667 14.8713 29.8668C15.0493 29.8668 15.2199 29.9376 15.3458 30.0634C15.4717 30.1893 15.5424 30.36 15.5424 30.538C15.5425 30.716 15.4719 30.8867 15.3461 31.0126L14.1485 32.2102L13.5497 32.809ZM15.9449 34.0065C15.8189 34.1323 15.6482 34.2029 15.4702 34.2029C15.2922 34.2028 15.1215 34.132 14.9957 34.0062C14.8698 33.8803 14.7991 33.7096 14.799 33.5317C14.799 33.3537 14.8696 33.1829 14.9954 33.057L16.193 31.8594C16.3189 31.7337 16.4896 31.6631 16.6676 31.6631C16.8456 31.6632 17.0163 31.7339 17.1421 31.8598C17.268 31.9857 17.3387 32.1563 17.3388 32.3343C17.3388 32.5123 17.2682 32.683 17.1424 32.809L15.9449 34.0065ZM18.34 34.6053C18.2777 34.6677 18.2036 34.7171 18.1222 34.7509C18.0407 34.7846 17.9534 34.802 17.8653 34.802C17.7771 34.802 17.6898 34.7846 17.6083 34.7509C17.5269 34.7171 17.4529 34.6677 17.3905 34.6053L17.2151 34.4299L17.9893 33.6558C18.0478 33.597 18.1024 33.5344 18.1527 33.4684L18.34 33.6558C18.4657 33.7818 18.5364 33.9525 18.5364 34.1306C18.5364 34.3086 18.4657 34.4793 18.34 34.6053Z" fill="#AD5A40"/>
<path d="M14.2725 14.3708H7.08716V15.5684H14.2725V14.3708Z" fill="#AD5A40"/>
<path d="M11.8775 16.7659H8.88354V17.9634H11.8775V16.7659Z" fill="#AD5A40"/>
<path d="M29.8409 14.3708H22.6555V15.5684H29.8409V14.3708Z" fill="#AD5A40"/>
<path d="M27.4458 16.7659H24.4519V17.9634H27.4458V16.7659Z" fill="#AD5A40"/>
<path d="M22.6554 2.9939H14.2725V4.19146H22.6554V2.9939Z" fill="#AD5A40"/>
<path d="M29.8409 5.98779H7.08716V7.18536H29.8409V5.98779Z" fill="#AD5A40"/>
<path d="M29.8409 8.38306H7.08716V9.58062H29.8409V8.38306Z" fill="#AD5A40"/>
<path d="M19.6616 10.7781H7.08716V11.9756H19.6616V10.7781Z" fill="#AD5A40"/>
</svg>
