<svg width="39" height="38" viewBox="0 0 39 38" fill="none" xmlns="http://www.w3.org/2000/svg">
<path d="M31.1129 30.0323V9.12903C31.1129 8.51305 30.8682 7.92229 30.4326 7.48672C29.9971 7.05115 29.4063 6.80645 28.7903 6.80645H27.3039C26.894 6.80708 26.495 6.67509 26.1664 6.4302C25.8378 6.1853 25.5972 5.84065 25.4806 5.44774C25.0947 4.16176 24.3044 3.03449 23.227 2.23326C22.1497 1.43203 20.8426 0.999542 19.5 1C18.1574 0.999542 16.8503 1.43203 15.773 2.23326C14.6956 3.03449 13.9053 4.16176 13.5194 5.44774C13.4028 5.84065 13.1622 6.1853 12.8336 6.4302C12.505 6.67509 12.106 6.80708 11.6961 6.80645H10.2097C9.59369 6.80645 9.00293 7.05115 8.56736 7.48672C8.1318 7.92229 7.8871 8.51305 7.8871 9.12903V30.0323M31.1129 30.0323C31.7289 30.0323 32.3196 30.277 32.7552 30.7125C33.1908 31.1481 33.4355 31.7389 33.4355 32.3548V33.5161M31.1129 30.0323H25.8871M7.8871 30.0323H13.1129M7.8871 30.0323C7.27111 30.0323 6.68035 30.277 6.24478 30.7125C5.80922 31.1481 5.56452 31.7389 5.56452 32.3548V33.5161M10.2097 30.0323V9.12903H11.6961C12.6094 9.13803 13.5006 8.84854 14.2343 8.30459C14.9679 7.76063 15.5039 6.99197 15.7606 6.11548C16.0048 5.30917 16.5018 4.60279 17.1783 4.10075C17.8549 3.59871 18.675 3.32766 19.5174 3.32766C20.3599 3.32766 21.18 3.59871 21.8565 4.10075C22.533 4.60279 23.0301 5.30917 23.2742 6.11548C23.5309 6.99197 24.0669 7.76063 24.8006 8.30459C25.5342 8.84854 26.4254 9.13803 27.3387 9.12903H28.7903V30.0323M5.56452 33.5161H33.4355M5.56452 33.5161C4.94853 33.5161 4.35777 33.7608 3.9222 34.1964C3.48664 34.632 3.24194 35.2227 3.24194 35.8387V37H35.7581V35.8387C35.7581 35.2227 35.5134 34.632 35.0778 34.1964C34.6422 33.7608 34.0515 33.5161 33.4355 33.5161M13.6935 15.5161H25.3065M13.6935 18.4194H25.3065M1.5 37H37.5M24.2381 24.4116C24.5577 23.8193 24.7253 23.1569 24.7258 22.4839V21.3226H23.5645C22.4865 21.3226 21.4527 21.7508 20.6905 22.513C19.9282 23.2753 19.5 24.3091 19.5 25.3871M19.5 25.3871V26.5484M19.5 25.3871C19.5 24.3091 19.0718 23.2753 18.3095 22.513C17.5473 21.7508 16.5135 21.3226 15.4355 21.3226H14.2742V22.4839C14.2747 23.1569 14.4423 23.8193 14.7619 24.4116M22.6645 30.8452C22.8449 31.0096 23.0668 31.1215 23.3063 31.1686C23.5458 31.2158 23.7936 31.1964 24.0228 31.1126C24.252 31.0288 24.4539 30.8838 24.6065 30.6933C24.7591 30.5029 24.8566 30.2742 24.8884 30.0323C25.1964 30.2078 25.5615 30.2538 25.9034 30.1602C26.2453 30.0665 26.5361 29.8409 26.7116 29.5329C26.8872 29.2249 26.9332 28.8598 26.8395 28.5179C26.7459 28.1759 26.5203 27.8852 26.2123 27.7097C26.5203 27.5341 26.7459 27.2434 26.8395 26.9015C26.9332 26.5596 26.8872 26.1944 26.7116 25.8865C26.5361 25.5785 26.2453 25.3528 25.9034 25.2592C25.5615 25.1655 25.1964 25.2115 24.8884 25.3871C24.8575 25.0574 24.7046 24.7511 24.4598 24.5281C24.2149 24.3051 23.8957 24.1815 23.5645 24.1815C23.2334 24.1815 22.9141 24.3051 22.6693 24.5281C22.4244 24.7511 22.2716 25.0574 22.2406 25.3871C21.9362 25.2578 21.5947 25.2455 21.2817 25.3527C20.9687 25.4599 20.7064 25.6789 20.5452 25.9677C20.3831 26.2509 20.3334 26.5845 20.4058 26.9026M18.5942 26.9026C18.6666 26.5845 18.6169 26.2509 18.4548 25.9677C18.2936 25.6789 18.0313 25.4599 17.7183 25.3527C17.4053 25.2455 17.0638 25.2578 16.7594 25.3871C16.7284 25.0574 16.5756 24.7511 16.3307 24.5281C16.0859 24.3051 15.7666 24.1815 15.4355 24.1815C15.1043 24.1815 14.7851 24.3051 14.5402 24.5281C14.2954 24.7511 14.1425 25.0574 14.1116 25.3871C13.9591 25.3002 13.791 25.2441 13.6168 25.2222C13.4427 25.2002 13.2659 25.2128 13.0966 25.2592C12.9273 25.3055 12.7688 25.3848 12.6301 25.4924C12.4914 25.6001 12.3753 25.7339 12.2884 25.8865C12.2015 26.039 12.1454 26.2071 12.1235 26.3812C12.1015 26.5554 12.1141 26.7322 12.1605 26.9015C12.2068 27.0708 12.2861 27.2293 12.3937 27.368C12.5014 27.5066 12.6352 27.6228 12.7877 27.7097C12.6352 27.7966 12.5014 27.9127 12.3937 28.0514C12.2861 28.1901 12.2068 28.3486 12.1605 28.5179C12.1141 28.6872 12.1015 28.864 12.1235 29.0381C12.1454 29.2123 12.2015 29.3804 12.2884 29.5329C12.3753 29.6854 12.4914 29.8193 12.6301 29.9269C12.7688 30.0346 12.9273 30.1138 13.0966 30.1602C13.2659 30.2066 13.4427 30.2191 13.6168 30.1972C13.791 30.1752 13.9591 30.1192 14.1116 30.0323C14.1388 30.2767 14.233 30.5088 14.3838 30.7031C14.5346 30.8974 14.736 31.0463 14.966 31.1334C15.196 31.2205 15.4456 31.2424 15.6873 31.1966C15.9289 31.1509 16.1532 31.0393 16.3355 30.8742M21.8226 10.2903C21.8226 11.573 20.7827 12.6129 19.5 12.6129C18.2173 12.6129 17.1774 11.573 17.1774 10.2903C17.1774 9.0076 18.2173 7.96774 19.5 7.96774C20.7827 7.96774 21.8226 9.0076 21.8226 10.2903ZM22.1477 30.0323C22.4557 29.8567 22.6814 29.566 22.775 29.2241C22.8687 28.8821 22.8227 28.517 22.6471 28.209C22.4715 27.901 22.1808 27.6754 21.8389 27.5818C21.497 27.4881 21.1319 27.5341 20.8239 27.7097C20.793 27.38 20.6401 27.0736 20.3953 26.8507C20.1504 26.6277 19.8312 26.5041 19.5 26.5041C19.1688 26.5041 18.8496 26.6277 18.6047 26.8507C18.3599 27.0736 18.207 27.38 18.1761 27.7097C17.8681 27.5341 17.503 27.4881 17.1611 27.5818C16.8192 27.6754 16.5285 27.901 16.3529 28.209C16.1773 28.517 16.1313 28.8821 16.225 29.2241C16.3186 29.566 16.5443 29.8567 16.8523 30.0323C16.5443 30.2078 16.3186 30.4985 16.225 30.8405C16.1313 31.1824 16.1773 31.5475 16.3529 31.8555C16.5285 32.1635 16.8192 32.3891 17.1611 32.4828C17.503 32.5764 17.8681 32.5304 18.1761 32.3548C18.207 32.6846 18.3599 32.9909 18.6047 33.2138C18.8496 33.4368 19.1688 33.5604 19.5 33.5604C19.8312 33.5604 20.1504 33.4368 20.3953 33.2138C20.6401 32.9909 20.793 32.6846 20.8239 32.3548C21.1319 32.5304 21.497 32.5764 21.8389 32.4828C22.1808 32.3891 22.4715 32.1635 22.6471 31.8555C22.8227 31.5475 22.8687 31.1824 22.775 30.8405C22.6814 30.4985 22.4557 30.2078 22.1477 30.0323Z" stroke="#AD5A40" stroke-width="1.5" stroke-linecap="round" stroke-linejoin="round"/>
</svg>
